<svg width="115" height="18" viewBox="0 0 115 18" fill="none" xmlns="http://www.w3.org/2000/svg">
<path d="M3.4 15.658C3.4 16.0393 3.26067 16.362 2.982 16.626C2.70333 16.8753 2.38067 17 2.014 17C1.60333 17 1.27333 16.8753 1.024 16.626C0.774667 16.362 0.65 16.0393 0.65 15.658V2.942C0.65 2.56067 0.782 2.24533 1.046 1.996C1.31 1.732 1.64733 1.6 2.058 1.6C2.41 1.6 2.718 1.732 2.982 1.996C3.26067 2.24533 3.4 2.56067 3.4 2.942V15.658ZM12.7806 5.01C13.8659 5.01 14.6873 5.23733 15.2446 5.692C15.8166 6.14667 16.2053 6.75533 16.4106 7.518C16.6306 8.266 16.7406 9.102 16.7406 10.026V15.658C16.7406 16.0393 16.6159 16.362 16.3666 16.626C16.1173 16.8753 15.8019 17 15.4206 17C15.0393 17 14.7239 16.8753 14.4746 16.626C14.2253 16.362 14.1006 16.0393 14.1006 15.658V10.026C14.1006 9.542 14.0346 9.10933 13.9026 8.728C13.7853 8.332 13.5653 8.01667 13.2426 7.782C12.9199 7.54733 12.4579 7.43 11.8566 7.43C11.2699 7.43 10.7713 7.54733 10.3606 7.782C9.96459 8.01667 9.65659 8.332 9.43659 8.728C9.23126 9.10933 9.12859 9.542 9.12859 10.026V15.658C9.12859 16.0393 9.00393 16.362 8.75459 16.626C8.50526 16.8753 8.18993 17 7.80859 17C7.42726 17 7.11193 16.8753 6.86259 16.626C6.61326 16.362 6.48859 16.0393 6.48859 15.658V6.572C6.48859 6.19067 6.61326 5.87533 6.86259 5.626C7.11193 5.362 7.42726 5.23 7.80859 5.23C8.18993 5.23 8.50526 5.362 8.75459 5.626C9.00393 5.87533 9.12859 6.19067 9.12859 6.572V7.518L8.79859 7.452C8.93059 7.20267 9.12126 6.93867 9.37059 6.66C9.61993 6.36667 9.91326 6.09533 10.2506 5.846C10.5879 5.59667 10.9693 5.39867 11.3946 5.252C11.8199 5.09067 12.2819 5.01 12.7806 5.01ZM25.6441 0.72C25.9667 0.72 26.2821 0.764 26.5901 0.851999C26.8981 0.939999 27.1547 1.08667 27.3601 1.292C27.5654 1.48267 27.6681 1.73933 27.6681 2.062C27.6681 2.42867 27.5581 2.722 27.3381 2.942C27.1327 3.14733 26.8907 3.25 26.6121 3.25C26.4801 3.25 26.2821 3.22067 26.0181 3.162C25.7541 3.08867 25.4974 3.052 25.2481 3.052C24.8814 3.052 24.5954 3.13267 24.3901 3.294C24.1994 3.45533 24.0674 3.646 23.9941 3.866C23.9207 4.07133 23.8841 4.25467 23.8841 4.416V15.658C23.8841 16.0393 23.7594 16.362 23.5101 16.626C23.2607 16.8753 22.9454 17 22.5641 17C22.1827 17 21.8674 16.8753 21.6181 16.626C21.3687 16.362 21.2441 16.0393 21.2441 15.658V4.438C21.2441 3.39667 21.6107 2.51667 22.3441 1.798C23.0774 1.07933 24.1774 0.72 25.6441 0.72ZM25.8861 5.45C26.2381 5.45 26.5314 5.56733 26.7661 5.802C27.0007 6.022 27.1181 6.308 27.1181 6.66C27.1181 7.012 27.0007 7.30533 26.7661 7.54C26.5314 7.76 26.2381 7.87 25.8861 7.87H20.0561C19.7041 7.87 19.4107 7.76 19.1761 7.54C18.9414 7.30533 18.8241 7.012 18.8241 6.66C18.8241 6.308 18.9414 6.022 19.1761 5.802C19.4107 5.56733 19.7041 5.45 20.0561 5.45H25.8861ZM32.0681 15.658C32.0681 16.0393 31.9361 16.362 31.6721 16.626C31.4227 16.8753 31.1074 17 30.7261 17C30.3594 17 30.0514 16.8753 29.8021 16.626C29.5527 16.362 29.4281 16.0393 29.4281 15.658V2.062C29.4281 1.68067 29.5527 1.36533 29.8021 1.116C30.0661 0.851999 30.3887 0.72 30.7701 0.72C31.1514 0.72 31.4594 0.851999 31.6941 1.116C31.9434 1.36533 32.0681 1.68067 32.0681 2.062V15.658ZM43.8828 5.23C44.2641 5.23 44.5794 5.362 44.8287 5.626C45.0781 5.87533 45.2028 6.19067 45.2028 6.572V12.16C45.2028 13.7147 44.7701 14.9467 43.9048 15.856C43.0394 16.7653 41.7928 17.22 40.1648 17.22C38.5368 17.22 37.2901 16.7653 36.4248 15.856C35.5741 14.9467 35.1488 13.7147 35.1488 12.16V6.572C35.1488 6.19067 35.2734 5.87533 35.5228 5.626C35.7721 5.362 36.0874 5.23 36.4688 5.23C36.8501 5.23 37.1654 5.362 37.4148 5.626C37.6641 5.87533 37.7888 6.19067 37.7888 6.572V12.16C37.7888 13.0547 37.9868 13.722 38.3828 14.162C38.7788 14.5873 39.3728 14.8 40.1648 14.8C40.9714 14.8 41.5728 14.5873 41.9688 14.162C42.3648 13.722 42.5628 13.0547 42.5628 12.16V6.572C42.5628 6.19067 42.6874 5.87533 42.9368 5.626C43.1861 5.362 43.5014 5.23 43.8828 5.23ZM53.6049 17.22C52.3582 17.22 51.2729 16.9633 50.3489 16.45C49.4395 15.922 48.7355 15.2107 48.2369 14.316C47.7529 13.4213 47.5109 12.4093 47.5109 11.28C47.5109 9.96 47.7749 8.838 48.3029 7.914C48.8455 6.97533 49.5495 6.25667 50.4149 5.758C51.2802 5.25933 52.1969 5.01 53.1649 5.01C53.9129 5.01 54.6169 5.164 55.2769 5.472C55.9515 5.78 56.5455 6.20533 57.0589 6.748C57.5722 7.276 57.9755 7.892 58.2689 8.596C58.5769 9.3 58.7309 10.048 58.7309 10.84C58.7162 11.192 58.5769 11.478 58.3129 11.698C58.0489 11.918 57.7409 12.028 57.3889 12.028H48.9849L48.3249 9.828H56.3989L55.9149 10.268V9.674C55.8855 9.24867 55.7315 8.86733 55.4529 8.53C55.1889 8.19267 54.8515 7.92867 54.4409 7.738C54.0449 7.53267 53.6195 7.43 53.1649 7.43C52.7249 7.43 52.3142 7.48867 51.9329 7.606C51.5515 7.72333 51.2215 7.92133 50.9429 8.2C50.6642 8.47867 50.4442 8.85267 50.2829 9.322C50.1215 9.79133 50.0409 10.3853 50.0409 11.104C50.0409 11.896 50.2022 12.5707 50.5249 13.128C50.8622 13.6707 51.2875 14.0887 51.8009 14.382C52.3289 14.6607 52.8862 14.8 53.4729 14.8C54.0155 14.8 54.4482 14.756 54.7709 14.668C55.0935 14.58 55.3502 14.4773 55.5409 14.36C55.7462 14.228 55.9295 14.118 56.0909 14.03C56.3549 13.898 56.6042 13.832 56.8389 13.832C57.1615 13.832 57.4255 13.942 57.6309 14.162C57.8509 14.382 57.9609 14.6387 57.9609 14.932C57.9609 15.328 57.7555 15.6873 57.3449 16.01C56.9635 16.3327 56.4282 16.6187 55.7389 16.868C55.0495 17.1027 54.3382 17.22 53.6049 17.22ZM67.2194 5.01C68.3928 5.01 69.2581 5.296 69.8154 5.868C70.3728 6.42533 70.7394 7.15133 70.9154 8.046L70.5414 7.848L70.7174 7.496C70.8934 7.15867 71.1648 6.79933 71.5314 6.418C71.8981 6.022 72.3381 5.692 72.8514 5.428C73.3794 5.14933 73.9661 5.01 74.6114 5.01C75.6674 5.01 76.4668 5.23733 77.0094 5.692C77.5668 6.14667 77.9481 6.75533 78.1534 7.518C78.3588 8.266 78.4614 9.102 78.4614 10.026V15.658C78.4614 16.0393 78.3368 16.362 78.0874 16.626C77.8381 16.8753 77.5228 17 77.1414 17C76.7601 17 76.4448 16.8753 76.1954 16.626C75.9461 16.362 75.8214 16.0393 75.8214 15.658V10.026C75.8214 9.542 75.7628 9.10933 75.6454 8.728C75.5281 8.332 75.3154 8.01667 75.0074 7.782C74.6994 7.54733 74.2594 7.43 73.6874 7.43C73.1301 7.43 72.6534 7.54733 72.2574 7.782C71.8614 8.01667 71.5608 8.332 71.3554 8.728C71.1648 9.10933 71.0694 9.542 71.0694 10.026V15.658C71.0694 16.0393 70.9448 16.362 70.6954 16.626C70.4461 16.8753 70.1308 17 69.7494 17C69.3681 17 69.0528 16.8753 68.8034 16.626C68.5541 16.362 68.4294 16.0393 68.4294 15.658V10.026C68.4294 9.542 68.3708 9.10933 68.2534 8.728C68.1361 8.332 67.9234 8.01667 67.6154 7.782C67.3074 7.54733 66.8674 7.43 66.2954 7.43C65.7381 7.43 65.2614 7.54733 64.8654 7.782C64.4694 8.01667 64.1688 8.332 63.9634 8.728C63.7728 9.10933 63.6774 9.542 63.6774 10.026V15.658C63.6774 16.0393 63.5528 16.362 63.3034 16.626C63.0541 16.8753 62.7388 17 62.3574 17C61.9761 17 61.6608 16.8753 61.4114 16.626C61.1621 16.362 61.0374 16.0393 61.0374 15.658V6.572C61.0374 6.19067 61.1621 5.87533 61.4114 5.626C61.6608 5.362 61.9761 5.23 62.3574 5.23C62.7388 5.23 63.0541 5.362 63.3034 5.626C63.5528 5.87533 63.6774 6.19067 63.6774 6.572V7.518L63.3474 7.452C63.4794 7.20267 63.6628 6.93867 63.8974 6.66C64.1321 6.36667 64.4181 6.09533 64.7554 5.846C65.0928 5.59667 65.4668 5.39867 65.8774 5.252C66.2881 5.09067 66.7354 5.01 67.2194 5.01ZM90.9547 5.01C91.336 5.01 91.6513 5.13467 91.9007 5.384C92.15 5.63333 92.2747 5.956 92.2747 6.352V15.658C92.2747 16.0393 92.15 16.362 91.9007 16.626C91.6513 16.8753 91.336 17 90.9547 17C90.5733 17 90.258 16.8753 90.0087 16.626C89.7593 16.362 89.6347 16.0393 89.6347 15.658V14.58L90.1187 14.778C90.1187 14.9687 90.016 15.2033 89.8107 15.482C89.6053 15.746 89.3267 16.01 88.9747 16.274C88.6227 16.538 88.2047 16.7653 87.7207 16.956C87.2513 17.132 86.738 17.22 86.1807 17.22C85.1687 17.22 84.252 16.9633 83.4307 16.45C82.6093 15.922 81.9567 15.2033 81.4727 14.294C81.0033 13.37 80.7687 12.314 80.7687 11.126C80.7687 9.92333 81.0033 8.86733 81.4727 7.958C81.9567 7.034 82.602 6.31533 83.4087 5.802C84.2153 5.274 85.11 5.01 86.0927 5.01C86.7233 5.01 87.3027 5.10533 87.8307 5.296C88.3587 5.48667 88.8133 5.72867 89.1947 6.022C89.5907 6.31533 89.8913 6.616 90.0967 6.924C90.3167 7.21733 90.4267 7.46667 90.4267 7.672L89.6347 7.958V6.352C89.6347 5.97067 89.7593 5.65533 90.0087 5.406C90.258 5.142 90.5733 5.01 90.9547 5.01ZM86.5107 14.8C87.156 14.8 87.7207 14.6387 88.2047 14.316C88.6887 13.9933 89.0627 13.5533 89.3267 12.996C89.6053 12.4387 89.7447 11.8153 89.7447 11.126C89.7447 10.422 89.6053 9.79133 89.3267 9.234C89.0627 8.67667 88.6887 8.23667 88.2047 7.914C87.7207 7.59133 87.156 7.43 86.5107 7.43C85.88 7.43 85.3227 7.59133 84.8387 7.914C84.3547 8.23667 83.9733 8.67667 83.6947 9.234C83.4307 9.79133 83.2987 10.422 83.2987 11.126C83.2987 11.8153 83.4307 12.4387 83.6947 12.996C83.9733 13.5533 84.3547 13.9933 84.8387 14.316C85.3227 14.6387 85.88 14.8 86.5107 14.8ZM95.2651 5.45H100.479C100.831 5.45 101.124 5.56733 101.359 5.802C101.594 6.03667 101.711 6.33 101.711 6.682C101.711 7.01933 101.594 7.30533 101.359 7.54C101.124 7.76 100.831 7.87 100.479 7.87H95.2651C94.9131 7.87 94.6198 7.75267 94.3851 7.518C94.1505 7.28333 94.0331 6.99 94.0331 6.638C94.0331 6.30067 94.1505 6.022 94.3851 5.802C94.6198 5.56733 94.9131 5.45 95.2651 5.45ZM97.6191 2.7C98.0005 2.7 98.3085 2.832 98.5431 3.096C98.7925 3.34533 98.9171 3.66067 98.9171 4.042V13.832C98.9171 14.0373 98.9538 14.206 99.0271 14.338C99.1151 14.47 99.2251 14.5653 99.3571 14.624C99.5038 14.6827 99.6578 14.712 99.8191 14.712C99.9951 14.712 100.156 14.6827 100.303 14.624C100.45 14.5507 100.618 14.514 100.809 14.514C101.014 14.514 101.198 14.6093 101.359 14.8C101.535 14.9907 101.623 15.2547 101.623 15.592C101.623 16.0027 101.396 16.34 100.941 16.604C100.501 16.868 100.024 17 99.5111 17C99.2031 17 98.8585 16.978 98.4771 16.934C98.1105 16.8753 97.7585 16.7507 97.4211 16.56C97.0985 16.3547 96.8271 16.0467 96.6071 15.636C96.3871 15.2253 96.2771 14.6607 96.2771 13.942V4.042C96.2771 3.66067 96.4018 3.34533 96.6511 3.096C96.9151 2.832 97.2378 2.7 97.6191 2.7ZM109.572 17.22C108.325 17.22 107.24 16.9633 106.316 16.45C105.406 15.922 104.702 15.2107 104.204 14.316C103.72 13.4213 103.478 12.4093 103.478 11.28C103.478 9.96 103.742 8.838 104.27 7.914C104.812 6.97533 105.516 6.25667 106.382 5.758C107.247 5.25933 108.164 5.01 109.132 5.01C109.88 5.01 110.584 5.164 111.244 5.472C111.918 5.78 112.512 6.20533 113.026 6.748C113.539 7.276 113.942 7.892 114.236 8.596C114.544 9.3 114.698 10.048 114.698 10.84C114.683 11.192 114.544 11.478 114.28 11.698C114.016 11.918 113.708 12.028 113.356 12.028H104.952L104.292 9.828H112.366L111.882 10.268V9.674C111.852 9.24867 111.698 8.86733 111.42 8.53C111.156 8.19267 110.818 7.92867 110.408 7.738C110.012 7.53267 109.586 7.43 109.132 7.43C108.692 7.43 108.281 7.48867 107.9 7.606C107.518 7.72333 107.188 7.92133 106.91 8.2C106.631 8.47867 106.411 8.85267 106.25 9.322C106.088 9.79133 106.008 10.3853 106.008 11.104C106.008 11.896 106.169 12.5707 106.492 13.128C106.829 13.6707 107.254 14.0887 107.768 14.382C108.296 14.6607 108.853 14.8 109.44 14.8C109.982 14.8 110.415 14.756 110.738 14.668C111.06 14.58 111.317 14.4773 111.508 14.36C111.713 14.228 111.896 14.118 112.058 14.03C112.322 13.898 112.571 13.832 112.806 13.832C113.128 13.832 113.392 13.942 113.598 14.162C113.818 14.382 113.928 14.6387 113.928 14.932C113.928 15.328 113.722 15.6873 113.312 16.01C112.93 16.3327 112.395 16.6187 111.706 16.868C111.016 17.1027 110.305 17.22 109.572 17.22Z" fill="#23049D"/>
</svg>
