<svg width="150" height="31" viewBox="0 0 150 31" fill="none" xmlns="http://www.w3.org/2000/svg">
<g clip-path="url(#clip0_561_15)">
<path fill-rule="evenodd" clip-rule="evenodd" d="M11.8882 21.9949C14.2773 25.8997 18.6573 28.5296 23.5152 28.5296C30.6824 28.5296 34.6643 22.3136 34.6643 22.3136L35.1421 23.9871C31.7974 28.2905 25.8246 30.9203 19.2148 30.9203C11.5697 30.9203 4.95983 27.2545 1.93365 21.9949C0.818733 20.0026 0.181641 17.8509 0.181641 15.4602C0.181641 6.93316 8.70275 0 19.2944 0C26.7803 0 32.753 3.18766 35.9385 7.80977L23.4355 15.3008L30.6028 4.30334C28.5323 3.02828 26.0635 1.8329 23.4355 1.8329C16.109 1.8329 10.0566 7.96915 10.0566 15.3008C10.0566 17.7712 10.6937 20.0823 11.8882 21.9949Z" fill="#ED1C24"/>
<path fill-rule="evenodd" clip-rule="evenodd" d="M45.4152 21.9948C45.4152 22.2339 45.3356 22.4729 45.3356 22.712C45.3356 25.5012 47.5654 27.7326 50.3527 27.7326C53.1399 27.7326 55.3698 25.5012 55.3698 22.712C55.3698 22.4729 55.3698 22.2339 55.2901 21.9151C54.892 19.5244 52.8214 17.6118 50.3527 17.6118C47.8839 17.7711 45.8134 19.604 45.4152 21.9948ZM64.1298 21.9948L66.5985 30.4421H57.8385L56.0865 24.7043C54.892 28.0513 51.0694 30.4421 46.3708 30.4421C40.7963 30.4421 36.3366 26.9357 36.3366 22.6323C36.3366 22.3933 36.3366 22.2339 36.3366 21.9948C36.7348 17.9305 41.0352 14.7429 46.3708 14.7429C49.397 14.7429 52.025 15.7789 53.9363 17.3727L51.5472 9.40353H41.513C41.513 9.40353 43.1854 8.36755 50.5916 5.65803C57.9978 2.94852 60.3869 9.40353 60.3869 9.40353L64.1298 21.9948Z" fill="#ED1C24"/>
<path fill-rule="evenodd" clip-rule="evenodd" d="M92.1619 21.9948V30.4421H83.1629V21.9948V11.9537C83.1629 10.5989 82.048 9.48325 80.6942 9.48325C79.6589 9.48325 78.7829 10.1208 78.3847 11.0771V22.0745V30.5218H69.4654V21.9948V9.48325H64.2891C64.2891 9.48325 71.4564 5.10022 74.0047 5.10022C76.3938 5.10022 78.1458 6.93312 78.3051 9.24418C81.8091 7.33158 85.2335 5.10022 87.6226 5.10022C90.0913 5.10022 92.0822 7.09251 92.1619 9.48325V21.9948Z" fill="#ED1C24"/>
<path fill-rule="evenodd" clip-rule="evenodd" d="M106.019 21.9949L107.293 26.1389C107.293 27.8921 108.806 29.3265 110.558 29.3265C112.39 29.3265 113.903 27.8124 113.903 25.9795C113.903 25.8201 113.903 25.7404 113.903 25.581L112.867 21.9152L109.124 9.08488C108.965 7.41135 107.532 6.13629 105.859 6.13629C104.187 6.13629 102.515 7.73012 102.355 9.32395L106.019 21.9949ZM120.433 21.9949C118.76 27.1749 113.823 30.9203 108.089 30.9203C102.355 30.9203 97.4179 27.1749 95.7455 21.9949C95.3473 20.7198 95.1084 19.3651 95.1084 17.9306C95.1084 10.7584 100.922 4.94092 108.089 4.94092C115.256 4.94092 121.07 10.7584 121.07 17.9306C121.07 19.3651 120.831 20.7198 120.433 21.9949Z" fill="#ED1C24"/>
<path fill-rule="evenodd" clip-rule="evenodd" d="M135.405 21.9948V30.4421H126.565V21.9948V9.48325H121.627C121.627 9.48325 128.635 5.10022 131.104 5.10022C133.493 5.10022 135.245 6.93312 135.405 9.24418C138.909 7.33158 142.333 5.10022 144.722 5.10022C147.191 5.10022 149.182 7.09251 149.261 9.48325V21.9948V30.4421H140.262V21.9948V11.9537C140.262 10.5989 139.147 9.48325 137.794 9.48325C136.758 9.48325 135.882 10.1208 135.484 11.0771V21.9948H135.405Z" fill="#ED1C24"/>
</g>
<defs>
<clipPath id="clip0_561_15">
<rect width="149" height="31" fill="white" transform="translate(0.181641)"/>
</clipPath>
</defs>
</svg>
