<svg width="25" height="24" viewBox="0 0 25 24" fill="none" xmlns="http://www.w3.org/2000/svg">
<g clip-path="url(#clip0_553_437)">
<path d="M21.5503 21.7515C17.8779 24.7494 6.41095 24.7494 2.81346 21.7515C-0.85896 18.7536 -0.484229 5.93762 2.81346 2.56499C6.11116 -0.807635 18.2526 -0.807635 21.5503 2.56499C24.848 5.93762 25.2227 18.7537 21.5503 21.7515Z" fill="#8DC640"/>
<g opacity="0.2">
<path opacity="0.2" d="M12.2562 16.5053C8.95853 19.1284 5.2861 20.4775 1.83854 20.5524C-0.709696 16.2055 -0.185041 5.63791 2.81286 2.56508C5.51096 -0.207961 13.98 -0.732616 18.8516 0.991167C20.0507 5.93771 17.5775 12.2332 12.2562 16.5053Z" fill="white"/>
</g>
<path d="M10.458 18.6787C9.93332 18.6787 9.40872 18.4539 9.10892 18.0042L4.9119 12.608C4.31231 11.8585 4.46223 10.8093 5.21169 10.2097C5.96115 9.6101 7.01041 9.76002 7.61 10.5095L10.458 14.1819L16.7536 6.01266C17.3532 5.2632 18.4024 5.11327 19.1519 5.71286C19.9013 6.31245 20.0513 7.36171 19.4517 8.11117L11.807 18.0042C11.4323 18.3789 10.9826 18.6787 10.458 18.6787Z" fill="white"/>
</g>
<defs>
<clipPath id="clip0_553_437">
<rect width="24" height="24" fill="white" transform="translate(0.181641)"/>
</clipPath>
</defs>
</svg>
