<svg width="40" height="40" viewBox="0 0 40 40" fill="none" xmlns="http://www.w3.org/2000/svg">
<path d="M33.5749 2.6954H6.38603C3.54332 2.6954 1.23047 5.00779 1.23047 7.85096V24.49C1.23047 27.3267 3.53325 29.6355 6.36772 29.6455V37.1961L17.2188 29.6455H33.5749C36.4176 29.6455 38.7305 27.3327 38.7305 24.49V7.85096C38.7305 5.00779 36.4176 2.6954 33.5749 2.6954ZM36.5332 24.49C36.5332 26.121 35.2061 27.4483 33.5749 27.4483H16.5294L8.56499 32.9904V27.4483H6.38603C4.75479 27.4483 3.42773 26.121 3.42773 24.49V7.85096C3.42773 6.21949 4.75479 4.89267 6.38603 4.89267H33.5749C35.2061 4.89267 36.5332 6.21949 36.5332 7.85096V24.49Z" fill="#AA2EE6"/>
<path d="M11.2672 10.4593H28.6938V12.6566H11.2672V10.4593Z" fill="#AA2EE6"/>
<path d="M11.2672 15.1468H28.6938V17.3441H11.2672V15.1468Z" fill="#AA2EE6"/>
<path d="M11.2672 19.8343H28.6938V22.0316H11.2672V19.8343Z" fill="#AA2EE6"/>
</svg>
