<svg width="21" height="21" viewBox="0 0 21 21" fill="none" xmlns="http://www.w3.org/2000/svg">
<path d="M21 10.5C21 16.2991 16.2991 21 10.5 21C4.70094 21 0 16.2991 0 10.5C0 4.70094 4.70094 0 10.5 0C16.2991 0 21 4.70094 21 10.5Z" fill="#4A7AFF"/>
<path d="M10.9608 20.9893C16.546 20.7481 21 16.1445 21 10.5C21 10.4591 20.9989 10.4184 20.9984 10.3776L13.71 3.08899L5.91699 11.2344L10.2469 15.5643L8.2504 18.2789L10.9608 20.9893Z" fill="#0053BF"/>
<path d="M13.7099 3.08893V5.46655C13.7099 5.46655 10.9802 5.07033 10.9802 6.83144V8.59255H13.4457L13.1376 11.2783H10.9802V18.2788H8.25037V11.2783L5.91681 11.2342V8.59255H8.20631V6.56724C8.20631 6.56724 8.05523 3.55436 11.0242 3.00097C12.2571 2.77105 13.7099 3.08893 13.7099 3.08893Z" fill="white"/>
<path d="M13.7099 5.46655V3.08893C13.7099 3.08893 12.2571 2.77105 11.0242 3.00097C10.8316 3.03685 10.6525 3.08332 10.4854 3.13827V18.2788H10.9802V11.2783H13.1375L13.4457 8.59255H10.9802C10.9802 8.59255 10.9802 8.59255 10.9802 6.83144C10.9802 5.07033 13.7099 5.46655 13.7099 5.46655Z" fill="#DCE1EB"/>
</svg>
