<svg width="40" height="40" viewBox="0 0 40 40" fill="#23049D" xmlns="http://www.w3.org/2000/svg">
<path d="M39.6569 25.8458L35.8582 22.0461C37.9389 20.1026 36.9867 16.4838 34.2278 15.8168C34.7248 13.9502 33.4941 11.8298 31.5662 11.3817C32.0654 9.5229 30.8371 7.39165 28.9058 6.94094C29.6527 3.91954 26.4613 1.38649 23.6871 2.77532C23.6871 2.77532 22.6045 1.69219 22.6058 1.69337C22.6053 1.69298 22.6049 1.69251 22.6045 1.69212C21.1681 0.255945 18.8314 0.256023 17.3938 1.69337L16.3152 2.77509C13.5356 1.38587 10.3541 3.92391 11.1002 6.94079C9.1236 7.40985 7.94173 9.56508 8.43345 11.3791C6.50251 11.8293 5.27439 13.9591 5.7722 15.8173C3.01126 16.4839 2.0615 20.1034 4.14142 22.0461L0.34298 25.8458C-0.114208 26.3031 -0.114442 27.0454 0.343214 27.5031L11.8849 39.0416C12.3421 39.4988 13.0845 39.4991 13.5422 39.0413L17.8328 34.7489C19.1066 34.7051 20.3504 34.4912 21.5391 34.1198L26.4645 39.0418C26.9222 39.4991 27.6642 39.4991 28.1216 39.0414L39.657 27.5029C40.1144 27.0452 40.1144 26.3034 39.6569 25.8458ZM19.0523 3.34962C19.5741 2.82798 20.4243 2.82665 20.9474 3.34962L21.8936 4.29657L20.0006 6.1886L18.1095 4.29516L19.0523 3.34962ZM13.7306 5.12415C14.2515 4.60298 15.1026 4.60469 15.6249 5.12415L20.947 10.4501C21.4686 10.972 21.4685 11.8215 20.9469 12.3438C20.4251 12.8656 19.5747 12.8659 19.0527 12.3437L13.7306 7.01774C13.2088 6.49571 13.2088 5.64634 13.7306 5.12415ZM11.0696 9.56196C11.5911 9.04016 12.4356 9.03954 12.9578 9.56219L17.3949 14.0005C17.9165 14.5223 17.9165 15.3716 17.3949 15.8934C16.8732 16.4153 16.0288 16.4158 15.5066 15.8932L11.067 11.453C10.5472 10.9363 10.5358 10.0927 11.0696 9.56196ZM8.40251 14.0002C8.92345 13.4786 9.77337 13.4766 10.2972 14.001L13.8489 17.5502C14.3706 18.0723 14.3706 18.9217 13.849 19.4438C13.3279 19.965 12.4776 19.9671 11.9539 19.4433L8.40228 15.8934C7.88064 15.3715 7.88064 14.5223 8.40251 14.0002ZM5.74103 18.4382C6.26298 17.9161 7.11353 17.9159 7.63563 18.4382L10.2967 21.1005C10.8184 21.6226 10.8184 22.472 10.2967 22.9941C10.2967 22.9941 10.2967 22.9941 10.2966 22.9941C9.77525 23.5159 8.92423 23.5164 8.40228 22.9941L5.7411 20.3313C5.21962 19.8093 5.21962 18.9601 5.74103 18.4382ZM17.3388 32.4136C17.028 32.4136 16.7298 32.5371 16.5101 32.757L12.7131 36.5556L2.82899 26.6741L5.79829 23.7041L6.74446 24.6509C9.00548 26.9295 12.9409 25.3498 13.0275 22.1756C13.9652 22.1444 14.8416 21.766 15.5067 21.1004C15.5067 21.1004 15.5068 21.1004 15.5068 21.1003C16.1915 20.4152 16.5485 19.5248 16.5796 18.6252C18.4636 18.6084 20.1109 16.9213 20.1256 15.0756C21.0634 15.0444 21.9401 14.6659 22.6052 14C24.0393 12.5641 24.0392 10.2284 22.605 8.79329L21.6581 7.84571L24.3806 5.12462C25.6811 3.92032 27.4813 5.71329 26.2775 7.01571L25.3952 7.8943C24.315 9.03165 25.9037 10.6293 27.0471 9.55696C27.5679 9.04102 28.4149 9.04001 28.9365 9.56188C29.4582 10.084 29.4582 10.9335 28.9382 11.4538C28.9373 11.4548 28.0486 12.3404 28.0477 12.3412L28.047 12.3419C26.9881 13.4798 28.5608 15.0559 29.7008 14.0027C30.226 13.4802 31.0768 13.479 31.5975 14.0003C32.1191 14.5223 32.1191 15.3715 31.5963 15.8945L30.7114 16.7826C30.2548 17.2408 30.2559 17.9823 30.7137 18.4392C31.1715 18.8962 31.9131 18.8956 32.3704 18.4381C33.6698 17.2304 35.4627 19.0336 34.2587 20.331C34.2586 20.331 25.5978 28.9919 25.5978 28.9919C23.3918 31.1984 20.4588 32.4136 17.3388 32.4136ZM27.2924 36.5558L23.8796 33.1453C25.1077 32.4962 26.2449 31.6596 27.2549 30.6494L34.2011 23.7037L37.171 26.6743L27.2924 36.5558Z" fill="#23049D"/>
</svg>
