<svg width="257" height="257" viewBox="0 0 257 257" fill="none" xmlns="http://www.w3.org/2000/svg">
<g filter="url(#filter0_bd_575_54)">
<rect x="8.18164" y="2.4624" width="239.853" height="239.853" rx="24" fill="white" fill-opacity="0.55" shape-rendering="crispEdges"/>
<rect x="9.18164" y="3.4624" width="237.853" height="237.853" rx="23" stroke="white" stroke-width="2" shape-rendering="crispEdges"/>
</g>
<path d="M95.0167 151.102C95.4007 151.102 95.7367 151.246 96.0247 151.534C96.3287 151.806 96.4807 152.15 96.4807 152.566V166.438C96.4807 166.854 96.3287 167.206 96.0247 167.494C95.7207 167.766 95.3687 167.902 94.9687 167.902C94.5207 167.902 94.1607 167.766 93.8887 167.494C93.6167 167.206 93.4807 166.854 93.4807 166.438V152.566C93.4807 152.15 93.6247 151.806 93.9127 151.534C94.2007 151.246 94.5687 151.102 95.0167 151.102ZM105.649 151.102C106.097 151.102 106.457 151.246 106.729 151.534C107.001 151.806 107.137 152.15 107.137 152.566V166.438C107.137 166.854 106.993 167.206 106.705 167.494C106.433 167.766 106.065 167.902 105.601 167.902C105.217 167.902 104.873 167.766 104.569 167.494C104.281 167.206 104.137 166.854 104.137 166.438V152.566C104.137 152.15 104.289 151.806 104.593 151.534C104.897 151.246 105.249 151.102 105.649 151.102ZM94.9447 158.086H105.649V160.846H94.9447V158.086ZM113.203 166.438C113.203 166.854 113.067 167.206 112.795 167.494C112.523 167.766 112.179 167.902 111.763 167.902C111.347 167.902 111.003 167.766 110.731 167.494C110.459 167.206 110.323 166.854 110.323 166.438V156.526C110.323 156.11 110.459 155.766 110.731 155.494C111.003 155.206 111.347 155.062 111.763 155.062C112.179 155.062 112.523 155.206 112.795 155.494C113.067 155.766 113.203 156.11 113.203 156.526V166.438ZM111.739 153.502C111.195 153.502 110.811 153.414 110.587 153.238C110.363 153.062 110.251 152.75 110.251 152.302V151.846C110.251 151.382 110.371 151.07 110.611 150.91C110.867 150.734 111.251 150.646 111.763 150.646C112.323 150.646 112.715 150.734 112.939 150.91C113.163 151.086 113.275 151.398 113.275 151.846V152.302C113.275 152.766 113.155 153.086 112.915 153.262C112.675 153.422 112.283 153.502 111.739 153.502ZM121.491 154.822C122.163 154.822 122.779 154.926 123.339 155.134C123.899 155.342 124.379 155.606 124.779 155.926C125.195 156.246 125.515 156.574 125.739 156.91C125.979 157.23 126.099 157.502 126.099 157.726L125.475 158.038V156.286C125.475 155.87 125.611 155.526 125.883 155.254C126.155 154.966 126.499 154.822 126.915 154.822C127.331 154.822 127.675 154.958 127.947 155.23C128.219 155.502 128.355 155.854 128.355 156.286V166.966C128.355 168.358 128.051 169.47 127.443 170.302C126.851 171.15 126.067 171.758 125.091 172.126C124.115 172.51 123.067 172.702 121.947 172.702C121.627 172.702 121.211 172.662 120.699 172.582C120.187 172.502 119.699 172.406 119.235 172.294C118.771 172.182 118.419 172.078 118.179 171.982C117.699 171.774 117.363 171.51 117.171 171.19C116.995 170.886 116.963 170.558 117.075 170.206C117.219 169.742 117.451 169.422 117.771 169.246C118.091 169.086 118.427 169.07 118.779 169.198C118.939 169.246 119.203 169.342 119.571 169.486C119.939 169.63 120.339 169.758 120.771 169.87C121.219 169.998 121.611 170.062 121.947 170.062C123.147 170.062 124.035 169.822 124.611 169.342C125.187 168.862 125.475 168.198 125.475 167.35V165.262L125.763 165.478C125.763 165.686 125.651 165.942 125.427 166.246C125.219 166.534 124.923 166.822 124.539 167.11C124.171 167.398 123.731 167.646 123.219 167.854C122.707 168.046 122.163 168.142 121.587 168.142C120.451 168.142 119.427 167.862 118.515 167.302C117.603 166.726 116.883 165.942 116.355 164.95C115.827 163.942 115.563 162.79 115.563 161.494C115.563 160.182 115.827 159.03 116.355 158.038C116.883 157.03 117.595 156.246 118.491 155.686C119.387 155.11 120.387 154.822 121.491 154.822ZM121.947 157.462C121.227 157.462 120.595 157.638 120.051 157.99C119.507 158.342 119.083 158.822 118.779 159.43C118.475 160.038 118.323 160.726 118.323 161.494C118.323 162.246 118.475 162.926 118.779 163.534C119.083 164.142 119.507 164.622 120.051 164.974C120.595 165.326 121.227 165.502 121.947 165.502C122.683 165.502 123.323 165.326 123.867 164.974C124.411 164.622 124.835 164.142 125.139 163.534C125.443 162.926 125.595 162.246 125.595 161.494C125.595 160.726 125.443 160.038 125.139 159.43C124.835 158.822 124.411 158.342 123.867 157.99C123.323 157.638 122.683 157.462 121.947 157.462ZM138.211 154.822C139.363 154.822 140.235 155.07 140.827 155.566C141.435 156.062 141.851 156.726 142.075 157.558C142.299 158.374 142.411 159.286 142.411 160.294V166.438C142.411 166.854 142.275 167.206 142.003 167.494C141.731 167.766 141.387 167.902 140.971 167.902C140.555 167.902 140.211 167.766 139.939 167.494C139.667 167.206 139.531 166.854 139.531 166.438V160.294C139.531 159.766 139.467 159.294 139.339 158.878C139.211 158.446 138.979 158.102 138.643 157.846C138.307 157.59 137.827 157.462 137.203 157.462C136.595 157.462 136.075 157.59 135.643 157.846C135.211 158.102 134.883 158.446 134.659 158.878C134.451 159.294 134.347 159.766 134.347 160.294V166.438C134.347 166.854 134.211 167.206 133.939 167.494C133.667 167.766 133.323 167.902 132.907 167.902C132.491 167.902 132.147 167.766 131.875 167.494C131.603 167.206 131.467 166.854 131.467 166.438V151.606C131.467 151.19 131.603 150.846 131.875 150.574C132.147 150.286 132.491 150.142 132.907 150.142C133.323 150.142 133.667 150.286 133.939 150.574C134.211 150.846 134.347 151.19 134.347 151.606V157.558L133.987 157.486C134.131 157.214 134.331 156.926 134.587 156.622C134.843 156.302 135.155 156.006 135.523 155.734C135.891 155.462 136.299 155.246 136.747 155.086C137.195 154.91 137.683 154.822 138.211 154.822ZM148.65 166.438C148.65 166.854 148.506 167.206 148.218 167.494C147.946 167.766 147.602 167.902 147.186 167.902C146.786 167.902 146.45 167.766 146.178 167.494C145.906 167.206 145.77 166.854 145.77 166.438V151.606C145.77 151.19 145.906 150.846 146.178 150.574C146.466 150.286 146.818 150.142 147.234 150.142C147.65 150.142 147.986 150.286 148.242 150.574C148.514 150.846 148.65 151.19 148.65 151.606V166.438ZM161.175 155.062C161.591 155.062 161.935 155.206 162.207 155.494C162.479 155.766 162.615 156.11 162.615 156.526V166.726C162.615 168.198 162.335 169.366 161.775 170.23C161.231 171.11 160.495 171.742 159.567 172.126C158.639 172.51 157.599 172.702 156.447 172.702C155.935 172.702 155.391 172.662 154.815 172.582C154.239 172.502 153.767 172.382 153.399 172.222C152.919 172.014 152.583 171.75 152.391 171.43C152.215 171.126 152.183 170.798 152.295 170.446C152.439 169.982 152.671 169.662 152.991 169.486C153.311 169.326 153.647 169.31 153.999 169.438C154.255 169.518 154.591 169.638 155.007 169.798C155.423 169.974 155.903 170.062 156.447 170.062C157.183 170.062 157.791 169.958 158.271 169.75C158.767 169.558 159.135 169.222 159.375 168.742C159.631 168.278 159.759 167.638 159.759 166.822V165.214L160.263 165.79C159.991 166.318 159.647 166.758 159.231 167.11C158.831 167.446 158.351 167.702 157.791 167.878C157.231 168.054 156.591 168.142 155.871 168.142C155.023 168.142 154.279 167.95 153.639 167.566C153.015 167.166 152.527 166.622 152.175 165.934C151.823 165.23 151.647 164.43 151.647 163.534V156.526C151.647 156.11 151.783 155.766 152.055 155.494C152.327 155.206 152.671 155.062 153.087 155.062C153.503 155.062 153.847 155.206 154.119 155.494C154.391 155.766 154.527 156.11 154.527 156.526V162.67C154.527 163.71 154.751 164.446 155.199 164.878C155.663 165.294 156.303 165.502 157.119 165.502C157.679 165.502 158.151 165.398 158.535 165.19C158.919 164.966 159.215 164.646 159.423 164.23C159.631 163.798 159.735 163.278 159.735 162.67V156.526C159.735 156.11 159.871 155.766 160.143 155.494C160.415 155.206 160.759 155.062 161.175 155.062ZM65.237 178.102C66.069 178.102 66.845 178.342 67.565 178.822C68.301 179.302 68.893 179.95 69.341 180.766C69.789 181.582 70.013 182.494 70.013 183.502C70.013 184.494 69.789 185.398 69.341 186.214C68.893 187.03 68.301 187.686 67.565 188.182C66.845 188.662 66.069 188.902 65.237 188.902H60.821L61.061 188.47V193.438C61.061 193.854 60.933 194.206 60.677 194.494C60.421 194.766 60.085 194.902 59.669 194.902C59.269 194.902 58.941 194.766 58.685 194.494C58.429 194.206 58.301 193.854 58.301 193.438V179.566C58.301 179.15 58.437 178.806 58.709 178.534C58.997 178.246 59.349 178.102 59.765 178.102H65.237ZM65.237 186.166C65.541 186.166 65.837 186.038 66.125 185.782C66.413 185.526 66.653 185.198 66.845 184.798C67.037 184.382 67.133 183.95 67.133 183.502C67.133 183.038 67.037 182.606 66.845 182.206C66.653 181.806 66.413 181.486 66.125 181.246C65.837 180.99 65.541 180.862 65.237 180.862H60.773L61.061 180.43V186.55L60.797 186.166H65.237ZM73.9619 194.902C73.5459 194.902 73.2019 194.766 72.9299 194.494C72.6579 194.206 72.5219 193.854 72.5219 193.438V183.526C72.5219 183.11 72.6579 182.766 72.9299 182.494C73.2019 182.206 73.5459 182.062 73.9619 182.062C74.3779 182.062 74.7219 182.206 74.9939 182.494C75.2659 182.766 75.4019 183.11 75.4019 183.526V185.782L75.2339 184.174C75.4099 183.79 75.6339 183.454 75.9059 183.166C76.1939 182.862 76.5139 182.614 76.8659 182.422C77.2179 182.214 77.5939 182.062 77.9939 181.966C78.3939 181.87 78.7939 181.822 79.1939 181.822C79.6739 181.822 80.0739 181.958 80.3939 182.23C80.7299 182.502 80.8979 182.822 80.8979 183.19C80.8979 183.718 80.7619 184.102 80.4899 184.342C80.2179 184.566 79.9219 184.678 79.6019 184.678C79.2979 184.678 79.0179 184.622 78.7619 184.51C78.5219 184.398 78.2419 184.342 77.9219 184.342C77.6339 184.342 77.3379 184.414 77.0339 184.558C76.7459 184.686 76.4739 184.894 76.2179 185.182C75.9779 185.47 75.7779 185.83 75.6179 186.262C75.4739 186.678 75.4019 187.174 75.4019 187.75V193.438C75.4019 193.854 75.2659 194.206 74.9939 194.494C74.7219 194.766 74.3779 194.902 73.9619 194.902ZM94.8451 188.494C94.8451 189.806 94.5491 190.966 93.9571 191.974C93.3811 192.966 92.5971 193.742 91.6051 194.302C90.6291 194.862 89.5331 195.142 88.3171 195.142C87.1011 195.142 85.9971 194.862 85.0051 194.302C84.0291 193.742 83.2451 192.966 82.6531 191.974C82.0771 190.966 81.7891 189.806 81.7891 188.494C81.7891 187.182 82.0771 186.03 82.6531 185.038C83.2451 184.03 84.0291 183.246 85.0051 182.686C85.9971 182.11 87.1011 181.822 88.3171 181.822C89.5331 181.822 90.6291 182.11 91.6051 182.686C92.5971 183.246 93.3811 184.03 93.9571 185.038C94.5491 186.03 94.8451 187.182 94.8451 188.494ZM91.9651 188.494C91.9651 187.678 91.7971 186.974 91.4611 186.382C91.1411 185.774 90.7011 185.302 90.1411 184.966C89.5971 184.63 88.9891 184.462 88.3171 184.462C87.6451 184.462 87.0291 184.63 86.4691 184.966C85.9251 185.302 85.4851 185.774 85.1491 186.382C84.8291 186.974 84.6691 187.678 84.6691 188.494C84.6691 189.294 84.8291 189.998 85.1491 190.606C85.4851 191.198 85.9251 191.662 86.4691 191.998C87.0291 192.334 87.6451 192.502 88.3171 192.502C88.9891 192.502 89.5971 192.334 90.1411 191.998C90.7011 191.662 91.1411 191.198 91.4611 190.606C91.7971 189.998 91.9651 189.294 91.9651 188.494ZM103.966 177.142C104.318 177.142 104.662 177.19 104.998 177.286C105.334 177.382 105.614 177.542 105.838 177.766C106.062 177.974 106.174 178.254 106.174 178.606C106.174 179.006 106.054 179.326 105.814 179.566C105.59 179.79 105.326 179.902 105.022 179.902C104.878 179.902 104.662 179.87 104.374 179.806C104.086 179.726 103.806 179.686 103.534 179.686C103.134 179.686 102.822 179.774 102.598 179.95C102.39 180.126 102.246 180.334 102.166 180.574C102.086 180.798 102.046 180.998 102.046 181.174V193.438C102.046 193.854 101.91 194.206 101.638 194.494C101.366 194.766 101.022 194.902 100.606 194.902C100.19 194.902 99.8457 194.766 99.5737 194.494C99.3017 194.206 99.1657 193.854 99.1657 193.438V181.198C99.1657 180.062 99.5657 179.102 100.366 178.318C101.166 177.534 102.366 177.142 103.966 177.142ZM104.23 182.302C104.614 182.302 104.934 182.43 105.19 182.686C105.446 182.926 105.574 183.238 105.574 183.622C105.574 184.006 105.446 184.326 105.19 184.582C104.934 184.822 104.614 184.942 104.23 184.942H97.8697C97.4857 184.942 97.1657 184.822 96.9097 184.582C96.6537 184.326 96.5257 184.006 96.5257 183.622C96.5257 183.238 96.6537 182.926 96.9097 182.686C97.1657 182.43 97.4857 182.302 97.8697 182.302H104.23ZM113.164 195.142C111.804 195.142 110.62 194.862 109.612 194.302C108.62 193.726 107.852 192.95 107.308 191.974C106.78 190.998 106.516 189.894 106.516 188.662C106.516 187.222 106.804 185.998 107.38 184.99C107.972 183.966 108.74 183.182 109.684 182.638C110.628 182.094 111.628 181.822 112.684 181.822C113.5 181.822 114.268 181.99 114.988 182.326C115.724 182.662 116.372 183.126 116.932 183.718C117.492 184.294 117.932 184.966 118.252 185.734C118.588 186.502 118.756 187.318 118.756 188.182C118.74 188.566 118.588 188.878 118.3 189.118C118.012 189.358 117.676 189.478 117.292 189.478H108.124L107.404 187.078H116.212L115.684 187.558V186.91C115.652 186.446 115.484 186.03 115.18 185.662C114.892 185.294 114.524 185.006 114.076 184.798C113.644 184.574 113.18 184.462 112.684 184.462C112.204 184.462 111.756 184.526 111.34 184.654C110.924 184.782 110.564 184.998 110.26 185.302C109.956 185.606 109.716 186.014 109.54 186.526C109.364 187.038 109.276 187.686 109.276 188.47C109.276 189.334 109.452 190.07 109.804 190.678C110.172 191.27 110.636 191.726 111.196 192.046C111.772 192.35 112.38 192.502 113.02 192.502C113.612 192.502 114.084 192.454 114.436 192.358C114.788 192.262 115.068 192.15 115.276 192.022C115.5 191.878 115.7 191.758 115.876 191.662C116.164 191.518 116.436 191.446 116.692 191.446C117.044 191.446 117.332 191.566 117.556 191.806C117.796 192.046 117.916 192.326 117.916 192.646C117.916 193.078 117.692 193.47 117.244 193.822C116.828 194.174 116.244 194.486 115.492 194.758C114.74 195.014 113.964 195.142 113.164 195.142ZM120.528 192.91C120.368 192.686 120.296 192.398 120.312 192.046C120.328 191.694 120.536 191.39 120.936 191.134C121.192 190.974 121.464 190.91 121.752 190.942C122.04 190.958 122.32 191.102 122.592 191.374C123.056 191.838 123.544 192.198 124.056 192.454C124.568 192.71 125.208 192.838 125.976 192.838C126.216 192.822 126.48 192.79 126.768 192.742C127.056 192.678 127.304 192.55 127.512 192.358C127.736 192.15 127.848 191.838 127.848 191.422C127.848 191.07 127.728 190.79 127.488 190.582C127.248 190.374 126.928 190.198 126.528 190.054C126.144 189.91 125.712 189.774 125.232 189.646C124.736 189.502 124.224 189.342 123.696 189.166C123.184 188.99 122.712 188.766 122.28 188.494C121.848 188.206 121.496 187.83 121.224 187.366C120.952 186.902 120.816 186.318 120.816 185.614C120.816 184.814 121.04 184.134 121.488 183.574C121.936 183.014 122.512 182.582 123.216 182.278C123.936 181.974 124.688 181.822 125.472 181.822C125.968 181.822 126.488 181.886 127.032 182.014C127.576 182.126 128.096 182.318 128.592 182.59C129.088 182.846 129.504 183.19 129.84 183.622C130.016 183.862 130.12 184.15 130.152 184.486C130.184 184.822 130.032 185.126 129.696 185.398C129.456 185.59 129.176 185.678 128.856 185.662C128.536 185.63 128.272 185.518 128.064 185.326C127.792 184.974 127.424 184.694 126.96 184.486C126.512 184.278 125.992 184.174 125.4 184.174C125.16 184.174 124.896 184.206 124.608 184.27C124.336 184.318 124.096 184.438 123.888 184.63C123.68 184.806 123.576 185.094 123.576 185.494C123.576 185.862 123.696 186.158 123.936 186.382C124.176 186.59 124.496 186.766 124.896 186.91C125.312 187.038 125.752 187.166 126.216 187.294C126.696 187.422 127.184 187.574 127.68 187.75C128.176 187.926 128.632 188.158 129.048 188.446C129.464 188.734 129.8 189.11 130.056 189.574C130.312 190.022 130.44 190.598 130.44 191.302C130.44 192.118 130.2 192.814 129.72 193.39C129.24 193.966 128.64 194.406 127.92 194.71C127.2 194.998 126.464 195.142 125.712 195.142C124.768 195.142 123.824 194.982 122.88 194.662C121.936 194.326 121.152 193.742 120.528 192.91ZM132.106 192.91C131.946 192.686 131.874 192.398 131.89 192.046C131.906 191.694 132.114 191.39 132.514 191.134C132.77 190.974 133.042 190.91 133.33 190.942C133.618 190.958 133.898 191.102 134.17 191.374C134.634 191.838 135.122 192.198 135.634 192.454C136.146 192.71 136.786 192.838 137.554 192.838C137.794 192.822 138.058 192.79 138.346 192.742C138.634 192.678 138.882 192.55 139.09 192.358C139.314 192.15 139.426 191.838 139.426 191.422C139.426 191.07 139.306 190.79 139.066 190.582C138.826 190.374 138.506 190.198 138.106 190.054C137.722 189.91 137.29 189.774 136.81 189.646C136.314 189.502 135.802 189.342 135.274 189.166C134.762 188.99 134.29 188.766 133.858 188.494C133.426 188.206 133.074 187.83 132.802 187.366C132.53 186.902 132.394 186.318 132.394 185.614C132.394 184.814 132.618 184.134 133.066 183.574C133.514 183.014 134.09 182.582 134.794 182.278C135.514 181.974 136.266 181.822 137.05 181.822C137.546 181.822 138.066 181.886 138.61 182.014C139.154 182.126 139.674 182.318 140.17 182.59C140.666 182.846 141.082 183.19 141.418 183.622C141.594 183.862 141.698 184.15 141.73 184.486C141.762 184.822 141.61 185.126 141.274 185.398C141.034 185.59 140.754 185.678 140.434 185.662C140.114 185.63 139.85 185.518 139.642 185.326C139.37 184.974 139.002 184.694 138.538 184.486C138.09 184.278 137.57 184.174 136.978 184.174C136.738 184.174 136.474 184.206 136.186 184.27C135.914 184.318 135.674 184.438 135.466 184.63C135.258 184.806 135.154 185.094 135.154 185.494C135.154 185.862 135.274 186.158 135.514 186.382C135.754 186.59 136.074 186.766 136.474 186.91C136.89 187.038 137.33 187.166 137.794 187.294C138.274 187.422 138.762 187.574 139.258 187.75C139.754 187.926 140.21 188.158 140.626 188.446C141.042 188.734 141.378 189.11 141.634 189.574C141.89 190.022 142.018 190.598 142.018 191.302C142.018 192.118 141.778 192.814 141.298 193.39C140.818 193.966 140.218 194.406 139.498 194.71C138.778 194.998 138.042 195.142 137.29 195.142C136.346 195.142 135.402 194.982 134.458 194.662C133.514 194.326 132.73 193.742 132.106 192.91ZM147.14 193.438C147.14 193.854 147.004 194.206 146.732 194.494C146.46 194.766 146.116 194.902 145.7 194.902C145.284 194.902 144.94 194.766 144.668 194.494C144.396 194.206 144.26 193.854 144.26 193.438V183.526C144.26 183.11 144.396 182.766 144.668 182.494C144.94 182.206 145.284 182.062 145.7 182.062C146.116 182.062 146.46 182.206 146.732 182.494C147.004 182.766 147.14 183.11 147.14 183.526V193.438ZM145.676 180.502C145.132 180.502 144.748 180.414 144.524 180.238C144.3 180.062 144.188 179.75 144.188 179.302V178.846C144.188 178.382 144.308 178.07 144.548 177.91C144.804 177.734 145.188 177.646 145.7 177.646C146.26 177.646 146.652 177.734 146.876 177.91C147.1 178.086 147.212 178.398 147.212 178.846V179.302C147.212 179.766 147.092 180.086 146.852 180.262C146.612 180.422 146.22 180.502 145.676 180.502ZM162.556 188.494C162.556 189.806 162.26 190.966 161.668 191.974C161.092 192.966 160.308 193.742 159.316 194.302C158.34 194.862 157.244 195.142 156.028 195.142C154.812 195.142 153.708 194.862 152.716 194.302C151.74 193.742 150.956 192.966 150.364 191.974C149.788 190.966 149.5 189.806 149.5 188.494C149.5 187.182 149.788 186.03 150.364 185.038C150.956 184.03 151.74 183.246 152.716 182.686C153.708 182.11 154.812 181.822 156.028 181.822C157.244 181.822 158.34 182.11 159.316 182.686C160.308 183.246 161.092 184.03 161.668 185.038C162.26 186.03 162.556 187.182 162.556 188.494ZM159.676 188.494C159.676 187.678 159.508 186.974 159.172 186.382C158.852 185.774 158.412 185.302 157.852 184.966C157.308 184.63 156.7 184.462 156.028 184.462C155.356 184.462 154.74 184.63 154.18 184.966C153.636 185.302 153.196 185.774 152.86 186.382C152.54 186.974 152.38 187.678 152.38 188.494C152.38 189.294 152.54 189.998 152.86 190.606C153.196 191.198 153.636 191.662 154.18 191.998C154.74 192.334 155.356 192.502 156.028 192.502C156.7 192.502 157.308 192.334 157.852 191.998C158.412 191.662 158.852 191.198 159.172 190.606C159.508 189.998 159.676 189.294 159.676 188.494ZM171.941 181.822C173.125 181.822 174.021 182.07 174.629 182.566C175.253 183.062 175.677 183.726 175.901 184.558C176.141 185.374 176.261 186.286 176.261 187.294V193.438C176.261 193.854 176.125 194.206 175.853 194.494C175.581 194.766 175.237 194.902 174.821 194.902C174.405 194.902 174.061 194.766 173.789 194.494C173.517 194.206 173.381 193.854 173.381 193.438V187.294C173.381 186.766 173.309 186.294 173.165 185.878C173.037 185.446 172.797 185.102 172.445 184.846C172.093 184.59 171.589 184.462 170.933 184.462C170.293 184.462 169.749 184.59 169.301 184.846C168.869 185.102 168.533 185.446 168.293 185.878C168.069 186.294 167.957 186.766 167.957 187.294V193.438C167.957 193.854 167.821 194.206 167.549 194.494C167.277 194.766 166.933 194.902 166.517 194.902C166.101 194.902 165.757 194.766 165.485 194.494C165.213 194.206 165.077 193.854 165.077 193.438V183.526C165.077 183.11 165.213 182.766 165.485 182.494C165.757 182.206 166.101 182.062 166.517 182.062C166.933 182.062 167.277 182.206 167.549 182.494C167.821 182.766 167.957 183.11 167.957 183.526V184.558L167.597 184.486C167.741 184.214 167.949 183.926 168.221 183.622C168.493 183.302 168.813 183.006 169.181 182.734C169.549 182.462 169.965 182.246 170.429 182.086C170.893 181.91 171.397 181.822 171.941 181.822ZM189.885 181.822C190.301 181.822 190.645 181.958 190.917 182.23C191.189 182.502 191.325 182.854 191.325 183.286V193.438C191.325 193.854 191.189 194.206 190.917 194.494C190.645 194.766 190.301 194.902 189.885 194.902C189.469 194.902 189.125 194.766 188.853 194.494C188.581 194.206 188.445 193.854 188.445 193.438V192.262L188.973 192.478C188.973 192.686 188.861 192.942 188.637 193.246C188.413 193.534 188.109 193.822 187.725 194.11C187.341 194.398 186.885 194.646 186.357 194.854C185.845 195.046 185.285 195.142 184.677 195.142C183.573 195.142 182.573 194.862 181.677 194.302C180.781 193.726 180.069 192.942 179.541 191.95C179.029 190.942 178.773 189.79 178.773 188.494C178.773 187.182 179.029 186.03 179.541 185.038C180.069 184.03 180.773 183.246 181.653 182.686C182.533 182.11 183.509 181.822 184.581 181.822C185.269 181.822 185.901 181.926 186.477 182.134C187.053 182.342 187.549 182.606 187.965 182.926C188.397 183.246 188.725 183.574 188.949 183.91C189.189 184.23 189.309 184.502 189.309 184.726L188.445 185.038V183.286C188.445 182.87 188.581 182.526 188.853 182.254C189.125 181.966 189.469 181.822 189.885 181.822ZM185.037 192.502C185.741 192.502 186.357 192.326 186.885 191.974C187.413 191.622 187.821 191.142 188.109 190.534C188.413 189.926 188.565 189.246 188.565 188.494C188.565 187.726 188.413 187.038 188.109 186.43C187.821 185.822 187.413 185.342 186.885 184.99C186.357 184.638 185.741 184.462 185.037 184.462C184.349 184.462 183.741 184.638 183.213 184.99C182.685 185.342 182.269 185.822 181.965 186.43C181.677 187.038 181.533 187.726 181.533 188.494C181.533 189.246 181.677 189.926 181.965 190.534C182.269 191.142 182.685 191.622 183.213 191.974C183.741 192.326 184.349 192.502 185.037 192.502ZM197.564 193.438C197.564 193.854 197.42 194.206 197.132 194.494C196.86 194.766 196.516 194.902 196.1 194.902C195.7 194.902 195.364 194.766 195.092 194.494C194.82 194.206 194.684 193.854 194.684 193.438V178.606C194.684 178.19 194.82 177.846 195.092 177.574C195.38 177.286 195.732 177.142 196.148 177.142C196.564 177.142 196.9 177.286 197.156 177.574C197.428 177.846 197.564 178.19 197.564 178.606V193.438Z" fill="#23049D"/>
<g clip-path="url(#clip0_575_54)">
<path d="M160.02 86.7878L152.556 84.4986L150.258 91.9908L148.974 88.5037C147.954 85.7326 145.688 83.6042 142.859 82.7592L135.489 80.5581H128.213H120.937L113.567 82.7592C110.738 83.6042 108.472 85.7328 107.452 88.5037L106.169 91.9908L103.871 84.4986L96.4065 86.7878L101.709 104.078L101.721 104.075L101.717 104.085L101.817 104.569C102.747 109.106 108.994 109.689 110.747 105.402L113.838 97.8436V122.651H142.588V97.8436L145.679 105.402C147.433 109.689 153.679 109.106 154.61 104.569L154.709 104.085L154.706 104.075L154.717 104.078L160.02 86.7878Z" fill="#23049D"/>
<path d="M153.216 76.3338C153.176 75.8134 153.54 75.3486 154.054 75.2619C154.618 75.1669 155.148 75.5591 155.222 76.1263C155.222 76.1263 155.321 77.2242 155.391 77.9692C155.396 78.0148 155.404 78.0595 155.413 78.1036C155.48 78.4056 155.668 78.6663 155.934 78.8256L153.553 80.5239L153.378 78.453L153.216 76.3338Z" fill="#FFD3B3"/>
<path d="M146.025 59.354H158.525V76.5415H146.025V59.354Z" fill="#EDEFF1"/>
<path d="M146.963 61.0728H157.588V62.0103H146.963V61.0728Z" fill="#D3D3D3"/>
<path d="M146.963 63.4165H157.588V64.354H146.963V63.4165Z" fill="#D3D3D3"/>
<path d="M146.963 65.7603H157.588V66.6977H146.963V65.7603Z" fill="#D3D3D3"/>
<path d="M146.963 68.104H157.588V69.0415H146.963V68.104Z" fill="#D3D3D3"/>
<path d="M146.963 70.4478H157.588V71.3853H146.963V70.4478Z" fill="#D3D3D3"/>
<path d="M153.833 81.9545V81.9542C153.627 81.7389 153.606 81.47 153.586 81.203L153.541 80.5259L155.928 78.8267C155.974 78.8542 156.025 78.8792 156.075 78.9003L156.091 78.9061C156.413 79.0406 156.78 79.0114 157.076 78.8276L158.093 78.1975C158.478 77.9558 158.681 77.5059 158.606 77.057L157.922 74.6776L157.208 74.6239L157.04 75.0026C156.848 75.4353 156.356 75.6478 155.909 75.4912C155.42 75.32 155.174 74.7758 155.366 74.2951L155.636 73.6242C155.854 73.0798 156.391 72.7314 156.977 72.7534L158.454 72.8091C159.01 72.83 159.499 73.1798 159.699 73.6986L160.006 74.4966L160.693 76.5389L162.571 78.2083C162.939 78.535 163.082 79.0458 162.939 79.5161L161.671 83.6614C161.523 84.1451 161.199 84.5555 160.762 84.8106L159.945 85.288C159.672 85.4475 159.469 85.7039 159.376 86.0062L159.213 86.5403L153.569 84.8094L154.018 83.307C154.158 82.8509 154.072 82.3601 153.833 81.9545Z" fill="#FFD3B3"/>
<path d="M158.99 82.2504L157.065 80.6221C156.589 80.2196 156.39 79.5865 156.536 78.9873C156.725 78.9823 156.911 78.9296 157.076 78.8275L158.092 78.1973C158.478 77.9556 158.681 77.5057 158.606 77.0568L158.348 76.1592H160.565L160.693 76.5386L162.571 78.2079C162.939 78.5346 163.082 79.0454 162.939 79.5157L162.647 80.4704L161.729 80.7004C161.635 80.7225 161.565 80.7953 161.537 80.8873L161.253 81.8151C161.11 82.2817 160.716 82.612 160.228 82.6242L160.086 82.6371C159.909 82.6412 159.735 82.617 159.567 82.5657C159.353 82.5009 159.16 82.3945 158.99 82.2504Z" fill="#FCB98B"/>
<path d="M162.938 79.5165L162.758 80.1046L161.704 80.3526C161.479 80.4055 161.3 80.5738 161.232 80.7946L160.948 81.7224C160.853 82.0329 160.571 82.2479 160.246 82.256L160.075 82.2602C159.767 82.2671 159.467 82.1624 159.232 81.963L157.304 80.3344C156.919 80.0091 156.766 79.4874 156.913 79.0063L157.393 77.438C157.544 76.9413 157.986 76.591 158.496 76.5524C158.527 76.5488 158.558 76.5477 158.589 76.548L160.692 76.5388L162.571 78.2088C162.939 78.5343 163.082 79.0462 162.938 79.5165Z" fill="#FFD3B3"/>
<path d="M157.793 80.8L157.345 80.6629L158.183 77.9212C158.305 77.525 158.664 77.2443 159.078 77.2228L160.02 77.1737L160.044 77.6418L159.102 77.6909C158.884 77.7023 158.695 77.8498 158.632 78.0582L157.793 80.8Z" fill="#FCB98B"/>
<path d="M159.137 81.9995L158.688 81.8625L159.508 79.1816C159.618 78.821 159.918 78.5581 160.289 78.4955L160.939 78.3861L161.017 78.8483L160.367 78.9577C160.172 78.9906 160.014 79.1289 159.956 79.3186L159.137 81.9995Z" fill="#FCB98B"/>
<path d="M155.673 85.4873L156.15 83.9226L156.599 84.0595L156.121 85.6242L155.673 85.4873Z" fill="#FCB98B"/>
<path d="M158.854 59.8533L161.712 56.9954L162.595 57.8791L159.737 60.7369L158.854 59.8533Z" fill="#23049D"/>
<path d="M162.9 59.6665H161.65V57.9478H159.931V56.6978H162.9V59.6665Z" fill="#23049D"/>
<path d="M158.855 68.5516L159.739 67.6679L162.597 70.5257L161.713 71.4095L158.855 68.5516Z" fill="#23049D"/>
<path d="M162.9 71.6978H159.931V70.4478H161.65V68.729H162.9V71.6978Z" fill="#23049D"/>
<path d="M141.937 57.88L142.821 56.9964L145.679 59.8542L144.795 60.7378L141.937 57.88Z" fill="#23049D"/>
<path d="M142.9 59.6665H141.65V56.6978H144.619V57.9478H142.9V59.6665Z" fill="#23049D"/>
<path d="M141.934 70.52L144.792 67.6622L145.676 68.5459L142.818 71.4038L141.934 70.52Z" fill="#23049D"/>
<path d="M144.619 71.6978H141.65V68.729H142.9V70.4478H144.619V71.6978Z" fill="#23049D"/>
<path d="M135.489 80.5581H128.213H120.937L116.24 81.9606C117.121 87.0306 122.146 90.9165 128.212 90.9165C134.279 90.9165 139.304 87.0306 140.184 81.9606L135.489 80.5581Z" fill="#EDEFF1"/>
<path d="M103.21 76.3338C103.25 75.8134 102.886 75.3486 102.371 75.2619C101.808 75.1669 101.277 75.5591 101.203 76.1263C101.203 76.1263 101.104 77.2242 101.034 77.9692C101.03 78.0148 101.022 78.0595 101.012 78.1036C100.946 78.4056 100.758 78.6663 100.492 78.8256L102.872 80.5239L103.048 78.453L103.21 76.3338Z" fill="#FFD3B3"/>
<path d="M97.9002 59.354H110.4V76.5415H97.9002V59.354Z" fill="#EDEFF1"/>
<path d="M98.8377 61.0728H109.463V62.0103H98.8377V61.0728Z" fill="#D3D3D3"/>
<path d="M98.8377 63.4165H109.463V64.354H98.8377V63.4165Z" fill="#D3D3D3"/>
<path d="M98.8377 65.7603H109.463V66.6977H98.8377V65.7603Z" fill="#D3D3D3"/>
<path d="M98.8377 68.104H109.463V69.0415H98.8377V68.104Z" fill="#D3D3D3"/>
<path d="M98.8377 70.4478H109.463V71.3853H98.8377V70.4478Z" fill="#D3D3D3"/>
<path d="M102.593 81.9545V81.9542C102.798 81.7389 102.819 81.47 102.84 81.203L102.884 80.5259L100.498 78.8267C100.452 78.8542 100.401 78.8792 100.35 78.9003L100.335 78.9061C100.013 79.0406 99.6455 79.0114 99.3492 78.8276L98.333 78.1975C97.9474 77.9558 97.7447 77.5059 97.8194 77.057L98.5033 74.6776L99.2174 74.6239L99.3856 75.0026C99.5778 75.4353 100.07 75.6478 100.517 75.4912C101.005 75.32 101.252 74.7758 101.059 74.2951L100.79 73.6242C100.571 73.0798 100.034 72.7314 99.4483 72.7534L97.9714 72.8091C97.416 72.83 96.9266 73.1798 96.7269 73.6986L96.4199 74.4966L95.7328 76.5389L93.8542 78.2083C93.4866 78.535 93.3431 79.0458 93.4869 79.5161L94.7544 83.6614C94.9024 84.1451 95.2269 84.5555 95.6638 84.8106L96.4811 85.288C96.7541 85.4475 96.957 85.7039 97.0495 86.0062L97.2128 86.5403L102.857 84.8094L102.407 83.307C102.268 82.8509 102.354 82.3601 102.593 81.9545Z" fill="#FFD3B3"/>
<path d="M97.435 82.2504L99.3608 80.6221C99.8366 80.2196 100.035 79.5865 99.8896 78.9873C99.7008 78.9823 99.5141 78.9296 99.3493 78.8275L98.333 78.1973C97.9474 77.9556 97.7447 77.5057 97.8194 77.0568L98.0774 76.1592H95.8604L95.7327 76.5386L93.8541 78.2079C93.4865 78.5346 93.343 79.0454 93.4868 79.5157L93.7786 80.4704L94.6969 80.7004C94.7907 80.7225 94.8607 80.7953 94.8888 80.8873L95.1724 81.8151C95.315 82.2817 95.7099 82.612 96.1977 82.6242L96.3397 82.6371C96.5169 82.6412 96.6908 82.617 96.8585 82.5657C97.0721 82.5009 97.2654 82.3945 97.435 82.2504Z" fill="#FCB98B"/>
<path d="M93.4879 79.5165L93.6678 80.1046L94.7218 80.3526C94.9467 80.4055 95.1264 80.5738 95.1939 80.7946L95.4776 81.7224C95.5726 82.0329 95.8556 82.2479 96.1801 82.256L96.3509 82.2602C96.6595 82.2671 96.9589 82.1624 97.1937 81.963L99.1222 80.3344C99.5067 80.0091 99.6601 79.4874 99.5131 79.0063L99.0336 77.438C98.8817 76.9413 98.4406 76.591 97.9303 76.5524C97.8989 76.5488 97.8684 76.5477 97.8368 76.548L95.7339 76.5388L93.855 78.2088C93.4875 78.5343 93.3442 79.0462 93.4879 79.5165Z" fill="#FFD3B3"/>
<path d="M98.6325 80.8L97.7942 78.0581C97.7306 77.8497 97.5415 77.702 97.3237 77.6908L96.3815 77.6417L96.4059 77.1736L97.3481 77.2226C97.7618 77.2442 98.1212 77.5248 98.2425 77.9211L99.0808 80.6628L98.6325 80.8Z" fill="#FCB98B"/>
<path d="M97.2893 81.9995L96.4696 79.3186C96.4118 79.1289 96.2543 78.9906 96.0587 78.9577L95.4093 78.8483L95.4871 78.3861L96.1365 78.4955C96.5084 78.5581 96.8077 78.821 96.9179 79.1816L97.7376 81.8625L97.2893 81.9995Z" fill="#FCB98B"/>
<path d="M99.7695 84.0475L100.218 83.9106L100.691 85.4614L100.243 85.5983L99.7695 84.0475Z" fill="#FCB98B"/>
<path d="M106.168 91.9917L109.275 102.113L109.28 99.4164C109.281 99.1037 109.235 98.7928 109.143 98.4938L106.703 90.5376L106.168 91.9917Z" fill="#466089"/>
<path d="M150.258 91.9917L147.15 102.113L147.145 99.4164C147.144 99.1037 147.191 98.7928 147.282 98.4938L149.723 90.5376L150.258 91.9917Z" fill="#466089"/>
<path d="M113.838 122.651V125.135H128.213H142.588V122.651H128.213H113.838Z" fill="#466089"/>
<path d="M126.531 122.651H129.895V125.135H126.531V122.651Z" fill="#FFE352"/>
<path d="M135.489 80.5581L131.585 86.4143L131.052 85.6925L130.361 86.549L131.628 88.2684L136.527 80.8672L135.489 80.5581Z" fill="#D3D3D3"/>
<path d="M120.937 80.5581L124.841 86.4143L125.367 85.6987L126.026 86.6014L124.797 88.2684L119.898 80.8672L120.937 80.5581Z" fill="#D3D3D3"/>
<path d="M126.644 90.8272C127.157 90.8852 127.681 90.9167 128.213 90.9167C128.69 90.9167 129.161 90.89 129.624 90.8431L129.455 87.6567H126.793L126.644 90.8272Z" fill="#80D6FB"/>
<path d="M129.079 88.8987H128.766C128.766 87.7794 128.167 87.4541 128.142 87.4408L128.283 87.1619C128.315 87.1781 129.079 87.5751 129.079 88.8987Z" fill="#46BEE8"/>
<path d="M127.659 88.8987H127.347C127.347 87.5751 128.11 87.1781 128.143 87.1619L128.284 87.4408C128.258 87.4541 127.659 87.7795 127.659 88.8987Z" fill="#46BEE8"/>
<path d="M123.954 78.4286L120.937 80.5581L124.842 86.4144L126.798 83.7597C127.143 83.2911 127.612 82.9281 128.153 82.7119L128.213 82.6876L123.954 78.4286Z" fill="#EDEFF1"/>
<path d="M132.472 78.4286L135.489 80.5581L131.585 86.4144L129.628 83.7597C129.283 83.2911 128.814 82.9281 128.273 82.7119L128.213 82.6876L132.472 78.4286Z" fill="#EDEFF1"/>
<path d="M128.722 82.6876H127.704C125.632 82.6876 123.954 81.0086 123.954 78.9376V72.7844H132.472V78.9376C132.472 81.0086 130.793 82.6876 128.722 82.6876Z" fill="#FFD3B3"/>
<path d="M123.954 75.0711C125.256 75.6526 126.696 75.9788 128.213 75.9788C129.729 75.9788 131.169 75.6527 132.472 75.0711V72.7844H123.954V75.0711Z" fill="#FCB98B"/>
<path d="M137.263 65.5248C137.263 70.5144 133.202 74.5592 128.212 74.5592C123.223 74.5592 119.162 70.5144 119.162 65.5248V56.6356H137.263V65.5248Z" fill="#FFD3B3"/>
<path d="M126.65 70.2915H129.775L129.759 70.3579C129.585 71.0535 128.96 71.5415 128.243 71.5415H128.183C127.466 71.5415 126.841 71.0535 126.667 70.3579L126.65 70.2915Z" fill="#EDEFF1"/>
<path d="M129.1 67.9295H126.993L127.213 65.2921L128.147 65.3701L128.012 66.992H129.1V67.9295Z" fill="#FCB98B"/>
<path d="M126.616 60.8947C126.616 60.8947 123.836 59.7412 121.47 61.782C121.47 61.782 124.22 61.0722 126.083 61.9595L126.616 60.8947Z" fill="#23049D"/>
<path d="M124.664 64.6214C125.154 64.6214 125.551 64.2241 125.551 63.734C125.551 63.244 125.154 62.8467 124.664 62.8467C124.174 62.8467 123.777 63.244 123.777 63.734C123.777 64.2241 124.174 64.6214 124.664 64.6214Z" fill="#23049D"/>
<path d="M129.565 61.5904C129.565 61.5904 131.977 59.7894 134.772 61.1865C134.772 61.1865 131.931 61.174 130.343 62.4919L129.565 61.5904Z" fill="#23049D"/>
<path d="M130.933 63.9402L130.462 63.5286C130.507 63.4771 131.583 62.2666 133.06 62.4683L132.976 63.0875C131.835 62.9319 130.941 63.9301 130.933 63.9402Z" fill="#FCB98B"/>
<path d="M132.171 64.2377C131.476 63.9386 130.751 64.0419 130.744 64.0432L130.652 63.4249C130.688 63.4194 131.562 63.2952 132.418 63.6635L132.171 64.2377Z" fill="#FCB98B"/>
<path d="M137.263 59.5093H137.93C138.992 59.5093 139.816 60.4363 139.692 61.4912L139.444 63.6041C139.314 64.7096 138.377 65.5429 137.263 65.5429V59.5093Z" fill="#FFD3B3"/>
<path d="M119.163 59.5093H118.497C117.434 59.5093 116.61 60.4363 116.734 61.4912L116.983 63.6041C117.113 64.7096 118.05 65.5429 119.163 65.5429V59.5093Z" fill="#FFD3B3"/>
<path d="M131.052 85.6924L129.455 87.6565H126.792L125.367 85.6987L126.797 83.7596C127.142 83.2909 127.611 82.9284 128.152 82.7112L128.212 82.6877L128.273 82.7112C128.814 82.9284 129.283 83.2909 129.628 83.7596L131.052 85.6924Z" fill="#80D6FB"/>
<path d="M128.266 87.1227H128.065C127.265 87.1227 126.514 86.7403 126.044 86.0939L125.563 85.4336L125.368 85.6988L126.793 87.6566H129.455L131.052 85.6925L130.846 85.4124L130.206 86.1999C129.731 86.7838 129.018 87.1227 128.266 87.1227Z" fill="#46BEE8"/>
<path d="M136.182 56.6356V59.8839C136.182 60.4106 136.43 60.9101 136.835 61.2472L137.276 61.6023V51.3751H130.698V56.6356H136.182Z" fill="#466089"/>
<path d="M134.559 56.6356H120.244V59.8838C120.244 60.4106 119.996 60.9101 119.591 61.2473L119.15 61.6024V59.5103H118.525V53.729V52.3228C118.525 50.7695 119.784 49.5103 121.338 49.5103H121.469C121.469 47.957 122.728 46.6978 124.282 46.6978H137.684C138.547 46.6978 139.247 47.3973 139.247 48.2603V51.9481C139.247 54.537 137.148 56.6356 134.559 56.6356Z" fill="#23049D"/>
<path d="M93.8171 57.8748L94.7007 56.9911L97.5586 59.8489L96.6749 60.7326L93.8171 57.8748Z" fill="#23049D"/>
<path d="M94.7752 59.6665H93.5252V56.6978H96.4939V57.9478H94.7752V59.6665Z" fill="#23049D"/>
<path d="M93.8168 70.5171L96.6747 67.6593L97.5584 68.543L94.7006 71.4008L93.8168 70.5171Z" fill="#23049D"/>
<path d="M96.4939 71.6978H93.5252V68.729H94.7752V70.4478H96.4939V71.6978Z" fill="#23049D"/>
<path d="M110.736 59.8495L113.593 56.9917L114.477 57.8753L111.619 60.7331L110.736 59.8495Z" fill="#23049D"/>
<path d="M114.775 59.6665H113.525V57.9478H111.806V56.6978H114.775V59.6665Z" fill="#23049D"/>
<path d="M110.735 68.5463L111.619 67.6625L114.476 70.5203L113.593 71.4041L110.735 68.5463Z" fill="#23049D"/>
<path d="M114.775 71.6978H111.806V70.4478H113.525V68.729H114.775V71.6978Z" fill="#23049D"/>
</g>
<defs>
<filter id="filter0_bd_575_54" x="-91.8184" y="-97.5376" width="439.853" height="439.853" filterUnits="userSpaceOnUse" color-interpolation-filters="sRGB">
<feFlood flood-opacity="0" result="BackgroundImageFix"/>
<feGaussianBlur in="BackgroundImage" stdDeviation="50"/>
<feComposite in2="SourceAlpha" operator="in" result="effect1_backgroundBlur_575_54"/>
<feColorMatrix in="SourceAlpha" type="matrix" values="0 0 0 0 0 0 0 0 0 0 0 0 0 0 0 0 0 0 127 0" result="hardAlpha"/>
<feOffset dy="6"/>
<feGaussianBlur stdDeviation="4"/>
<feComposite in2="hardAlpha" operator="out"/>
<feColorMatrix type="matrix" values="0 0 0 0 0 0 0 0 0 0 0 0 0 0 0 0 0 0 0.02 0"/>
<feBlend mode="normal" in2="effect1_backgroundBlur_575_54" result="effect2_dropShadow_575_54"/>
<feBlend mode="normal" in="SourceGraphic" in2="effect2_dropShadow_575_54" result="shape"/>
</filter>
<clipPath id="clip0_575_54">
<rect width="80" height="80" fill="white" transform="translate(88.1816 45.9019)"/>
</clipPath>
</defs>
</svg>
