<svg width="40" height="40" viewBox="0 0 40 40" fill="none" xmlns="http://www.w3.org/2000/svg">
<path d="M19.9999 12.3053C17.2773 12.3053 15.0624 14.5203 15.0624 17.2427C15.0624 19.9652 17.2773 22.1802 19.9999 22.1802C22.7225 22.1802 24.9375 19.9652 24.9375 17.2427C24.9375 14.5202 22.7224 12.3053 19.9999 12.3053Z" fill="#FF79CD"/>
<path d="M29.8558 35.9048C29.5196 33.5548 28.3458 31.396 26.5506 29.8263C24.7376 28.2408 22.4111 27.3677 20 27.3677C17.5888 27.3677 15.2623 28.2409 13.4492 29.8263C11.6541 31.396 10.4803 33.5548 10.1441 35.9048C10.0959 36.2412 10.1962 36.5818 10.4188 36.8385C10.6414 37.0952 10.9644 37.2427 11.3041 37.2427H28.6958C29.0355 37.2427 29.3585 37.0952 29.5811 36.8385C29.8037 36.5818 29.9039 36.2411 29.8558 35.9048Z" fill="#FF79CD"/>
<path d="M12.8404 10.0833C13.298 9.62569 13.298 8.88366 12.8404 8.42601C12.3829 7.96835 11.6408 7.96835 11.1832 8.42601C6.3217 13.2876 6.3217 21.1979 11.1833 26.0593C11.412 26.2882 11.712 26.4025 12.0118 26.4025C12.3118 26.4025 12.6116 26.2881 12.8404 26.0593C13.298 25.6017 13.298 24.8597 12.8404 24.4021C8.89271 20.4544 8.89271 14.031 12.8404 10.0833Z" fill="#FF79CD"/>
<path d="M28.8166 8.42601C28.359 7.96835 27.617 7.96843 27.1593 8.42601C26.7017 8.88358 26.7017 9.62561 27.1593 10.0833C29.0717 11.9956 30.1248 14.5382 30.1248 17.2426C30.1248 19.9472 29.0717 22.4898 27.1593 24.4022C26.7017 24.8598 26.7017 25.6018 27.1594 26.0594C27.3883 26.2883 27.6881 26.4027 27.9881 26.4027C28.2879 26.4027 28.5879 26.2883 28.8166 26.0594C31.1716 23.7043 32.4685 20.5732 32.4685 17.2426C32.4685 13.9121 31.1715 10.781 28.8166 8.42601Z" fill="#FF79CD"/>
<path d="M7.51514 29.7276C0.631093 22.8435 0.630937 11.6421 7.51506 4.75789C7.97264 4.30031 7.97264 3.55828 7.51506 3.10063C7.05749 2.64297 6.31546 2.64305 5.85772 3.10063C2.08039 6.8782 0 11.9006 0 17.2428C7.81249e-05 22.5851 2.08046 27.6075 5.85796 31.3849C6.08671 31.6137 6.38671 31.7281 6.68647 31.7281C6.98647 31.7281 7.28631 31.6136 7.51514 31.3849C7.9728 30.9272 7.9728 30.1853 7.51514 29.7276Z" fill="#FF79CD"/>
<path d="M34.1422 3.10063C33.6846 2.64297 32.9426 2.64297 32.4849 3.10063C32.0272 3.5582 32.0272 4.30023 32.4849 4.75789C39.369 11.642 39.369 22.8433 32.4849 29.7275C32.0272 30.1852 32.0272 30.9271 32.4849 31.3848C32.7137 31.6136 33.0137 31.728 33.3136 31.728C33.6135 31.728 33.9134 31.6135 34.1422 31.3848C37.9196 27.6072 39.9999 22.5848 39.9999 17.2427C40 11.9006 37.9196 6.8782 34.1422 3.10063Z" fill="#FF79CD"/>
</svg>
