<svg width="24" height="24" viewBox="0 0 24 24" fill="none" xmlns="http://www.w3.org/2000/svg">
<path d="M12 14.9625C10.3665 14.9625 9.03754 13.6335 9.03754 12.0001C9.03754 10.3666 10.3665 9.0376 12 9.0376C13.6335 9.0376 14.9625 10.3666 14.9625 12.0001C14.9625 13.6335 13.6335 14.9625 12 14.9625ZM12 10.4438C11.1418 10.4438 10.4438 11.142 10.4438 12.0001C10.4438 12.8581 11.1418 13.5563 12 13.5563C12.858 13.5563 13.5562 12.8581 13.5562 12.0001C13.5562 11.142 12.8582 10.4438 12 10.4438Z" fill="#AA2EE6"/>
<path d="M12 19.4813C7.87482 19.4813 4.51868 16.1251 4.51868 11.9999C4.51868 7.87476 7.87482 4.5188 12 4.5188C16.1252 4.5188 19.4813 7.87476 19.4813 11.9999C19.4813 16.1251 16.1252 19.4813 12 19.4813ZM12 5.92505C8.65027 5.92505 5.92493 8.65021 5.92493 11.9999C5.92493 15.3499 8.65027 18.075 12 18.075C15.3497 18.075 18.0751 15.3497 18.0751 11.9999C18.0751 8.65021 15.3497 5.92505 12 5.92505Z" fill="#FF79CD"/>
<path d="M7.07391 22.8726C6.97101 22.8726 6.86646 22.8499 6.7674 22.8019C4.76971 21.8324 3.08038 20.3291 1.88214 18.4545C0.650757 16.5282 0 14.2963 0 12C0 8.79474 1.24823 5.78119 3.51471 3.51471C5.78119 1.24823 8.79474 0 12 0C15.2051 0 18.2184 1.24823 20.4851 3.51471C22.7518 5.78137 24 8.79474 24 12C24 14.2963 23.3491 16.5282 22.1179 18.4545C20.9196 20.3291 19.2301 21.8326 17.2324 22.8019C16.8831 22.9715 16.4625 22.8257 16.2929 22.4764C16.1234 22.127 16.2691 21.7062 16.6185 21.5367C20.3042 19.7483 22.5938 16.0941 22.5938 12C22.5938 6.15857 17.8414 1.40625 12 1.40625C6.15857 1.40625 1.40625 6.15857 1.40625 12C1.40625 16.0941 3.6958 19.7483 7.38153 21.5367C7.7309 21.7062 7.87665 22.127 7.70709 22.4764C7.58551 22.7269 7.33484 22.8726 7.07391 22.8726Z" fill="#FF79CD"/>
<path d="M17.2174 24.0001H6.78259C6.57861 24.0001 6.38488 23.9117 6.25122 23.7577C6.11773 23.6035 6.05767 23.3992 6.08642 23.1974C6.2882 21.7875 6.99243 20.4922 8.06945 19.5503C9.15746 18.5991 10.5533 18.0752 12 18.0752C13.4467 18.0752 14.8425 18.5991 15.9303 19.5503C17.0074 20.4922 17.7116 21.7875 17.9134 23.1974C17.9423 23.3992 17.8821 23.6035 17.7486 23.7577C17.6151 23.9117 17.4212 24.0001 17.2174 24.0001ZM7.66973 22.5939H16.3302C15.7152 20.7731 13.9783 19.4814 12 19.4814C10.0217 19.4814 8.28478 20.7731 7.66973 22.5939Z" fill="#23049D"/>
</svg>
