<svg width="84" height="50" viewBox="0 0 84 50" fill="none" xmlns="http://www.w3.org/2000/svg">
<g clip-path="url(#clip0_562_68)">
<path fill-rule="evenodd" clip-rule="evenodd" d="M58.2949 50L59.5814 49.9554L60.8235 49.8661L62.0656 49.6875L63.3078 49.4643L64.5055 49.1964L65.7033 48.8839L66.8567 48.4821L67.9657 48.0357L69.0747 47.5L70.1394 46.9643L71.2041 46.3839L72.2244 45.7143L73.2003 45L74.1319 44.2857L75.0191 43.4821L75.9064 42.6339L76.7049 41.7857L77.5034 40.8929L78.2132 39.9107L78.9229 38.9732L79.5884 37.9464L80.1651 36.875L80.7418 35.8036L81.2297 34.6875L81.6733 33.5714L82.0726 32.4107L82.3831 31.2054L82.6936 30L82.8711 28.75L83.0485 27.5L83.1373 26.25L83.1816 24.9554L83.1373 23.6607L83.0485 22.4107L82.8711 21.1607L82.6936 19.9107L82.3831 18.7054L82.0726 17.5446L81.6733 16.3839L81.2297 15.2679L80.7418 14.1518L80.1651 13.0804L79.5884 12.0536L78.9229 11.0268L78.2132 10.0446L77.5034 9.10714L76.7049 8.16964L75.9064 7.32143L75.0191 6.47321L74.1319 5.71429L73.2003 4.95536L72.2244 4.28571L71.2041 3.61607L70.1394 3.03571L69.0747 2.45536L67.9657 1.96429L66.8567 1.51786L65.7033 1.11607L64.5055 0.803571L63.3078 0.491071L62.0656 0.267857L60.8235 0.133929L59.5814 0.0446429L58.2949 0L57.0085 0.0446429L55.7663 0.133929L54.5242 0.267857L53.2821 0.491071L52.0844 0.803571L50.931 1.11607L49.7776 1.51786L48.6242 1.96429L47.5151 2.45536L46.4505 3.03571L45.4302 3.61607L44.4099 4.28571L43.4339 4.95536L42.5023 5.71429L41.6151 6.47321L40.7722 7.32143L39.9294 8.16964L39.1752 9.10714L38.4211 10.0446L37.7113 11.0268L37.0902 12.0536L36.5135 13.0804L35.9368 14.1518L35.4489 15.2679L35.0053 16.3839L34.606 17.5446L34.2955 18.7054L33.985 19.9107L33.8075 21.1607L33.6301 22.4107L33.5413 23.6607L33.497 24.9554L33.5413 26.25L33.6301 27.5L33.8075 28.75L33.985 30L34.2955 31.2054L34.606 32.4107L35.0053 33.5714L35.4489 34.6875L35.9368 35.8036L36.5135 36.875L37.0902 37.9464L37.7113 38.9732L38.4211 39.9107L39.1752 40.8929L39.9294 41.7857L40.7722 42.6339L41.6151 43.4821L42.5023 44.2857L43.4339 45L44.4099 45.7143L45.4302 46.3839L46.4505 46.9643L47.5151 47.5L48.6242 48.0357L49.7776 48.4821L50.931 48.8839L52.0844 49.1964L53.2821 49.4643L54.5242 49.6875L55.7663 49.8661L57.0085 49.9554L58.2949 50Z" fill="#FCB331"/>
<path fill-rule="evenodd" clip-rule="evenodd" d="M25.0683 50L26.3548 49.9554L27.5969 49.8661L28.839 49.6875L30.0812 49.4643L31.2789 49.1964L32.4323 48.8839L33.5857 48.4821L34.7391 48.0357L35.8038 47.5L36.8684 46.9643L37.9331 46.3839L38.9091 45.7143L39.885 45L40.861 44.2857L41.7482 43.4821L42.591 42.6339L43.4339 41.7857L44.188 40.8929L44.9422 39.9107L45.6076 38.9732L46.273 37.9464L46.8497 36.875L47.4264 35.8036L47.9144 34.6875L48.358 33.5714L48.7573 32.4107L49.0678 31.2054L49.334 30L49.5558 28.75L49.7332 27.5L49.8219 26.25L49.8663 24.9554L49.8219 23.6607L49.7332 22.4107L49.5558 21.1607L49.334 19.9107L49.0678 18.7054L48.7573 17.5446L48.358 16.3839L47.9144 15.2679L47.4264 14.1518L46.8497 13.0804L46.273 12.0536L45.6076 11.0268L44.9422 10.0446L44.188 9.10714L43.4339 8.16964L42.591 7.32143L41.7482 6.47321L40.861 5.71429L39.885 4.95536L38.9091 4.28571L37.9331 3.61607L36.8684 3.03571L35.8038 2.45536L34.7391 1.96429L33.5857 1.51786L32.4323 1.11607L31.2789 0.803571L30.0812 0.491071L28.839 0.267857L27.5969 0.133929L26.3548 0.0446429L25.0683 0L23.7819 0.0446429L22.5397 0.133929L21.2976 0.267857L20.0555 0.491071L18.8577 0.803571L17.66 1.11607L16.5066 1.51786L15.3976 1.96429L14.2885 2.45536L13.1795 3.03571L12.1592 3.61607L11.1389 4.28571L10.1629 4.95536L9.23135 5.71429L8.34412 6.47321L7.45689 7.32143L6.65839 8.16964L5.85989 9.10714L5.10575 10.0446L4.44033 11.0268L3.77491 12.0536L3.19821 13.0804L2.62151 14.1518L2.13354 15.2679L1.68992 16.3839L1.29067 17.5446L0.980144 18.7054L0.669615 19.9107L0.447808 21.1607L0.314725 22.4107L0.226002 23.6607L0.181641 24.9554L0.226002 26.25L0.314725 27.5L0.447808 28.75L0.669615 30L0.980144 31.2054L1.29067 32.4107L1.68992 33.5714L2.13354 34.6875L2.62151 35.8036L3.19821 36.875L3.77491 37.9464L4.44033 38.9732L5.10575 39.9107L5.85989 40.8929L6.65839 41.7857L7.45689 42.6339L8.34412 43.4821L9.23135 44.2857L10.1629 45L11.1389 45.7143L12.1592 46.3839L13.1795 46.9643L14.2885 47.5L15.3976 48.0357L16.5066 48.4821L17.66 48.8839L18.8577 49.1964L20.0555 49.4643L21.2976 49.6875L22.5397 49.8661L23.7819 49.9554L25.0683 50Z" fill="#ED1C2E"/>
<path fill-rule="evenodd" clip-rule="evenodd" d="M38.776 9.59816H51.9513V8.21423H39.9294L38.776 9.59816Z" fill="#FCB331"/>
<path fill-rule="evenodd" clip-rule="evenodd" d="M36.7797 12.5893H51.9513V11.25H37.5782L36.7797 12.5893Z" fill="#FCB331"/>
<path fill-rule="evenodd" clip-rule="evenodd" d="M35.3158 15.625H51.9513V14.2411H35.8925L35.3158 15.625Z" fill="#FCB331"/>
<path fill-rule="evenodd" clip-rule="evenodd" d="M34.2955 18.6161H51.9513V17.2769H34.7391L34.2955 18.6161Z" fill="#FCB331"/>
<path fill-rule="evenodd" clip-rule="evenodd" d="M34.8722 33.2143H51.9957V31.875H34.4729L34.8722 33.2143Z" fill="#FCB331"/>
<path fill-rule="evenodd" clip-rule="evenodd" d="M36.1587 36.25H51.9956V34.8661H35.5376L36.1587 36.25Z" fill="#FCB331"/>
<path fill-rule="evenodd" clip-rule="evenodd" d="M37.9331 39.241H51.9956V37.9017H37.0902L37.9331 39.241Z" fill="#FCB331"/>
<path fill-rule="evenodd" clip-rule="evenodd" d="M40.373 42.2767H51.9956V40.8928H39.2196L40.373 42.2767Z" fill="#FCB331"/>
<path fill-rule="evenodd" clip-rule="evenodd" d="M33.7188 21.6518H51.9513V20.2678H33.985L33.7188 21.6518Z" fill="#FCB331"/>
<path fill-rule="evenodd" clip-rule="evenodd" d="M44.8535 30.2232H51.8182V28.8392H45.0753L44.8535 30.2232Z" fill="#FCB331"/>
<path fill-rule="evenodd" clip-rule="evenodd" d="M45.3858 27.1876H51.8182V25.8483H45.652L45.3858 27.1876Z" fill="#FCB331"/>
<path fill-rule="evenodd" clip-rule="evenodd" d="M33.2308 25.8483H35.0496V27.1876H33.3195L33.2308 25.8483Z" fill="#FCB331"/>
<path fill-rule="evenodd" clip-rule="evenodd" d="M29.8594 24.1964H29.7706L29.6376 24.1518H29.5488H29.4158L29.327 24.1072H29.1939L29.1052 24.0625H28.9721H28.8834L28.7503 24.0179H28.5729H28.4398H28.2624H28.0406L27.8187 24.0625H27.5969L27.4195 24.1072H27.2864L27.109 24.1518L27.0202 24.1964L26.8872 24.2857L26.7541 24.3304L26.7097 24.4197L26.621 24.5089L26.5766 24.5982L26.5323 24.6875L26.4879 24.7768V24.9107L26.5323 25L26.5766 25.0893L26.621 25.2232L26.7097 25.3125L26.8872 25.4911L27.0646 25.625L27.3308 25.7143L27.5526 25.8036L27.8187 25.8929L28.1293 25.9822L28.3954 26.1161L28.6616 26.2054L28.9278 26.3393L29.1496 26.5179L29.3714 26.7411L29.5488 27.0089L29.6819 27.3214L29.7263 27.6786L29.7706 28.1697L29.7263 28.7054L29.6819 29.0625L29.5932 29.4197L29.4601 29.7322L29.2827 30.0447L29.1052 30.2679L28.8834 30.4911L28.6616 30.6697L28.3954 30.8036L28.1293 30.9375L27.8187 31.0714L27.5526 31.1607L27.2421 31.2054L26.9759 31.25L26.7097 31.2947H26.4435H26.1774H25.8225H25.4676H25.1571H24.8909H24.6247L24.4029 31.25H24.2255H24.0037L23.8706 31.2054L23.6931 31.1607H23.5157L23.3826 31.1161L23.2495 31.0714L23.1164 31.0268L22.9834 30.9822L22.8503 30.9375L23.2052 29.0625H23.2939L23.3826 29.1072L23.5157 29.1518H23.6488L23.7819 29.1964L23.9593 29.2411L24.1368 29.2857L24.3586 29.3304H24.536L24.7578 29.375L24.9796 29.4197H25.2458L25.4676 29.4643H25.7338H25.9556H26.2217L26.4435 29.375L26.621 29.3304L26.7984 29.2411L26.8872 29.1072L26.9759 28.9732L27.0646 28.8393L27.109 28.7054L27.1533 28.6161V28.3482L27.0646 28.125L26.9315 27.9911L26.7097 27.8125L26.4879 27.7232L26.1774 27.5893L25.8669 27.4554L25.512 27.3214L25.2014 27.1875L24.8909 27.0089L24.5804 26.7857L24.3142 26.5179L24.0924 26.2054L23.9593 25.8036L23.8706 25.3572V24.8214L23.915 24.5089L24.0037 24.1964L24.048 23.8839L24.1811 23.6161L24.3142 23.3929L24.4473 23.1697L24.6247 22.9464L24.8465 22.7679L25.0683 22.5893L25.3345 22.4554L25.645 22.3214L25.9999 22.2322L26.3548 22.1875L26.7541 22.0982L27.2421 22.0536H27.73H28.0406H28.3067L28.5729 22.0982H28.7947H29.0165L29.1939 22.1429H29.3714H29.5488L29.6819 22.1875H29.7706L29.9037 22.2322H29.9924H30.0812L30.1699 22.2768H30.2143H30.303L29.8594 24.1964Z" fill="white"/>
<path d="M29.8594 24.1964H29.7706L29.6376 24.1518H29.5488H29.4158L29.327 24.1072H29.1939L29.1052 24.0625H28.9721H28.8834L28.7503 24.0179H28.5729H28.4398H28.2624H28.0406L27.8187 24.0625H27.5969L27.4195 24.1072H27.2864L27.109 24.1518L27.0202 24.1964L26.8872 24.2857L26.7541 24.3304L26.7097 24.4197L26.621 24.5089L26.5766 24.5982L26.5323 24.6875L26.4879 24.7768V24.9107L26.5323 25L26.5766 25.0893L26.621 25.2232L26.7097 25.3125L26.8872 25.4911L27.0646 25.625L27.3308 25.7143L27.5526 25.8036L27.8187 25.8929L28.1293 25.9822L28.3954 26.1161L28.6616 26.2054L28.9278 26.3393L29.1496 26.5179L29.3714 26.7411L29.5488 27.0089L29.6819 27.3214L29.7263 27.6786L29.7706 28.1697L29.7263 28.7054L29.6819 29.0625L29.5932 29.4197L29.4601 29.7322L29.2827 30.0447L29.1052 30.2679L28.8834 30.4911L28.6616 30.6697L28.3954 30.8036L28.1293 30.9375L27.8187 31.0714L27.5526 31.1607L27.2421 31.2054L26.9759 31.25L26.7097 31.2947H26.4435H26.1774H25.8225H25.4676H25.1571H24.8909H24.6247L24.4029 31.25H24.2255H24.0037L23.8706 31.2054L23.6931 31.1607H23.5157L23.3826 31.1161L23.2495 31.0714L23.1164 31.0268L22.9834 30.9822L22.8503 30.9375L23.2052 29.0625H23.2939L23.3826 29.1072L23.5157 29.1518H23.6488L23.7819 29.1964L23.9593 29.2411L24.1368 29.2857L24.3586 29.3304H24.536L24.7578 29.375L24.9796 29.4197H25.2458L25.4676 29.4643H25.7338H25.9556H26.2217L26.4435 29.375L26.621 29.3304L26.7984 29.2411L26.8872 29.1072L26.9759 28.9732L27.0646 28.8393L27.109 28.7054L27.1533 28.6161V28.3482L27.0646 28.125L26.9315 27.9911L26.7097 27.8125L26.4879 27.7232L26.1774 27.5893L25.8669 27.4554L25.512 27.3214L25.2014 27.1875L24.8909 27.0089L24.5804 26.7857L24.3142 26.5179L24.0924 26.2054L23.9593 25.8036L23.8706 25.3572V24.8214L23.915 24.5089L24.0037 24.1964L24.048 23.8839L24.1811 23.6161L24.3142 23.3929L24.4473 23.1697L24.6247 22.9464L24.8465 22.7679L25.0683 22.5893L25.3345 22.4554L25.645 22.3214L25.9999 22.2322L26.3548 22.1875L26.7541 22.0982L27.2421 22.0536H27.73H28.0406H28.3067L28.5729 22.0982H28.7947H29.0165L29.1939 22.1429H29.3714H29.5488L29.6819 22.1875H29.7706L29.9037 22.2322H29.9924H30.0812L30.1699 22.2768H30.2143H30.303L29.8594 24.1964Z" stroke="white" stroke-width="0.216" stroke-miterlimit="2.6131"/>
<path fill-rule="evenodd" clip-rule="evenodd" d="M31.8556 20.2231H34.1624L33.8519 22.2321H35.2271L34.9165 24.1517L33.4526 24.1071L32.6541 28.7946V28.9731L32.6985 29.1071L32.7872 29.241L32.8759 29.3303L33.0534 29.3749L33.1864 29.4196L33.3639 29.4642H33.5857H33.7631H33.9406L34.0737 29.4196H34.2068L34.3398 29.3749L34.3842 29.3303H34.4729L34.1624 30.8928L34.118 30.9374L34.0737 30.9821H33.9849L33.9406 31.0267L33.8962 31.0714H33.8075L33.7631 31.116H33.6744L33.5857 31.1606H33.497L33.4082 31.2053H33.3195H33.1864L33.0534 31.2499H32.9203H32.7872H32.1661H31.8112L31.5451 31.2053L31.2345 31.1606L31.0127 31.116L30.8353 31.0267L30.6578 30.9374L30.5248 30.8481L30.436 30.7142L30.3473 30.6249L30.303 30.491L30.2586 30.3124L30.2142 30.1785V29.9999V29.8214V29.5981L30.2586 29.4196L31.8556 20.2231Z" fill="white"/>
<path d="M31.8556 20.2231H34.1624L33.8519 22.2321H35.2271L34.9165 24.1517L33.4526 24.1071L32.6541 28.7946V28.9731L32.6985 29.1071L32.7872 29.241L32.8759 29.3303L33.0534 29.3749L33.1864 29.4196L33.3639 29.4642H33.5857H33.7631H33.9406L34.0737 29.4196H34.2068L34.3398 29.3749L34.3842 29.3303H34.4729L34.1624 30.8928L34.118 30.9374L34.0737 30.9821H33.9849L33.9406 31.0267L33.8962 31.0714H33.8075L33.7631 31.116H33.6744L33.5857 31.1606H33.497L33.4082 31.2053H33.3195H33.1864L33.0534 31.2499H32.9203H32.7872H32.1661H31.8112L31.5451 31.2053L31.2345 31.1606L31.0127 31.116L30.8353 31.0267L30.6578 30.9374L30.5248 30.8481L30.436 30.7142L30.3473 30.6249L30.303 30.491L30.2586 30.3124L30.2142 30.1785V29.9999V29.8214V29.5981L30.2586 29.4196L31.8556 20.2231Z" stroke="white" stroke-width="0.216" stroke-miterlimit="2.6131"/>
<path fill-rule="evenodd" clip-rule="evenodd" d="M37.0902 27.3214L37.0459 27.4554V27.6339L37.0902 27.7679V27.9464L37.179 28.0804L37.2233 28.2589L37.312 28.3929L37.4008 28.5714L37.5338 28.7054L37.6669 28.8393L37.8 28.9732L37.9331 29.0625L38.1105 29.1518L38.288 29.2411L38.4211 29.2857L38.5985 29.3304H38.8203L39.0421 29.375L39.2639 29.4197H39.4857H39.6632H39.9294H40.1068H40.373L40.5948 29.375L40.8166 29.3304L41.0384 29.2857L41.2602 29.1964L41.482 29.1072L41.7482 29.0179L41.97 28.8839L42.2362 28.7054L41.8813 30.8036L41.7482 30.8482L41.6151 30.9375L41.482 30.9822L41.3489 31.0268L41.2158 31.0714L41.0828 31.1161L40.9497 31.1607H40.8166L40.6835 31.2054H40.5061L40.3286 31.25H40.1512H39.9294H39.7076H39.4414H39.1752H38.7316L38.3324 31.2054L37.8887 31.1607L37.4895 31.0714L37.0902 30.9375L36.691 30.7589L36.2917 30.5804L35.9368 30.3125L35.6263 30.0447L35.3601 29.6875L35.094 29.2857L34.9165 28.8393L34.7391 28.3482L34.6504 27.7679V27.1875L34.6947 26.4732V26.2054L34.7834 25.8929L34.8278 25.5804L34.9165 25.2232L35.0496 24.8661L35.1827 24.4643L35.4045 24.1072L35.6263 23.75L35.8925 23.4375L36.203 23.0804L36.6023 22.8125L37.0015 22.5447L37.4895 22.3661L38.0218 22.1875L38.6429 22.0982L39.3083 22.0536H39.6632L39.9737 22.0982L40.3286 22.1875L40.6835 22.2322L41.0384 22.3661L41.3489 22.5447L41.6595 22.7232L41.9256 22.9464L42.1918 23.2589L42.3692 23.5714L42.5467 23.9732L42.6798 24.4197L42.7241 24.9107V25.4911L42.6798 26.1607L42.5467 26.875L42.5023 27.3661H36.4248L36.7797 25.7143H40.4617V25.4911V25.3125V25.0893L40.4173 24.9554L40.373 24.7768L40.2843 24.6429L40.2399 24.5089L40.1512 24.375L40.0181 24.2857L39.9294 24.1964L39.7963 24.1518L39.6632 24.0625L39.5301 24.0179L39.397 23.9732H39.2639L39.1309 23.9286H38.9534L38.8203 23.9732L38.6429 24.0179L38.5098 24.0625L38.3767 24.1072L38.2436 24.1964L38.1105 24.2857L38.0218 24.375L37.8887 24.5089L37.8 24.6429L37.7113 24.7768L37.6226 24.9107L37.5782 25.0447L37.4895 25.2232L37.4451 25.4018L37.4008 25.5804L37.0902 27.3214Z" fill="white"/>
<path d="M37.0902 27.3214L37.0459 27.4554V27.6339L37.0902 27.7679V27.9464L37.179 28.0804L37.2233 28.2589L37.312 28.3929L37.4008 28.5714L37.5338 28.7054L37.6669 28.8393L37.8 28.9732L37.9331 29.0625L38.1105 29.1518L38.288 29.2411L38.4211 29.2857L38.5985 29.3304H38.8203L39.0421 29.375L39.2639 29.4197H39.4857H39.6632H39.9294H40.1068H40.373L40.5948 29.375L40.8166 29.3304L41.0384 29.2857L41.2602 29.1964L41.482 29.1072L41.7482 29.0179L41.97 28.8839L42.2362 28.7054L41.8813 30.8036L41.7482 30.8482L41.6151 30.9375L41.482 30.9822L41.3489 31.0268L41.2158 31.0714L41.0828 31.1161L40.9497 31.1607H40.8166L40.6835 31.2054H40.5061L40.3286 31.25H40.1512H39.9294H39.7076H39.4414H39.1752H38.7316L38.3324 31.2054L37.8887 31.1607L37.4895 31.0714L37.0902 30.9375L36.691 30.7589L36.2917 30.5804L35.9368 30.3125L35.6263 30.0447L35.3601 29.6875L35.094 29.2857L34.9165 28.8393L34.7391 28.3482L34.6504 27.7679V27.1875L34.6947 26.4732V26.2054L34.7834 25.8929L34.8278 25.5804L34.9165 25.2232L35.0496 24.8661L35.1827 24.4643L35.4045 24.1072L35.6263 23.75L35.8925 23.4375L36.203 23.0804L36.6023 22.8125L37.0015 22.5447L37.4895 22.3661L38.0218 22.1875L38.6429 22.0982L39.3083 22.0536H39.6632L39.9737 22.0982L40.3286 22.1875L40.6835 22.2322L41.0384 22.3661L41.3489 22.5447L41.6595 22.7232L41.9256 22.9464L42.1918 23.2589L42.3692 23.5714L42.5467 23.9732L42.6798 24.4197L42.7241 24.9107V25.4911L42.6798 26.1607L42.5467 26.875L42.5023 27.3661H36.4248L36.7797 25.7143H40.4617V25.4911V25.3125V25.0893L40.4173 24.9554L40.373 24.7768L40.2843 24.6429L40.2399 24.5089L40.1512 24.375L40.0181 24.2857L39.9294 24.1964L39.7963 24.1518L39.6632 24.0625L39.5301 24.0179L39.397 23.9732H39.2639L39.1309 23.9286H38.9534L38.8203 23.9732L38.6429 24.0179L38.5098 24.0625L38.3767 24.1072L38.2436 24.1964L38.1105 24.2857L38.0218 24.375L37.8887 24.5089L37.8 24.6429L37.7113 24.7768L37.6226 24.9107L37.5782 25.0447L37.4895 25.2232L37.4451 25.4018L37.4008 25.5804L37.0902 27.3214Z" stroke="white" stroke-width="0.216" stroke-miterlimit="2.6131"/>
<path fill-rule="evenodd" clip-rule="evenodd" d="M57.0528 22.7678L56.9641 22.6786L56.831 22.6339L56.7423 22.5893L56.6092 22.5L56.4761 22.4553L56.343 22.4107L56.21 22.3661L56.0325 22.3214L55.8994 22.2768L55.722 22.2321L55.5445 22.1875H55.3671H55.1897L55.0122 22.1428H54.7904H54.5686H54.3912L54.1693 22.1875H53.9475L53.6814 22.2321L53.4596 22.3214L53.2378 22.4107L52.9716 22.5L52.7498 22.6786L52.528 22.8571L52.3062 23.0803L52.0844 23.3482L51.9069 23.6607L51.7295 24.0178L51.552 24.4643L51.3746 24.9107L51.2415 25.4464L51.1971 25.7589L51.1528 26.0714V26.3393V26.6518L51.1971 26.9196L51.2415 27.1875L51.3302 27.4553L51.4189 27.6786L51.552 27.9464L51.6851 28.125L51.8626 28.3482L52.04 28.5268L52.3062 28.6607L52.528 28.7946L52.8385 28.8839L53.149 28.9732L53.2378 29.0178H53.3708L53.5483 29.0625H53.6814H53.9032H54.0806H54.3024H54.4799L54.7017 29.0178L54.9235 28.9732L55.1453 28.9286L55.3671 28.8839L55.5445 28.7946L55.7664 28.6607L55.9438 28.5268L56.0769 28.3928L55.722 30.625L55.6776 30.6696L55.6333 30.7143L55.5445 30.8036L55.4558 30.8482L55.3671 30.8928L55.2784 30.9821L55.1453 31.0268L54.9678 31.0714L54.7904 31.1161L54.5686 31.1607L54.3024 31.2053L54.0363 31.25H53.6814H53.3265H52.8829H52.4393L52.04 31.2053L51.6408 31.1161L51.2859 30.9821L50.8866 30.8036L50.5317 30.625L50.1768 30.3571L49.8219 30.0446L49.5114 29.7321L49.2452 29.3303L49.0234 28.9286L48.8016 28.4375L48.6685 27.9464L48.5355 27.3661V26.7857V26.1161L48.6242 25.4018L48.7129 25.0446L48.7573 24.7321L48.846 24.4196L48.9347 24.1071L49.0234 23.7946L49.1565 23.4821L49.2452 23.2143L49.3783 22.9464L49.5114 22.6786L49.6001 22.4553L49.7776 22.2321L49.9107 22.0089L50.0437 21.7857L50.2212 21.5625L50.3986 21.3839L50.5761 21.2053L50.7535 21.0714L50.9753 20.8928L51.1528 20.7589L51.3746 20.625L51.5964 20.4911L51.8182 20.3571L52.04 20.2678L52.3062 20.1786L52.5723 20.0893L52.8385 20.0446L53.1047 19.9553L53.3708 19.9107L53.6814 19.8661H53.9475L54.2581 19.8214H54.5686H54.8348L55.1009 19.8661H55.3671L55.6333 19.9107L55.8551 19.9553L56.0769 20L56.2987 20.0446L56.4761 20.0893L56.6979 20.1339L56.831 20.1786L57.0085 20.2232L57.1415 20.2678L57.2746 20.3125L57.3634 20.3571L57.4521 20.4018H57.4964L57.0528 22.7678Z" fill="white"/>
<path d="M57.0528 22.7678L56.9641 22.6786L56.831 22.6339L56.7423 22.5893L56.6092 22.5L56.4761 22.4553L56.343 22.4107L56.21 22.3661L56.0325 22.3214L55.8994 22.2768L55.722 22.2321L55.5445 22.1875H55.3671H55.1897L55.0122 22.1428H54.7904H54.5686H54.3912L54.1693 22.1875H53.9475L53.6814 22.2321L53.4596 22.3214L53.2378 22.4107L52.9716 22.5L52.7498 22.6786L52.528 22.8571L52.3062 23.0803L52.0844 23.3482L51.9069 23.6607L51.7295 24.0178L51.552 24.4643L51.3746 24.9107L51.2415 25.4464L51.1971 25.7589L51.1528 26.0714V26.3393V26.6518L51.1971 26.9196L51.2415 27.1875L51.3302 27.4553L51.4189 27.6786L51.552 27.9464L51.6851 28.125L51.8626 28.3482L52.04 28.5268L52.3062 28.6607L52.528 28.7946L52.8385 28.8839L53.149 28.9732L53.2378 29.0178H53.3708L53.5483 29.0625H53.6814H53.9032H54.0806H54.3024H54.4799L54.7017 29.0178L54.9235 28.9732L55.1453 28.9286L55.3671 28.8839L55.5445 28.7946L55.7664 28.6607L55.9438 28.5268L56.0769 28.3928L55.722 30.625L55.6776 30.6696L55.6333 30.7143L55.5445 30.8036L55.4558 30.8482L55.3671 30.8928L55.2784 30.9821L55.1453 31.0268L54.9678 31.0714L54.7904 31.1161L54.5686 31.1607L54.3024 31.2053L54.0363 31.25H53.6814H53.3265H52.8829H52.4393L52.04 31.2053L51.6408 31.1161L51.2859 30.9821L50.8866 30.8036L50.5317 30.625L50.1768 30.3571L49.8219 30.0446L49.5114 29.7321L49.2452 29.3303L49.0234 28.9286L48.8016 28.4375L48.6685 27.9464L48.5355 27.3661V26.7857V26.1161L48.6242 25.4018L48.7129 25.0446L48.7573 24.7321L48.846 24.4196L48.9347 24.1071L49.0234 23.7946L49.1565 23.4821L49.2452 23.2143L49.3783 22.9464L49.5114 22.6786L49.6001 22.4553L49.7776 22.2321L49.9107 22.0089L50.0437 21.7857L50.2212 21.5625L50.3986 21.3839L50.5761 21.2053L50.7535 21.0714L50.9753 20.8928L51.1528 20.7589L51.3746 20.625L51.5964 20.4911L51.8182 20.3571L52.04 20.2678L52.3062 20.1786L52.5723 20.0893L52.8385 20.0446L53.1047 19.9553L53.3708 19.9107L53.6814 19.8661H53.9475L54.2581 19.8214H54.5686H54.8348L55.1009 19.8661H55.3671L55.6333 19.9107L55.8551 19.9553L56.0769 20L56.2987 20.0446L56.4761 20.0893L56.6979 20.1339L56.831 20.1786L57.0085 20.2232L57.1415 20.2678L57.2746 20.3125L57.3634 20.3571L57.4521 20.4018H57.4964L57.0528 22.7678Z" stroke="white" stroke-width="0.216" stroke-miterlimit="2.6131"/>
<path fill-rule="evenodd" clip-rule="evenodd" d="M77.6808 31.2499H75.374L75.5515 30.3571V30.2678L75.4184 30.4017L75.2853 30.5803L75.1079 30.7142L74.9748 30.8035L74.8417 30.9374L74.6643 31.0267L74.5312 31.116L74.3537 31.1606L74.2206 31.2499L74.0432 31.2946L73.8658 31.3392H73.7327L73.5552 31.3839H73.3778H73.2003H73.0673H72.6236L72.2244 31.2499L71.8695 31.116L71.5146 30.9374L71.2041 30.6696L70.9379 30.4017L70.7161 30.0892L70.4943 29.7321L70.3612 29.3749L70.2281 28.9731L70.095 28.5267L70.0507 28.1249L70.0063 27.6785L70.0507 27.2321V26.8303L70.1394 26.3839L70.2725 25.8928L70.4056 25.4017L70.583 24.9999L70.8048 24.5981L71.0266 24.1964L71.2928 23.8839L71.559 23.5714L71.8251 23.3035L72.0913 23.0356L72.4018 22.8124L72.7567 22.6339L73.0673 22.4999L73.3778 22.366L73.7327 22.3214L74.0432 22.2767L74.3981 22.2321H74.6643L74.8861 22.2767L75.1079 22.3214L75.2853 22.366L75.5071 22.4553L75.6402 22.4999L75.8177 22.6339L75.9951 22.7231L76.1282 22.8124L76.2169 22.9017L76.35 23.0356L76.4387 23.1249L76.5274 23.2589L76.6162 23.3481L76.6605 23.4374L76.7049 23.5714L77.3259 20.2231H79.5884L77.6808 31.2499Z" fill="white"/>
<path d="M77.6808 31.2499H75.374L75.5515 30.3571V30.2678L75.4184 30.4017L75.2853 30.5803L75.1079 30.7142L74.9748 30.8035L74.8417 30.9374L74.6643 31.0267L74.5312 31.116L74.3537 31.1606L74.2206 31.2499L74.0432 31.2946L73.8658 31.3392H73.7327L73.5552 31.3839H73.3778H73.2003H73.0673H72.6236L72.2244 31.2499L71.8695 31.116L71.5146 30.9374L71.2041 30.6696L70.9379 30.4017L70.7161 30.0892L70.4943 29.7321L70.3612 29.3749L70.2281 28.9731L70.095 28.5267L70.0507 28.1249L70.0063 27.6785L70.0507 27.2321V26.8303L70.1394 26.3839L70.2725 25.8928L70.4056 25.4017L70.583 24.9999L70.8048 24.5981L71.0266 24.1964L71.2928 23.8839L71.559 23.5714L71.8251 23.3035L72.0913 23.0356L72.4018 22.8124L72.7567 22.6339L73.0673 22.4999L73.3778 22.366L73.7327 22.3214L74.0432 22.2767L74.3981 22.2321H74.6643L74.8861 22.2767L75.1079 22.3214L75.2853 22.366L75.5071 22.4553L75.6402 22.4999L75.8177 22.6339L75.9951 22.7231L76.1282 22.8124L76.2169 22.9017L76.35 23.0356L76.4387 23.1249L76.5274 23.2589L76.6162 23.3481L76.6605 23.4374L76.7049 23.5714L77.3259 20.2231H79.5884L77.6808 31.2499Z" stroke="white" stroke-width="0.216" stroke-miterlimit="2.6131"/>
<path fill-rule="evenodd" clip-rule="evenodd" d="M73.9101 29.2411L74.1319 29.1965L74.3537 29.1518L74.5755 29.1072L74.753 29.0179L74.9304 28.9286L75.1079 28.7947L75.241 28.6608L75.374 28.4822L75.5071 28.3036L75.6402 28.1251L75.7289 27.9465L75.8177 27.7233L75.9064 27.5447L75.9951 27.3215L76.0395 27.0983L76.0838 26.8751L76.1282 26.6072L76.1726 26.384V26.1608L76.1282 25.8929V25.6697L76.0838 25.4911L76.0395 25.2679L75.9507 25.0893L75.862 24.9108L75.7733 24.7322L75.6846 24.5983L75.5515 24.509L75.4184 24.4197L75.241 24.3304L75.1079 24.2858H74.9304H74.7086L74.4868 24.3304L74.265 24.3751L74.0876 24.4643L73.9101 24.5983L73.777 24.7322L73.5996 24.8661L73.4665 25.0447L73.3334 25.2233L73.2447 25.4018L73.1116 25.6251L73.0229 25.8036L72.9342 26.0715L72.8898 26.2947L72.8011 26.5179L72.7567 26.7858L72.7124 27.1429L72.7567 27.5447L72.8011 27.9465L72.8898 28.3483L73.0673 28.7054L73.2891 28.9733L73.5552 29.1518L73.9101 29.2411Z" fill="#FCB331"/>
<path fill-rule="evenodd" clip-rule="evenodd" d="M22.451 29.4196L22.0961 31.25H20.0111L20.0555 30.9375L20.0999 30.625L20.1442 30.3571L20.1886 30.2678L20.0555 30.4017L19.9224 30.5357L19.745 30.6696L19.5675 30.7589L19.3901 30.8928L19.1683 30.9821L18.9465 31.0714L18.7247 31.1607L18.5028 31.25L18.2367 31.2946L18.0149 31.3392L17.7487 31.3839L17.5269 31.4285H17.2607L17.0389 31.3839L16.8171 31.3392L16.5066 31.2946L16.2404 31.2053L16.0186 31.0714L15.7968 30.9821L15.6194 30.8035L15.4419 30.6696L15.3088 30.491L15.1758 30.3571L15.087 30.1785L14.9983 30L14.9539 29.7767L14.9096 29.5982L14.8652 29.4196L14.8209 29.241V29.0178V28.8392L14.8652 28.5268L14.9096 28.2143L14.9983 27.9018L15.087 27.6339L15.2201 27.366L15.3532 27.0982L15.5306 26.875L15.7524 26.6518L15.9743 26.4732L16.1961 26.2946L16.4179 26.116L16.684 25.9821L16.9502 25.8928L17.2164 25.8035L17.5269 25.7142L17.7931 25.6696H17.8374H17.8818H17.9262L18.0149 25.625H18.1036H18.2367L18.3698 25.5803H18.5028H18.6359L18.769 25.5357H18.9465H19.0795L19.2126 25.491H19.3457H19.4344H19.5232H19.745H19.9224H20.0999H20.3217L20.4547 25.5357H20.5878H20.6766L20.7209 25.491L20.7653 25.3125L20.8096 25.1339V25L20.7653 24.8214L20.7209 24.6428L20.5878 24.4643L20.4547 24.375L20.3217 24.241L20.1442 24.1518L19.9224 24.1071H19.7006H19.4788H19.2126H18.9465H18.6803H18.4141L18.148 24.1518H17.8818L17.6156 24.1964L17.3938 24.241L17.1276 24.2857L16.9058 24.3303L16.7284 24.375L16.5066 24.4196L16.3735 24.4643L16.2404 24.5089L16.1517 24.5535L16.7728 22.5446L16.9502 22.4553L17.1276 22.4107L17.3495 22.3214L17.5269 22.2768L17.7487 22.2321H17.9705L18.148 22.1875H18.4141L18.6359 22.1428H18.8577H19.1239H19.3901H19.6562H19.9224H20.2329H20.4991L20.7653 22.1875H20.9871L21.2533 22.2768L21.5194 22.3214L21.7856 22.4553L22.0518 22.5446L22.2736 22.7232L22.5397 22.8571L22.7172 23.0357L22.939 23.2589L23.0721 23.4821L23.2051 23.75L23.2939 24.0178L23.3382 24.2857V24.5982L23.2939 24.9553L22.451 29.4196Z" fill="white"/>
<path d="M22.451 29.4196L22.0961 31.25H20.0111L20.0555 30.9375L20.0999 30.625L20.1442 30.3571L20.1886 30.2678L20.0555 30.4017L19.9224 30.5357L19.745 30.6696L19.5675 30.7589L19.3901 30.8928L19.1683 30.9821L18.9465 31.0714L18.7247 31.1607L18.5028 31.25L18.2367 31.2946L18.0149 31.3392L17.7487 31.3839L17.5269 31.4285H17.2607L17.0389 31.3839L16.8171 31.3392L16.5066 31.2946L16.2404 31.2053L16.0186 31.0714L15.7968 30.9821L15.6194 30.8035L15.4419 30.6696L15.3088 30.491L15.1758 30.3571L15.087 30.1785L14.9983 30L14.9539 29.7767L14.9096 29.5982L14.8652 29.4196L14.8209 29.241V29.0178V28.8392L14.8652 28.5268L14.9096 28.2143L14.9983 27.9017L15.087 27.6339L15.2201 27.366L15.3532 27.0982L15.5306 26.875L15.7524 26.6518L15.9743 26.4732L16.1961 26.2946L16.4179 26.116L16.684 25.9821L16.9502 25.8928L17.2164 25.8035L17.5269 25.7142L17.7931 25.6696H17.8374H17.8818H17.9262L18.0149 25.625H18.1036H18.2367L18.3698 25.5803H18.5028H18.6359L18.769 25.5357H18.9465H19.0795L19.2126 25.491H19.3457H19.4344H19.5232H19.745H19.9224H20.0999H20.3217L20.4547 25.5357H20.5878H20.6766L20.7209 25.491L20.7653 25.3125L20.8096 25.1339V25L20.7653 24.8214L20.7209 24.6428L20.5878 24.4643L20.4547 24.375L20.3217 24.241L20.1442 24.1518L19.9224 24.1071H19.7006H19.4788H19.2126H18.9465H18.6803H18.4141L18.148 24.1518H17.8818L17.6156 24.1964L17.3938 24.241L17.1276 24.2857L16.9058 24.3303L16.7284 24.375L16.5066 24.4196L16.3735 24.4643L16.2404 24.5089L16.1517 24.5535L16.7728 22.5446L16.9502 22.4553L17.1276 22.4107L17.3495 22.3214L17.5269 22.2768L17.7487 22.2321H17.9705L18.148 22.1875H18.4141L18.6359 22.1428H18.8577H19.1239H19.3901H19.6562H19.9224H20.2329H20.4991L20.7653 22.1875H20.9871L21.2533 22.2768L21.5194 22.3214L21.7856 22.4553L22.0518 22.5446L22.2736 22.7232L22.5397 22.8571L22.7172 23.0357L22.939 23.2589L23.0721 23.4821L23.2051 23.75L23.2939 24.0178L23.3382 24.2857V24.5982L23.2939 24.9553L22.451 29.4196Z" stroke="white" stroke-width="0.216" stroke-miterlimit="2.6131"/>
<path fill-rule="evenodd" clip-rule="evenodd" d="M20.4104 27.1875V27.1429V27.0982H20.3217L20.2773 27.0536H20.1442H20.0555H19.9224H19.7893H19.6562H19.5232L19.3901 27.0982H19.257L19.1239 27.1429H19.0352L18.9021 27.1875H18.8134L18.769 27.2322H18.6803L18.5916 27.2768L18.5028 27.3214L18.4141 27.3661L18.281 27.4107L18.1923 27.5L18.0592 27.5447L17.9705 27.6339L17.8374 27.7232L17.7487 27.8125L17.66 27.9464L17.5713 28.0357L17.5269 28.1697L17.4382 28.3036V28.4375V28.7054L17.4825 28.9286L17.5713 29.1072L17.66 29.2411L17.7931 29.3304L17.9261 29.375H18.0592L18.1923 29.4197L18.4585 29.375H18.6803L18.9021 29.3304L19.0795 29.2857L19.257 29.2411L19.3901 29.1518L19.5675 29.0625L19.6562 28.9732L19.7893 28.8839L19.878 28.7947L19.9668 28.7054L20.0555 28.6161L20.0999 28.4822L20.1442 28.3929L20.1886 28.3036L20.2329 28.2143L20.2773 27.9464L20.3217 27.6786L20.4104 27.4107V27.1875Z" fill="#ED1C2E"/>
<path fill-rule="evenodd" clip-rule="evenodd" d="M4.83959 31.2499H2.53281L4.44034 20.2231H8.3885L8.78775 26.7856L11.5382 20.2231H15.6638L13.7119 31.2499H11.4494L12.869 22.991H12.7803L9.36445 31.2499H6.79149V30.9374L6.74713 29.9999L6.65841 28.7053L6.56968 27.1874L6.48096 25.6696L6.4366 24.3749L6.34788 23.3928V22.991H6.30352H6.25916H6.21479L4.83959 31.2499Z" fill="white"/>
<path d="M4.83959 31.2499H2.53281L4.44034 20.2231H8.3885L8.78775 26.7856L11.5382 20.2231H15.6638L13.7119 31.2499H11.4494L12.869 22.991H12.7803L9.36445 31.2499H6.79149V30.9374L6.74713 29.9999L6.65841 28.7053L6.56968 27.1874L6.48096 25.6696L6.4366 24.3749L6.34788 23.3928V22.991H6.30352H6.25916H6.21479L4.83959 31.2499Z" stroke="white" stroke-width="0.216" stroke-miterlimit="2.6131"/>
<path fill-rule="evenodd" clip-rule="evenodd" d="M64.0176 29.4196L63.707 31.25H61.5777L61.6221 30.9375V30.625V30.4017V30.3125L61.5333 30.4017L61.4003 30.5357L61.2228 30.6696L61.0897 30.8035L60.9123 30.8928L60.6905 30.9821L60.4687 31.116L60.2912 31.1607L60.0694 31.25L59.8032 31.2946L59.5814 31.3392L59.3596 31.3839L59.0935 31.4285H58.8717L58.6499 31.3839L58.4281 31.3392L58.1175 31.2946L57.8514 31.2053L57.6295 31.0714L57.4077 30.9821L57.2303 30.8035L57.0528 30.6696L56.9198 30.491L56.7867 30.3571L56.698 30.1785L56.6092 30L56.5649 29.7767L56.5205 29.5982L56.4762 29.4196V29.241L56.4318 29.0178V28.8392L56.4762 28.5268L56.5205 28.2143L56.5649 27.9018L56.698 27.6339L56.831 27.366L56.9641 27.0982L57.1416 26.875L57.3634 26.6518L57.5852 26.4732L57.807 26.2946L58.0288 26.116L58.295 25.9821L58.5611 25.8928L58.8273 25.8035L59.0935 25.7142L59.404 25.6696H59.4484H59.4927L59.5814 25.625H59.7145H59.8032L59.9363 25.5803H60.0694H60.2025L60.3799 25.5357H60.513H60.6461L60.7792 25.491H60.9123H61.0454H61.1341H61.3115H61.5333H61.7108H61.8882L62.0657 25.5357H62.1988H62.2431H62.2875L62.3318 25.491V25.3125L62.3762 25.1339V25L62.3318 24.8214L62.2875 24.6428L62.1544 24.4643L62.0657 24.375L61.8882 24.241L61.7108 24.1518L61.5333 24.1071H61.3559H61.0897H60.8679H60.6018H60.3356H60.0251L59.7589 24.1518H59.4927L59.2266 24.1964L59.0048 24.241L58.7386 24.2857L58.5168 24.3303L58.3393 24.375L58.1619 24.4196L57.9844 24.4643L57.8957 24.5089L57.807 24.5535L58.3837 22.5446L58.5611 22.4553L58.7386 22.4107L58.9604 22.3214L59.1378 22.2768L59.3596 22.2321H59.5814L59.8032 22.1875H60.0251L60.2469 22.1428H60.4687H60.7348H61.001H61.2672H61.5333H61.7995H62.0657L62.3318 22.1875H62.5537L62.8198 22.2768L63.086 22.3214L63.3522 22.4553L63.6183 22.5446L63.8845 22.7232L64.1063 22.8571L64.3281 23.0357L64.5055 23.2589L64.683 23.4821L64.8161 23.75L64.9048 24.0178L64.9492 24.2857V24.5982L64.9048 24.9553L64.0176 29.4196Z" fill="white"/>
<path fill-rule="evenodd" clip-rule="evenodd" d="M63.707 31.3393L63.7514 31.2946L64.0619 29.4196L63.9732 29.375L63.6183 31.25L63.707 31.2054V31.3393H63.7514V31.2946L63.707 31.3393Z" fill="white"/>
<path fill-rule="evenodd" clip-rule="evenodd" d="M61.5333 31.25L61.5777 31.3392H63.707V31.2053H61.5777L61.622 31.25H61.5333V31.3392H61.5777L61.5333 31.25Z" fill="white"/>
<path fill-rule="evenodd" clip-rule="evenodd" d="M61.6664 30.3125L61.5777 30.2678V30.4017L61.5333 30.625V30.9375V31.25H61.622L61.6664 30.9375V30.625V30.4017V30.3125L61.5777 30.2678L61.6664 30.3125Z" fill="white"/>
<path fill-rule="evenodd" clip-rule="evenodd" d="M58.428 31.4285H58.6498L58.8717 31.4732H59.0935L59.3596 31.4285H59.5814L59.8476 31.3839L60.0694 31.2946L60.2912 31.25L60.513 31.1607L60.7348 31.0267L60.9123 30.9375L61.0897 30.8035L61.2672 30.7143L61.4446 30.5803L61.5777 30.4464L61.6664 30.3125L61.5777 30.2678L61.489 30.4017L61.3559 30.491L61.2228 30.625L61.0454 30.7589L60.8679 30.8482L60.6905 30.9375L60.4687 31.0267L60.2468 31.116L60.025 31.2053L59.8032 31.25L59.5814 31.2946L59.3596 31.3392H59.0935L58.8717 31.3839L58.6498 31.3392L58.428 31.2946V31.4285Z" fill="white"/>
<path fill-rule="evenodd" clip-rule="evenodd" d="M56.3874 28.8392V29.0178V29.241L56.4318 29.4196L56.4761 29.5982L56.5205 29.8214L56.5648 29.9999L56.6536 30.1785L56.7423 30.3571L56.8754 30.5357L57.0085 30.7142L57.1859 30.8482L57.3633 30.9821L57.5851 31.116L57.8513 31.2499L58.1175 31.3392L58.428 31.4285V31.2946L58.1175 31.2499L57.8513 31.1607L57.6295 31.0267L57.4077 30.9374L57.2303 30.8035L57.0972 30.6249L56.9641 30.491L56.831 30.3124L56.7423 30.1339L56.6536 29.9553L56.6092 29.7767L56.5648 29.5982L56.5205 29.4196V29.241L56.4761 29.0178L56.5205 28.8392H56.3874Z" fill="white"/>
<path fill-rule="evenodd" clip-rule="evenodd" d="M59.404 25.625L59.0934 25.6696L58.8273 25.7589L58.5167 25.8482L58.2506 25.9375L58.0288 26.0714L57.7626 26.25L57.5408 26.4286L57.319 26.6518L57.0972 26.8304L56.9197 27.0982L56.7866 27.3214L56.6536 27.6339L56.5205 27.9018L56.4761 28.2143L56.3874 28.5268V28.8393H56.5205V28.5268L56.5648 28.2143L56.6536 27.9464L56.7423 27.6339L56.8754 27.3661L57.0085 27.1429L57.1859 26.9196L57.3633 26.6964L57.5851 26.5179L57.807 26.3393L58.0731 26.2054L58.3393 26.0714L58.5611 25.9375L58.8273 25.8482L59.0934 25.7589L59.404 25.7143V25.625Z" fill="white"/>
<path fill-rule="evenodd" clip-rule="evenodd" d="M61.1341 25.4464H61.0454H60.9123H60.7792L60.6461 25.4911H60.513H60.3799H60.2025L60.0694 25.5357H59.9363L59.8032 25.5803H59.7145H59.5814H59.4927L59.4484 25.625H59.404V25.7143H59.4484H59.4927L59.5814 25.6696H59.7145H59.8032H59.9363L60.0694 25.625H60.2025L60.3799 25.5803H60.513H60.6461H60.7792L60.9123 25.5357H61.0454H61.1341V25.4464Z" fill="white"/>
<path fill-rule="evenodd" clip-rule="evenodd" d="M62.2431 25.5357L62.2875 25.4911H62.2431H62.1987H62.0657L61.8882 25.4464H61.7108H61.5333H61.3115H61.1341V25.5357H61.3115H61.5333L61.7108 25.5803H61.8882H62.0657H62.1987H62.2431H62.2875L62.3318 25.5357L62.2875 25.5803H62.3318V25.5357H62.2431Z" fill="white"/>
<path fill-rule="evenodd" clip-rule="evenodd" d="M62.3318 25V25.1339L62.2874 25.3125L62.2431 25.4911V25.5357H62.3318L62.3762 25.4911V25.3571L62.4205 25.1339V25H62.3318Z" fill="white"/>
<path fill-rule="evenodd" clip-rule="evenodd" d="M61.3559 24.1518H61.5333L61.7108 24.2411L61.8882 24.2857L62.0213 24.4196L62.11 24.5089L62.2431 24.6429L62.2875 24.8214L62.3318 25H62.4205L62.3762 24.7768L62.3318 24.5982L62.1987 24.4643L62.0656 24.3304L61.9326 24.1964L61.7551 24.1071L61.5333 24.0625H61.3559V24.1518Z" fill="white"/>
<path fill-rule="evenodd" clip-rule="evenodd" d="M57.7182 24.5535L57.807 24.5982L57.8957 24.5535L58.0288 24.5089L58.1618 24.4643L58.3393 24.4196L58.5611 24.375L58.7829 24.3303L59.0047 24.2857L59.2265 24.241L59.4927 24.1964H59.7589L60.025 24.1518H60.3355H60.6017H60.8679H61.0897H61.3559V24.0625H61.0897L60.8679 24.0178H60.6017L60.3355 24.0625H60.025L59.7589 24.1071H59.4927L59.2265 24.1518L59.0047 24.1964L58.7385 24.241L58.5167 24.2857H58.3393L58.1618 24.375L57.9844 24.4196L57.8513 24.4643L57.7626 24.5089L57.8513 24.5982L57.7182 24.5535Z" fill="white"/>
<path fill-rule="evenodd" clip-rule="evenodd" d="M58.3393 22.5V22.5446L57.7182 24.5536L57.8513 24.5982L58.428 22.5446L58.3836 22.5893L58.3393 22.5V22.5446V22.5Z" fill="white"/>
<path fill-rule="evenodd" clip-rule="evenodd" d="M62.0657 22.0982H61.7995L61.5333 22.0536H61.2672H61.001H60.7348L60.4687 22.0982H60.2469H60.025L59.8032 22.1429L59.5371 22.1875H59.3596L59.1378 22.2322L58.916 22.2768L58.7386 22.3214L58.5611 22.4107L58.3393 22.5L58.3837 22.5893L58.5611 22.5L58.7829 22.4554L58.9604 22.3661L59.1378 22.3214H59.3596L59.5814 22.2768L59.8032 22.2322H60.025L60.2469 22.1875H60.4687H60.7348H61.001H61.2672H61.5333H61.7995H62.0657V22.0982Z" fill="white"/>
<path fill-rule="evenodd" clip-rule="evenodd" d="M64.9492 24.9554L64.9935 24.5983V24.2858L64.9492 24.0179L64.8604 23.7054L64.7273 23.4376L64.5499 23.2143L64.3281 22.9911L64.1506 22.8126L63.8845 22.6786L63.6627 22.5001L63.3965 22.4108L63.1303 22.2768L62.8198 22.2322L62.598 22.1429L62.3318 22.0983H62.0657V22.1876L62.3318 22.2322L62.5536 22.2768L62.8198 22.3215L63.086 22.4108L63.3521 22.5001L63.574 22.634L63.8401 22.7679L64.0619 22.9018L64.2837 23.0804L64.4612 23.3036L64.6386 23.5268L64.7717 23.7501L64.8604 24.0179L64.9048 24.2858V24.5983L64.8604 24.9554H64.9492Z" fill="white"/>
<path fill-rule="evenodd" clip-rule="evenodd" d="M64.0619 29.4196L64.9492 24.9553H64.8604L63.9732 29.375L64.0619 29.4196Z" fill="white"/>
<path fill-rule="evenodd" clip-rule="evenodd" d="M62.0213 27.1875L61.9769 27.1429L61.9326 27.0982H61.8882L61.7995 27.0536H61.7108H61.622H61.4889H61.3559H61.2228L61.0897 27.0982H60.9566H60.8235L60.6904 27.1429H60.6017L60.4686 27.1875H60.4243H60.3356L60.2912 27.2322L60.2025 27.2768H60.1137L59.9807 27.3214L59.8919 27.4107L59.7589 27.4554L59.6701 27.5447L59.537 27.5893L59.4483 27.6786L59.3596 27.7679L59.2709 27.9018L59.1822 28.0357L59.1378 28.125L59.0934 28.2589L59.0491 28.4375V28.7054L59.0934 28.9286L59.1378 29.1072L59.2709 29.2411L59.3596 29.3304L59.537 29.375H59.6701L59.8032 29.4197L60.0694 29.375H60.2912L60.513 29.3304L60.6904 29.2857L60.8679 29.1964L61.0453 29.1072L61.1784 29.0179L61.3559 28.9286L61.4446 28.8393L61.5333 28.75L61.622 28.6161L61.7108 28.5268L61.7995 28.4375V28.3036L61.8438 28.2143L61.8882 28.125L61.9326 27.9018V27.6339L61.9769 27.4107L62.0213 27.1875Z" fill="#FCB331"/>
<path fill-rule="evenodd" clip-rule="evenodd" d="M79.2778 30.134V29.9108L79.3666 29.6876L79.4553 29.509L79.5884 29.3304L79.7658 29.1518L79.9876 29.0626L80.2094 29.0179L80.4312 28.9733L80.653 29.0179L80.8748 29.0626L81.0966 29.1518L81.2741 29.3304L81.4072 29.509L81.5403 29.6876L81.5846 29.9108L81.629 30.134H81.3628V29.9554L81.3185 29.7768L81.2297 29.5983L81.0966 29.4643L80.9636 29.3304L80.8305 29.2858L80.6087 29.1965H80.4312H80.2538L80.0763 29.2858L79.8989 29.3304L79.7658 29.4643L79.6771 29.5983L79.5884 29.7768L79.544 29.9554L79.4996 30.134H79.2778Z" fill="white"/>
<path fill-rule="evenodd" clip-rule="evenodd" d="M80.032 30.1339V29.5981H80.4756H80.5643L80.653 29.6428H80.7418L80.7861 29.6874L80.8305 29.7321L80.8748 29.7767V29.866V29.9106V29.9999V30.0446L80.8305 30.0892V30.1339H80.4756L80.52 30.0892H80.5643H80.6087L80.653 30.0446H80.6974V29.9999L80.7418 29.9553V29.9106V29.866L80.6974 29.8214H80.653L80.6087 29.7767H80.5643H80.52H80.4756H80.2094V30.1339H80.032Z" fill="white"/>
<path fill-rule="evenodd" clip-rule="evenodd" d="M79.2779 30.1339L79.2335 30.1786L79.2779 30.4018L79.3666 30.625L79.4553 30.8482L79.5884 31.0268L79.7658 31.1607L79.9876 31.25L80.2094 31.3393H80.4312H80.653L80.8749 31.25L81.0967 31.1607L81.2741 31.0268L81.4072 30.8482L81.5403 30.625L81.5846 30.4018L81.629 30.1786V30.1339H81.3628V30.1786V30.3571L81.3185 30.5357L81.2297 30.7143L81.0967 30.8482L80.9636 30.9821L80.8305 31.0714L80.6087 31.1161L80.4312 31.1607L80.2538 31.1161L80.0764 31.0714L79.8989 30.9821L79.7658 30.8482L79.6771 30.7143L79.5884 30.5357L79.544 30.3571L79.4997 30.1786V30.1339H79.2779Z" fill="white"/>
<path fill-rule="evenodd" clip-rule="evenodd" d="M80.032 30.1339V30.625H80.2094V30.2232H80.4312L80.6974 30.625H80.8748L80.6087 30.2232H80.653L80.7418 30.1786H80.7861L80.8305 30.1339H80.4756H80.4312H80.2094H80.032Z" fill="white"/>
<path d="M79.2335 30.1786L79.2779 29.9554L79.3666 29.7322L79.4997 29.509L79.6327 29.3304L79.8102 29.1965L80.032 29.1072L80.2538 29.0179L80.4756 28.9733L80.6974 29.0179L80.9192 29.1072L81.141 29.1965L81.3185 29.3304L81.4516 29.509L81.5846 29.7322L81.6734 29.9554L81.7177 30.1786L81.6734 30.4018L81.5846 30.6251L81.4516 30.8483L81.3185 31.0268L81.141 31.1608L80.9192 31.2501L80.6974 31.3393L80.4756 31.384L80.2538 31.3393L80.032 31.2501L79.8102 31.1608L79.6327 31.0268L79.4997 30.8483L79.3666 30.6251L79.2779 30.4018L79.2335 30.1786ZM80.2094 30.6251H80.032V29.5983H80.4756H80.5643H80.653L80.7418 29.6429L80.7861 29.6876L80.8305 29.7322L80.8749 29.7768V29.8215V29.8661V29.9554V30.0001L80.8305 30.0447L80.7861 30.0893L80.7418 30.134H80.6974H80.653H80.6087L80.8749 30.5358H80.6974L80.4312 30.134H80.2094V30.6251V30.6251ZM80.4312 30.134H80.52H80.5643H80.6087H80.653L80.6974 30.0893V30.0447V30.0001V29.9108V29.8661V29.8215H80.653H80.6087H80.5643H80.52H80.4756H80.2094V30.1786H80.4312V30.134ZM80.4312 31.1608H80.6087L80.7861 31.1161L80.9636 31.0268L81.0967 30.8929L81.1854 30.759L81.2741 30.5804L81.3628 30.3572V30.134V29.9108L81.3185 29.7322L81.2297 29.5536L81.141 29.4197L81.0079 29.2858L80.8305 29.1965L80.653 29.1518H80.4756H80.2982L80.1207 29.1965L79.9433 29.2858L79.8102 29.4197L79.7215 29.5536L79.6327 29.7322L79.5884 29.9108V30.134V30.3572L79.6327 30.5358L79.7215 30.7143L79.8102 30.8483L79.9433 30.9822L80.1207 31.0715L80.2982 31.1161L80.4312 31.1608Z" stroke="white" stroke-width="0.216" stroke-miterlimit="2.6131"/>
<path fill-rule="evenodd" clip-rule="evenodd" d="M64.6386 31.25H67.0341L67.877 26.4732L67.9213 26.2946L67.9657 26.116L68.0101 25.9375L68.0544 25.7143L68.1431 25.5357L68.2762 25.3571L68.365 25.2232L68.498 25.0446L68.6311 24.9107L68.8086 24.7768L69.0304 24.6428L69.2078 24.5535L69.474 24.4643L69.7402 24.375L70.0507 24.3303H70.3612H70.4943H70.5387H70.583L70.9379 22.1428L70.7161 22.1875H70.4943L70.2725 22.2321L70.0507 22.2768L69.8732 22.366L69.6958 22.4553L69.5627 22.5446L69.3853 22.6339L69.2522 22.7678L69.0747 22.8571L68.9417 22.991L68.8086 23.125L68.7198 23.3035L68.5868 23.4375L68.4537 23.616L68.3206 23.75L68.5868 22.2321H66.2356L64.6386 31.25Z" fill="white"/>
<path d="M64.6386 31.25H67.0341L67.877 26.4732L67.9213 26.2946L67.9657 26.116L68.0101 25.9375L68.0544 25.7143L68.1431 25.5357L68.2762 25.3571L68.365 25.2232L68.498 25.0446L68.6311 24.9107L68.8086 24.7768L69.0304 24.6428L69.2078 24.5535L69.474 24.4643L69.7402 24.375L70.0507 24.3303H70.3612H70.4943H70.5387H70.583L70.9379 22.1428L70.7161 22.1875H70.4943L70.2725 22.2321L70.0507 22.2768L69.8732 22.366L69.6958 22.4553L69.5627 22.5446L69.3853 22.6339L69.2522 22.7678L69.0747 22.8571L68.9417 22.991L68.8086 23.125L68.7198 23.3035L68.5868 23.4375L68.4537 23.616L68.3206 23.75L68.5868 22.2321H66.2356L64.6386 31.25Z" stroke="white" stroke-width="0.216" stroke-miterlimit="2.6131"/>
<path fill-rule="evenodd" clip-rule="evenodd" d="M42.458 31.25H44.8535H44.8978L45.6963 26.4732V26.2946L45.7407 26.116L45.7851 25.9375L45.8738 25.7589L45.9182 25.5803L46.0069 25.4464L46.0956 25.2678L46.2287 25.1339L46.3618 25L46.4949 24.9107L46.7167 24.7768L46.8941 24.6875L47.1159 24.5982L47.3821 24.5535L47.6926 24.5089L48.0031 24.4643H48.0475V24.5089H48.0919H48.1362H48.1806H48.2249H48.2693V24.375L48.3137 24.241L48.358 24.0625L48.4024 23.8393L48.4911 23.616L48.5355 23.3482L48.6242 23.125L48.7129 22.9464L48.8016 22.8125L48.846 22.6339L48.9347 22.5L49.0234 22.366L49.0678 22.2768L49.1122 22.2321L49.1565 22.1875H49.1122H49.0678H48.9791H48.9347L48.8904 22.1428H48.8016H48.7573L48.4911 22.1875H48.2693L48.0475 22.2321L47.8257 22.2768L47.6482 22.366L47.4708 22.4553L47.3377 22.5L47.1603 22.6339L47.0272 22.7232L46.8941 22.8571L46.761 22.991L46.6279 23.125L46.4949 23.2589L46.4061 23.4375L46.273 23.616L46.14 23.75L46.4505 22.2321H44.055L42.458 31.25Z" fill="white"/>
<path d="M42.458 31.25H44.8535H44.8978L45.6963 26.4732V26.2946L45.7407 26.116L45.7851 25.9375L45.8738 25.7589L45.9182 25.5803L46.0069 25.4464L46.0956 25.2678L46.2287 25.1339L46.3618 25L46.4949 24.9107L46.7167 24.7768L46.8941 24.6875L47.1159 24.5982L47.3821 24.5535L47.6926 24.5089L48.0031 24.4643H48.0475V24.5089H48.0919H48.1362H48.1806H48.2249H48.2693V24.375L48.3137 24.241L48.358 24.0625L48.4024 23.8393L48.4911 23.616L48.5355 23.3482L48.6242 23.125L48.7129 22.9464L48.8016 22.8125L48.846 22.6339L48.9347 22.5L49.0234 22.366L49.0678 22.2768L49.1122 22.2321L49.1565 22.1875H49.1122H49.0678H48.9791H48.9347L48.8904 22.1428H48.8016H48.7573L48.4911 22.1875H48.2693L48.0475 22.2321L47.8257 22.2768L47.6482 22.366L47.4708 22.4553L47.3377 22.5L47.1603 22.6339L47.0272 22.7232L46.8941 22.8571L46.761 22.991L46.6279 23.125L46.4949 23.2589L46.4061 23.4375L46.273 23.616L46.14 23.75L46.4505 22.2321H44.055L42.458 31.25Z" stroke="white" stroke-width="0.216" stroke-miterlimit="2.6131"/>
<path fill-rule="evenodd" clip-rule="evenodd" d="M79.2778 40.1339V40.0893L79.3666 39.9107L79.4553 39.6875L79.5884 39.5089L79.7658 39.375L79.9876 39.2857L80.2094 39.2411L80.4312 39.1964L80.653 39.2411L80.8748 39.2857L81.0966 39.375L81.2741 39.5089L81.4072 39.6875L81.5403 39.9107L81.5846 40.0893V40.1339H81.3628L81.3185 39.9553L81.2297 39.8214L81.0966 39.6428L80.9636 39.5536L80.8305 39.4643L80.6087 39.375H80.4312H80.2538L80.0763 39.4643L79.8989 39.5536L79.7658 39.6428L79.6771 39.8214L79.5884 39.9553L79.544 40.1339H79.2778Z" fill="#FCB331"/>
<path fill-rule="evenodd" clip-rule="evenodd" d="M80.032 40.1339V39.8661H80.4756H80.5643H80.653H80.7418L80.7861 39.9107L80.8305 39.9554L80.8748 40V40.0447V40.1339H80.7418V40.0893V40.0447H80.6974V40H80.653H80.6087L80.5643 39.9554H80.52H80.4756H80.2094V40.1339H80.032Z" fill="#FCB331"/>
<path fill-rule="evenodd" clip-rule="evenodd" d="M79.2335 40.3125L79.2779 40.1339H79.544L79.4997 40.3125H79.2335Z" fill="#FCB331"/>
<path fill-rule="evenodd" clip-rule="evenodd" d="M80.032 40.3125V40.1339H80.2094V40.3125H80.4312H80.52L80.5643 40.2678H80.6087H80.653L80.6974 40.2232V40.1786H80.7418V40.1339H80.8748V40.1786V40.2678L80.8305 40.3125H80.032Z" fill="#FCB331"/>
<path fill-rule="evenodd" clip-rule="evenodd" d="M81.3628 40.3125V40.1339H81.5846L81.629 40.3125H81.3628Z" fill="#FCB331"/>
<path fill-rule="evenodd" clip-rule="evenodd" d="M79.2335 40.3125V40.3571L79.2779 40.5804L79.3666 40.8036L79.4553 41.0268L79.5884 41.2054L79.7658 41.3393L79.9876 41.4286L80.2094 41.5179L80.4312 41.5625L80.653 41.5179L80.8749 41.4286L81.0967 41.3393L81.2741 41.2054L81.4072 41.0268L81.5403 40.8036L81.5846 40.5804L81.629 40.3571V40.3125H81.3628V40.3571V40.5357L81.3185 40.7589L81.2297 40.8929L81.0967 41.0268L80.9636 41.1607L80.8305 41.25L80.6087 41.2946L80.4312 41.3393L80.2538 41.2946L80.0764 41.25L79.8989 41.1607L79.7658 41.0268L79.6771 40.8929L79.5884 40.7589L79.544 40.5357L79.4997 40.3571V40.3125H79.2335Z" fill="#FCB331"/>
<path fill-rule="evenodd" clip-rule="evenodd" d="M80.032 40.3125V40.8036H80.2094V40.4018H80.4312L80.6974 40.8036H80.8748L80.6087 40.4018H80.653L80.7418 40.3571H80.7861L80.8305 40.3125H80.032Z" fill="#FCB331"/>
</g>
<defs>
<clipPath id="clip0_562_68">
<rect width="83" height="50" fill="white" transform="translate(0.181641)"/>
</clipPath>
</defs>
</svg>
