<svg width="257" height="256" viewBox="0 0 257 256" fill="none" xmlns="http://www.w3.org/2000/svg">
<g filter="url(#filter0_bd_575_56)">
<rect x="8.18164" y="2" width="239.853" height="239.853" rx="24" fill="white" fill-opacity="0.55" shape-rendering="crispEdges"/>
<rect x="9.18164" y="3" width="237.853" height="237.853" rx="23" stroke="white" stroke-width="2" shape-rendering="crispEdges"/>
</g>
<path d="M89.425 154.87L84.241 167.062C84.129 167.366 83.953 167.606 83.713 167.782C83.489 167.942 83.241 168.022 82.969 168.022C82.537 168.022 82.217 167.902 82.009 167.662C81.801 167.422 81.697 167.126 81.697 166.774C81.697 166.63 81.721 166.478 81.769 166.318L87.745 151.966C87.873 151.646 88.065 151.398 88.321 151.222C88.593 151.046 88.881 150.974 89.185 151.006C89.473 151.006 89.737 151.094 89.977 151.27C90.233 151.43 90.417 151.662 90.529 151.966L96.433 166.03C96.513 166.238 96.553 166.43 96.553 166.606C96.553 167.038 96.409 167.382 96.121 167.638C95.849 167.894 95.545 168.022 95.209 168.022C94.921 168.022 94.657 167.934 94.417 167.758C94.193 167.582 94.017 167.342 93.889 167.038L88.729 155.014L89.425 154.87ZM84.985 164.134L86.305 161.374H92.785L93.241 164.134H84.985ZM101.465 166.438C101.465 166.854 101.321 167.206 101.033 167.494C100.761 167.766 100.417 167.902 100.001 167.902C99.6012 167.902 99.2652 167.766 98.9932 167.494C98.7212 167.206 98.5852 166.854 98.5852 166.438V151.606C98.5852 151.19 98.7212 150.846 98.9932 150.574C99.2812 150.286 99.6332 150.142 100.049 150.142C100.465 150.142 100.801 150.286 101.057 150.574C101.329 150.846 101.465 151.19 101.465 151.606V166.438ZM107.934 166.438C107.934 166.854 107.79 167.206 107.502 167.494C107.23 167.766 106.886 167.902 106.47 167.902C106.07 167.902 105.734 167.766 105.462 167.494C105.19 167.206 105.054 166.854 105.054 166.438V151.606C105.054 151.19 105.19 150.846 105.462 150.574C105.75 150.286 106.102 150.142 106.518 150.142C106.934 150.142 107.27 150.286 107.526 150.574C107.798 150.846 107.934 151.19 107.934 151.606V166.438ZM123.649 168.142C122.529 168.142 121.521 168.006 120.625 167.734C119.729 167.446 118.873 166.95 118.057 166.246C117.849 166.07 117.689 165.87 117.577 165.646C117.465 165.422 117.409 165.198 117.409 164.974C117.409 164.606 117.537 164.286 117.793 164.014C118.065 163.726 118.401 163.582 118.801 163.582C119.105 163.582 119.377 163.678 119.617 163.87C120.225 164.366 120.825 164.742 121.417 164.998C122.025 165.254 122.769 165.382 123.649 165.382C124.241 165.382 124.785 165.294 125.281 165.118C125.777 164.926 126.177 164.678 126.481 164.374C126.785 164.054 126.937 163.694 126.937 163.294C126.937 162.814 126.793 162.406 126.505 162.07C126.217 161.734 125.777 161.454 125.185 161.23C124.593 160.99 123.841 160.806 122.929 160.678C122.065 160.55 121.305 160.358 120.649 160.102C119.993 159.83 119.441 159.494 118.993 159.094C118.561 158.678 118.233 158.198 118.009 157.654C117.785 157.094 117.673 156.47 117.673 155.782C117.673 154.742 117.937 153.854 118.465 153.118C119.009 152.382 119.737 151.822 120.649 151.438C121.561 151.054 122.569 150.862 123.673 150.862C124.713 150.862 125.673 151.022 126.553 151.342C127.449 151.646 128.177 152.038 128.737 152.518C129.201 152.886 129.433 153.31 129.433 153.79C129.433 154.142 129.297 154.462 129.025 154.75C128.753 155.038 128.433 155.182 128.065 155.182C127.825 155.182 127.609 155.11 127.417 154.966C127.161 154.742 126.817 154.534 126.385 154.342C125.953 154.134 125.497 153.966 125.017 153.838C124.537 153.694 124.089 153.622 123.673 153.622C122.985 153.622 122.401 153.71 121.921 153.886C121.457 154.062 121.105 154.302 120.865 154.606C120.625 154.91 120.505 155.262 120.505 155.662C120.505 156.142 120.641 156.542 120.913 156.862C121.201 157.166 121.609 157.414 122.137 157.606C122.665 157.782 123.297 157.942 124.033 158.086C124.993 158.262 125.833 158.47 126.553 158.71C127.289 158.95 127.897 159.262 128.377 159.646C128.857 160.014 129.217 160.486 129.457 161.062C129.697 161.622 129.817 162.31 129.817 163.126C129.817 164.166 129.529 165.062 128.953 165.814C128.377 166.566 127.617 167.142 126.673 167.542C125.745 167.942 124.737 168.142 123.649 168.142ZM144.786 161.494C144.786 162.806 144.49 163.966 143.898 164.974C143.322 165.966 142.538 166.742 141.546 167.302C140.57 167.862 139.474 168.142 138.258 168.142C137.042 168.142 135.938 167.862 134.946 167.302C133.97 166.742 133.186 165.966 132.594 164.974C132.018 163.966 131.73 162.806 131.73 161.494C131.73 160.182 132.018 159.03 132.594 158.038C133.186 157.03 133.97 156.246 134.946 155.686C135.938 155.11 137.042 154.822 138.258 154.822C139.474 154.822 140.57 155.11 141.546 155.686C142.538 156.246 143.322 157.03 143.898 158.038C144.49 159.03 144.786 160.182 144.786 161.494ZM141.906 161.494C141.906 160.678 141.738 159.974 141.402 159.382C141.082 158.774 140.642 158.302 140.082 157.966C139.538 157.63 138.93 157.462 138.258 157.462C137.586 157.462 136.97 157.63 136.41 157.966C135.866 158.302 135.426 158.774 135.09 159.382C134.77 159.974 134.61 160.678 134.61 161.494C134.61 162.294 134.77 162.998 135.09 163.606C135.426 164.198 135.866 164.662 136.41 164.998C136.97 165.334 137.586 165.502 138.258 165.502C138.93 165.502 139.538 165.334 140.082 164.998C140.642 164.662 141.082 164.198 141.402 163.606C141.738 162.998 141.906 162.294 141.906 161.494ZM153.018 154.822C153.93 154.822 154.722 154.918 155.394 155.11C156.082 155.302 156.61 155.574 156.978 155.926C157.362 156.262 157.554 156.67 157.554 157.15C157.554 157.47 157.458 157.774 157.266 158.062C157.074 158.334 156.794 158.47 156.426 158.47C156.17 158.47 155.954 158.438 155.778 158.374C155.618 158.294 155.474 158.198 155.346 158.086C155.218 157.974 155.066 157.87 154.89 157.774C154.73 157.678 154.482 157.606 154.146 157.558C153.826 157.494 153.586 157.462 153.426 157.462C152.61 157.462 151.914 157.638 151.338 157.99C150.778 158.342 150.346 158.822 150.042 159.43C149.738 160.022 149.586 160.71 149.586 161.494C149.586 162.262 149.738 162.95 150.042 163.558C150.362 164.15 150.794 164.622 151.338 164.974C151.898 165.326 152.538 165.502 153.258 165.502C153.658 165.502 154.002 165.478 154.29 165.43C154.578 165.382 154.818 165.31 155.01 165.214C155.234 165.086 155.434 164.95 155.61 164.806C155.786 164.662 156.05 164.59 156.402 164.59C156.818 164.59 157.138 164.726 157.362 164.998C157.586 165.254 157.698 165.574 157.698 165.958C157.698 166.358 157.474 166.726 157.026 167.062C156.578 167.382 155.986 167.646 155.25 167.854C154.53 168.046 153.746 168.142 152.898 168.142C151.634 168.142 150.538 167.854 149.61 167.278C148.682 166.686 147.962 165.886 147.45 164.878C146.954 163.87 146.706 162.742 146.706 161.494C146.706 160.182 146.97 159.03 147.498 158.038C148.042 157.03 148.786 156.246 149.73 155.686C150.69 155.11 151.786 154.822 153.018 154.822ZM162.487 166.438C162.487 166.854 162.351 167.206 162.079 167.494C161.807 167.766 161.463 167.902 161.047 167.902C160.631 167.902 160.287 167.766 160.015 167.494C159.743 167.206 159.607 166.854 159.607 166.438V156.526C159.607 156.11 159.743 155.766 160.015 155.494C160.287 155.206 160.631 155.062 161.047 155.062C161.463 155.062 161.807 155.206 162.079 155.494C162.351 155.766 162.487 156.11 162.487 156.526V166.438ZM161.023 153.502C160.479 153.502 160.095 153.414 159.871 153.238C159.647 153.062 159.535 152.75 159.535 152.302V151.846C159.535 151.382 159.655 151.07 159.895 150.91C160.151 150.734 160.535 150.646 161.047 150.646C161.607 150.646 161.999 150.734 162.223 150.91C162.447 151.086 162.559 151.398 162.559 151.846V152.302C162.559 152.766 162.439 153.086 162.199 153.262C161.959 153.422 161.567 153.502 161.023 153.502ZM175.959 154.822C176.375 154.822 176.719 154.958 176.991 155.23C177.263 155.502 177.399 155.854 177.399 156.286V166.438C177.399 166.854 177.263 167.206 176.991 167.494C176.719 167.766 176.375 167.902 175.959 167.902C175.543 167.902 175.199 167.766 174.927 167.494C174.655 167.206 174.519 166.854 174.519 166.438V165.262L175.047 165.478C175.047 165.686 174.935 165.942 174.711 166.246C174.487 166.534 174.183 166.822 173.799 167.11C173.415 167.398 172.959 167.646 172.431 167.854C171.919 168.046 171.359 168.142 170.751 168.142C169.647 168.142 168.647 167.862 167.751 167.302C166.855 166.726 166.143 165.942 165.615 164.95C165.103 163.942 164.847 162.79 164.847 161.494C164.847 160.182 165.103 159.03 165.615 158.038C166.143 157.03 166.847 156.246 167.727 155.686C168.607 155.11 169.583 154.822 170.655 154.822C171.343 154.822 171.975 154.926 172.551 155.134C173.127 155.342 173.623 155.606 174.039 155.926C174.471 156.246 174.799 156.574 175.023 156.91C175.263 157.23 175.383 157.502 175.383 157.726L174.519 158.038V156.286C174.519 155.87 174.655 155.526 174.927 155.254C175.199 154.966 175.543 154.822 175.959 154.822ZM171.111 165.502C171.815 165.502 172.431 165.326 172.959 164.974C173.487 164.622 173.895 164.142 174.183 163.534C174.487 162.926 174.639 162.246 174.639 161.494C174.639 160.726 174.487 160.038 174.183 159.43C173.895 158.822 173.487 158.342 172.959 157.99C172.431 157.638 171.815 157.462 171.111 157.462C170.423 157.462 169.815 157.638 169.287 157.99C168.759 158.342 168.343 158.822 168.039 159.43C167.751 160.038 167.607 160.726 167.607 161.494C167.607 162.246 167.751 162.926 168.039 163.534C168.343 164.142 168.759 164.622 169.287 164.974C169.815 165.326 170.423 165.502 171.111 165.502ZM183.637 166.438C183.637 166.854 183.493 167.206 183.205 167.494C182.933 167.766 182.589 167.902 182.173 167.902C181.773 167.902 181.437 167.766 181.165 167.494C180.893 167.206 180.757 166.854 180.757 166.438V151.606C180.757 151.19 180.893 150.846 181.165 150.574C181.453 150.286 181.805 150.142 182.221 150.142C182.637 150.142 182.973 150.286 183.229 150.574C183.501 150.846 183.637 151.19 183.637 151.606V166.438ZM90.943 178.102C91.775 178.102 92.551 178.342 93.271 178.822C94.007 179.302 94.599 179.95 95.047 180.766C95.495 181.582 95.719 182.494 95.719 183.502C95.719 184.494 95.495 185.398 95.047 186.214C94.599 187.03 94.007 187.686 93.271 188.182C92.551 188.662 91.775 188.902 90.943 188.902H86.527L86.767 188.47V193.438C86.767 193.854 86.639 194.206 86.383 194.494C86.127 194.766 85.791 194.902 85.375 194.902C84.975 194.902 84.647 194.766 84.391 194.494C84.135 194.206 84.007 193.854 84.007 193.438V179.566C84.007 179.15 84.143 178.806 84.415 178.534C84.703 178.246 85.055 178.102 85.471 178.102H90.943ZM90.943 186.166C91.247 186.166 91.543 186.038 91.831 185.782C92.119 185.526 92.359 185.198 92.551 184.798C92.743 184.382 92.839 183.95 92.839 183.502C92.839 183.038 92.743 182.606 92.551 182.206C92.359 181.806 92.119 181.486 91.831 181.246C91.543 180.99 91.247 180.862 90.943 180.862H86.479L86.767 180.43V186.55L86.503 186.166H90.943ZM101.348 193.438C101.348 193.854 101.204 194.206 100.916 194.494C100.644 194.766 100.3 194.902 99.884 194.902C99.484 194.902 99.148 194.766 98.876 194.494C98.604 194.206 98.468 193.854 98.468 193.438V178.606C98.468 178.19 98.604 177.846 98.876 177.574C99.164 177.286 99.516 177.142 99.932 177.142C100.348 177.142 100.684 177.286 100.94 177.574C101.212 177.846 101.348 178.19 101.348 178.606V193.438ZM115.209 181.822C115.625 181.822 115.969 181.958 116.241 182.23C116.513 182.502 116.649 182.854 116.649 183.286V193.438C116.649 193.854 116.513 194.206 116.241 194.494C115.969 194.766 115.625 194.902 115.209 194.902C114.793 194.902 114.449 194.766 114.177 194.494C113.905 194.206 113.769 193.854 113.769 193.438V192.262L114.297 192.478C114.297 192.686 114.185 192.942 113.961 193.246C113.737 193.534 113.433 193.822 113.049 194.11C112.665 194.398 112.209 194.646 111.681 194.854C111.169 195.046 110.609 195.142 110.001 195.142C108.897 195.142 107.897 194.862 107.001 194.302C106.105 193.726 105.393 192.942 104.865 191.95C104.353 190.942 104.097 189.79 104.097 188.494C104.097 187.182 104.353 186.03 104.865 185.038C105.393 184.03 106.097 183.246 106.977 182.686C107.857 182.11 108.833 181.822 109.905 181.822C110.593 181.822 111.225 181.926 111.801 182.134C112.377 182.342 112.873 182.606 113.289 182.926C113.721 183.246 114.049 183.574 114.273 183.91C114.513 184.23 114.633 184.502 114.633 184.726L113.769 185.038V183.286C113.769 182.87 113.905 182.526 114.177 182.254C114.449 181.966 114.793 181.822 115.209 181.822ZM110.361 192.502C111.065 192.502 111.681 192.326 112.209 191.974C112.737 191.622 113.145 191.142 113.433 190.534C113.737 189.926 113.889 189.246 113.889 188.494C113.889 187.726 113.737 187.038 113.433 186.43C113.145 185.822 112.737 185.342 112.209 184.99C111.681 184.638 111.065 184.462 110.361 184.462C109.673 184.462 109.065 184.638 108.537 184.99C108.009 185.342 107.593 185.822 107.289 186.43C107.001 187.038 106.857 187.726 106.857 188.494C106.857 189.246 107.001 189.926 107.289 190.534C107.593 191.142 108.009 191.622 108.537 191.974C109.065 192.326 109.673 192.502 110.361 192.502ZM119.911 182.302H125.599C125.983 182.302 126.303 182.43 126.559 182.686C126.815 182.942 126.943 183.262 126.943 183.646C126.943 184.014 126.815 184.326 126.559 184.582C126.303 184.822 125.983 184.942 125.599 184.942H119.911C119.527 184.942 119.207 184.814 118.951 184.558C118.695 184.302 118.567 183.982 118.567 183.598C118.567 183.23 118.695 182.926 118.951 182.686C119.207 182.43 119.527 182.302 119.911 182.302ZM122.479 179.302C122.895 179.302 123.231 179.446 123.487 179.734C123.759 180.006 123.895 180.35 123.895 180.766V191.446C123.895 191.67 123.935 191.854 124.015 191.998C124.111 192.142 124.231 192.246 124.375 192.31C124.535 192.374 124.703 192.406 124.879 192.406C125.071 192.406 125.247 192.374 125.407 192.31C125.567 192.23 125.751 192.19 125.959 192.19C126.183 192.19 126.383 192.294 126.559 192.502C126.751 192.71 126.847 192.998 126.847 193.366C126.847 193.814 126.599 194.182 126.103 194.47C125.623 194.758 125.103 194.902 124.543 194.902C124.207 194.902 123.831 194.878 123.415 194.83C123.015 194.766 122.631 194.63 122.263 194.422C121.911 194.198 121.615 193.862 121.375 193.414C121.135 192.966 121.015 192.35 121.015 191.566V180.766C121.015 180.35 121.151 180.006 121.423 179.734C121.711 179.446 122.063 179.302 122.479 179.302ZM135.578 177.142C135.93 177.142 136.274 177.19 136.61 177.286C136.946 177.382 137.226 177.542 137.45 177.766C137.674 177.974 137.786 178.254 137.786 178.606C137.786 179.006 137.666 179.326 137.426 179.566C137.202 179.79 136.938 179.902 136.634 179.902C136.49 179.902 136.274 179.87 135.986 179.806C135.698 179.726 135.418 179.686 135.146 179.686C134.746 179.686 134.434 179.774 134.21 179.95C134.002 180.126 133.858 180.334 133.778 180.574C133.698 180.798 133.658 180.998 133.658 181.174V193.438C133.658 193.854 133.522 194.206 133.25 194.494C132.978 194.766 132.634 194.902 132.218 194.902C131.802 194.902 131.458 194.766 131.186 194.494C130.914 194.206 130.778 193.854 130.778 193.438V181.198C130.778 180.062 131.178 179.102 131.978 178.318C132.778 177.534 133.978 177.142 135.578 177.142ZM135.842 182.302C136.226 182.302 136.546 182.43 136.802 182.686C137.058 182.926 137.186 183.238 137.186 183.622C137.186 184.006 137.058 184.326 136.802 184.582C136.546 184.822 136.226 184.942 135.842 184.942H129.482C129.098 184.942 128.778 184.822 128.522 184.582C128.266 184.326 128.138 184.006 128.138 183.622C128.138 183.238 128.266 182.926 128.522 182.686C128.778 182.43 129.098 182.302 129.482 182.302H135.842ZM151.184 188.494C151.184 189.806 150.888 190.966 150.296 191.974C149.72 192.966 148.936 193.742 147.944 194.302C146.968 194.862 145.872 195.142 144.656 195.142C143.44 195.142 142.336 194.862 141.344 194.302C140.368 193.742 139.584 192.966 138.992 191.974C138.416 190.966 138.128 189.806 138.128 188.494C138.128 187.182 138.416 186.03 138.992 185.038C139.584 184.03 140.368 183.246 141.344 182.686C142.336 182.11 143.44 181.822 144.656 181.822C145.872 181.822 146.968 182.11 147.944 182.686C148.936 183.246 149.72 184.03 150.296 185.038C150.888 186.03 151.184 187.182 151.184 188.494ZM148.304 188.494C148.304 187.678 148.136 186.974 147.8 186.382C147.48 185.774 147.04 185.302 146.48 184.966C145.936 184.63 145.328 184.462 144.656 184.462C143.984 184.462 143.368 184.63 142.808 184.966C142.264 185.302 141.824 185.774 141.488 186.382C141.168 186.974 141.008 187.678 141.008 188.494C141.008 189.294 141.168 189.998 141.488 190.606C141.824 191.198 142.264 191.662 142.808 191.998C143.368 192.334 143.984 192.502 144.656 192.502C145.328 192.502 145.936 192.334 146.48 191.998C147.04 191.662 147.48 191.198 147.8 190.606C148.136 189.998 148.304 189.294 148.304 188.494ZM155.145 194.902C154.729 194.902 154.385 194.766 154.113 194.494C153.841 194.206 153.705 193.854 153.705 193.438V183.526C153.705 183.11 153.841 182.766 154.113 182.494C154.385 182.206 154.729 182.062 155.145 182.062C155.561 182.062 155.905 182.206 156.177 182.494C156.449 182.766 156.585 183.11 156.585 183.526V185.782L156.417 184.174C156.593 183.79 156.817 183.454 157.089 183.166C157.377 182.862 157.697 182.614 158.049 182.422C158.401 182.214 158.777 182.062 159.177 181.966C159.577 181.87 159.977 181.822 160.377 181.822C160.857 181.822 161.257 181.958 161.577 182.23C161.913 182.502 162.081 182.822 162.081 183.19C162.081 183.718 161.945 184.102 161.673 184.342C161.401 184.566 161.105 184.678 160.785 184.678C160.481 184.678 160.201 184.622 159.945 184.51C159.705 184.398 159.425 184.342 159.105 184.342C158.817 184.342 158.521 184.414 158.217 184.558C157.929 184.686 157.657 184.894 157.401 185.182C157.161 185.47 156.961 185.83 156.801 186.262C156.657 186.678 156.585 187.174 156.585 187.75V193.438C156.585 193.854 156.449 194.206 156.177 194.494C155.905 194.766 155.561 194.902 155.145 194.902ZM170.855 181.822C172.135 181.822 173.079 182.134 173.687 182.758C174.295 183.366 174.695 184.158 174.887 185.134L174.479 184.918L174.671 184.534C174.863 184.166 175.159 183.774 175.559 183.358C175.959 182.926 176.439 182.566 176.999 182.278C177.575 181.974 178.215 181.822 178.919 181.822C180.071 181.822 180.943 182.07 181.535 182.566C182.143 183.062 182.559 183.726 182.783 184.558C183.007 185.374 183.119 186.286 183.119 187.294V193.438C183.119 193.854 182.983 194.206 182.711 194.494C182.439 194.766 182.095 194.902 181.679 194.902C181.263 194.902 180.919 194.766 180.647 194.494C180.375 194.206 180.239 193.854 180.239 193.438V187.294C180.239 186.766 180.175 186.294 180.047 185.878C179.919 185.446 179.687 185.102 179.351 184.846C179.015 184.59 178.535 184.462 177.911 184.462C177.303 184.462 176.783 184.59 176.351 184.846C175.919 185.102 175.591 185.446 175.367 185.878C175.159 186.294 175.055 186.766 175.055 187.294V193.438C175.055 193.854 174.919 194.206 174.647 194.494C174.375 194.766 174.031 194.902 173.615 194.902C173.199 194.902 172.855 194.766 172.583 194.494C172.311 194.206 172.175 193.854 172.175 193.438V187.294C172.175 186.766 172.111 186.294 171.983 185.878C171.855 185.446 171.623 185.102 171.287 184.846C170.951 184.59 170.471 184.462 169.847 184.462C169.239 184.462 168.719 184.59 168.287 184.846C167.855 185.102 167.527 185.446 167.303 185.878C167.095 186.294 166.991 186.766 166.991 187.294V193.438C166.991 193.854 166.855 194.206 166.583 194.494C166.311 194.766 165.967 194.902 165.551 194.902C165.135 194.902 164.791 194.766 164.519 194.494C164.247 194.206 164.111 193.854 164.111 193.438V183.526C164.111 183.11 164.247 182.766 164.519 182.494C164.791 182.206 165.135 182.062 165.551 182.062C165.967 182.062 166.311 182.206 166.583 182.494C166.855 182.766 166.991 183.11 166.991 183.526V184.558L166.631 184.486C166.775 184.214 166.975 183.926 167.231 183.622C167.487 183.302 167.799 183.006 168.167 182.734C168.535 182.462 168.943 182.246 169.391 182.086C169.839 181.91 170.327 181.822 170.855 181.822Z" fill="#23049D"/>
<g clip-path="url(#clip0_575_56)">
<path d="M125.178 86.9946C126.47 87.9282 128.058 88.4787 129.776 88.4787H144.469V95.603L153.783 88.4787H157.801C162.132 88.4787 165.643 84.9782 165.643 80.6599V52.7206C165.643 48.4024 162.132 44.9019 157.801 44.9019H129.776C125.444 44.9019 121.933 48.4024 121.933 52.7206V86.9946H125.178Z" fill="#F7F3F1"/>
<path d="M157.801 44.9019H151.083C155.415 44.9019 158.926 48.4025 158.926 52.7206V80.6599C158.926 84.9782 155.415 88.4787 151.083 88.4787H147.065L144.469 90.4647V95.603L153.783 88.4787H157.801C162.132 88.4787 165.643 84.9782 165.643 80.6599V52.7206C165.643 48.4025 162.132 44.9019 157.801 44.9019V44.9019Z" fill="#EFE7E3"/>
<path d="M137.745 77.0182L138.554 77.6726C139.835 78.71 141.434 79.2761 143.083 79.2761H154.559C155.647 79.2761 156.522 78.3686 156.471 77.2693C156.422 76.2398 156.473 66.8637 156.473 65.8066C156.473 64.7496 155.616 63.8924 154.559 63.8924L146.777 63.8689L147.73 61.6125C148.72 59.2679 148.56 56.5955 147.297 54.3858C146.612 53.3276 144.95 53.717 144.918 55.0178C144.918 57.0413 144.179 58.9951 142.84 60.5123L137.878 66.127H136.069V77.0181H137.745V77.0182Z" fill="#FFDF6B"/>
<path d="M136.97 78.7449H131.731C131.385 78.7449 131.104 78.4641 131.104 78.1177V64.7618C131.104 64.4155 131.385 64.1346 131.731 64.1346H136.97C137.317 64.1346 137.598 64.4154 137.598 64.7618V78.1177C137.597 78.464 137.317 78.7449 136.97 78.7449Z" fill="#8EE6F3"/>
<path d="M125.189 100.996V72.798C125.189 69.3928 122.42 66.6322 119.004 66.6322H96.9042C93.4885 66.6322 90.7194 69.3928 90.7194 72.798V94.8305C90.7194 98.2357 93.4884 100.996 96.9042 100.996H109.045V106.667L116.39 100.996H125.189Z" fill="#23049D"/>
<path d="M119.005 66.6322H110.247C113.662 66.6322 116.432 69.3928 116.432 72.798V100.996H125.19V72.798C125.189 69.3928 122.42 66.6322 119.005 66.6322Z" fill="#23049D"/>
<path d="M116.059 85.6259H111.614L112.101 82.6809H116.059C117.617 82.6809 117.617 80.2664 116.059 80.2664H112.501L113.165 76.2457C113.419 74.7094 111.037 74.3154 110.783 75.8519L110.053 80.2664H107.141L107.806 76.2457C108.06 74.7094 105.678 74.3152 105.424 75.8519L104.694 80.2664H99.85C98.2926 80.2664 98.2926 82.6809 99.85 82.6809H104.295L103.808 85.6259H99.85C98.2926 85.6259 98.2926 88.0404 99.85 88.0404H103.409L102.744 92.0612C102.492 93.5812 104.871 93.9936 105.126 92.4549L105.856 88.0404H108.768L108.103 92.0612C107.852 93.5812 110.231 93.9936 110.485 92.4549L111.215 88.0404H116.059C117.617 88.0404 117.617 85.6259 116.059 85.6259ZM109.167 85.6259H106.255L106.742 82.6809H109.654L109.167 85.6259Z" fill="#F7F3F1"/>
<path d="M137.153 96.4911H121.47C119.046 96.4911 117.081 98.45 117.081 100.867V116.502C117.081 118.918 119.046 120.877 121.47 120.877H130.085V124.902L135.298 120.878H137.153C139.577 120.878 141.542 118.919 141.542 116.502V100.867C141.542 98.4502 139.577 96.4911 137.153 96.4911Z" fill="#AA2EE6"/>
<path d="M137.153 96.4911H130.392C132.816 96.4911 134.781 98.45 134.781 100.867V116.502C134.781 118.919 132.816 120.878 130.392 120.878H130.085V124.902L135.298 120.878H137.153C139.577 120.878 141.542 118.919 141.542 116.502V100.867C141.542 98.4502 139.577 96.4911 137.153 96.4911Z" fill="#AA2EE6"/>
<path d="M129.311 113.997C133.085 111.996 135.04 110.294 135.04 107.657C135.04 104.019 130.584 103.109 129.311 105.838C127.856 103.019 123.582 104.019 123.582 107.657C123.582 110.294 125.537 111.996 129.311 113.997Z" fill="#F7F3F1"/>
</g>
<defs>
<filter id="filter0_bd_575_56" x="-91.8184" y="-98" width="439.853" height="439.853" filterUnits="userSpaceOnUse" color-interpolation-filters="sRGB">
<feFlood flood-opacity="0" result="BackgroundImageFix"/>
<feGaussianBlur in="BackgroundImage" stdDeviation="50"/>
<feComposite in2="SourceAlpha" operator="in" result="effect1_backgroundBlur_575_56"/>
<feColorMatrix in="SourceAlpha" type="matrix" values="0 0 0 0 0 0 0 0 0 0 0 0 0 0 0 0 0 0 127 0" result="hardAlpha"/>
<feOffset dy="6"/>
<feGaussianBlur stdDeviation="4"/>
<feComposite in2="hardAlpha" operator="out"/>
<feColorMatrix type="matrix" values="0 0 0 0 0 0 0 0 0 0 0 0 0 0 0 0 0 0 0.02 0"/>
<feBlend mode="normal" in2="effect1_backgroundBlur_575_56" result="effect2_dropShadow_575_56"/>
<feBlend mode="normal" in="SourceGraphic" in2="effect2_dropShadow_575_56" result="shape"/>
</filter>
<clipPath id="clip0_575_56">
<rect width="80" height="80" fill="white" transform="translate(88.1816 44.9019)"/>
</clipPath>
</defs>
</svg>
