<svg width="90" height="36" viewBox="0 0 90 36" fill="none" xmlns="http://www.w3.org/2000/svg">
<circle cx="7.5" cy="18.5" r="7.5" fill="#FF79CD"/>
<ellipse cx="12.5" cy="5" rx="5.5" ry="5" fill="#23049D"/>
<circle cx="15" cy="31" r="5" fill="#AA2EE6"/>
<path d="M32.918 28.382C33.402 28.382 33.798 28.3453 34.106 28.272C34.4287 28.184 34.6853 28.074 34.876 27.942C35.0667 27.7953 35.1987 27.6267 35.272 27.436C35.3453 27.2453 35.382 27.0327 35.382 26.798C35.382 26.2993 35.1473 25.8887 34.678 25.566C34.2087 25.2287 33.402 24.8693 32.258 24.488C31.7593 24.312 31.2607 24.114 30.762 23.894C30.2633 23.6593 29.816 23.3733 29.42 23.036C29.024 22.684 28.7013 22.266 28.452 21.782C28.2027 21.2833 28.078 20.682 28.078 19.978C28.078 19.274 28.21 18.6433 28.474 18.086C28.738 17.514 29.112 17.03 29.596 16.634C30.08 16.238 30.6667 15.9373 31.356 15.732C32.0453 15.512 32.8227 15.402 33.688 15.402C34.7147 15.402 35.602 15.512 36.35 15.732C37.098 15.952 37.714 16.194 38.198 16.458L37.208 19.164C36.7827 18.944 36.306 18.7533 35.778 18.592C35.2647 18.416 34.6413 18.328 33.908 18.328C33.0867 18.328 32.4927 18.4453 32.126 18.68C31.774 18.9 31.598 19.2447 31.598 19.714C31.598 19.9927 31.664 20.2273 31.796 20.418C31.928 20.6087 32.1113 20.7847 32.346 20.946C32.5953 21.0927 32.874 21.232 33.182 21.364C33.5047 21.4813 33.8567 21.606 34.238 21.738C35.03 22.0313 35.7193 22.3247 36.306 22.618C36.8927 22.8967 37.3767 23.2267 37.758 23.608C38.154 23.9893 38.4473 24.4367 38.638 24.95C38.8287 25.4633 38.924 26.0867 38.924 26.82C38.924 28.2427 38.4253 29.35 37.428 30.142C36.4307 30.9193 34.9273 31.308 32.918 31.308C32.2433 31.308 31.6347 31.264 31.092 31.176C30.5493 31.1027 30.0653 31.0073 29.64 30.89C29.2293 30.7727 28.87 30.648 28.562 30.516C28.2687 30.384 28.0193 30.2593 27.814 30.142L28.782 27.414C29.2367 27.6633 29.794 27.8907 30.454 28.096C31.1287 28.2867 31.95 28.382 32.918 28.382ZM52.1687 25.192C52.1687 26.1013 52.0367 26.9373 51.7727 27.7C51.5087 28.448 51.1274 29.0933 50.6287 29.636C50.13 30.164 49.5287 30.5747 48.8247 30.868C48.1354 31.1613 47.358 31.308 46.4927 31.308C45.642 31.308 44.8647 31.1613 44.1607 30.868C43.4714 30.5747 42.8774 30.164 42.3787 29.636C41.88 29.0933 41.4914 28.448 41.2127 27.7C40.934 26.9373 40.7947 26.1013 40.7947 25.192C40.7947 24.2827 40.934 23.454 41.2127 22.706C41.506 21.958 41.902 21.32 42.4007 20.792C42.914 20.264 43.5154 19.8533 44.2047 19.56C44.9087 19.2667 45.6714 19.12 46.4927 19.12C47.3287 19.12 48.0914 19.2667 48.7807 19.56C49.4847 19.8533 50.086 20.264 50.5847 20.792C51.0834 21.32 51.472 21.958 51.7507 22.706C52.0294 23.454 52.1687 24.2827 52.1687 25.192ZM48.8247 25.192C48.8247 24.18 48.6194 23.388 48.2087 22.816C47.8127 22.2293 47.2407 21.936 46.4927 21.936C45.7447 21.936 45.1654 22.2293 44.7547 22.816C44.344 23.388 44.1387 24.18 44.1387 25.192C44.1387 26.204 44.344 27.0107 44.7547 27.612C45.1654 28.1987 45.7447 28.492 46.4927 28.492C47.2407 28.492 47.8127 28.1987 48.2087 27.612C48.6194 27.0107 48.8247 26.204 48.8247 25.192ZM54.158 25.214C54.158 24.378 54.29 23.5933 54.554 22.86C54.8326 22.112 55.2286 21.4667 55.742 20.924C56.2553 20.3667 56.8786 19.9267 57.612 19.604C58.3453 19.2813 59.1813 19.12 60.12 19.12C60.736 19.12 61.3006 19.1787 61.814 19.296C62.3273 19.3987 62.826 19.5527 63.31 19.758L62.628 22.376C62.32 22.2587 61.9826 22.156 61.616 22.068C61.2493 21.98 60.8386 21.936 60.384 21.936C59.416 21.936 58.69 22.2367 58.206 22.838C57.7366 23.4393 57.502 24.2313 57.502 25.214C57.502 26.2553 57.722 27.062 58.162 27.634C58.6166 28.206 59.4013 28.492 60.516 28.492C60.912 28.492 61.3373 28.4553 61.792 28.382C62.2466 28.3087 62.6646 28.1913 63.046 28.03L63.508 30.714C63.1266 30.8753 62.65 31.0147 62.078 31.132C61.506 31.2493 60.8753 31.308 60.186 31.308C59.13 31.308 58.2206 31.154 57.458 30.846C56.6953 30.5233 56.0646 30.0907 55.566 29.548C55.082 29.0053 54.7226 28.3673 54.488 27.634C54.268 26.886 54.158 26.0793 54.158 25.214ZM68.986 31H65.708V19.428H68.986V31ZM69.294 16.084C69.294 16.6853 69.096 17.162 68.7 17.514C68.3186 17.8513 67.864 18.02 67.336 18.02C66.808 18.02 66.346 17.8513 65.95 17.514C65.5686 17.162 65.378 16.6853 65.378 16.084C65.378 15.4827 65.5686 15.0133 65.95 14.676C66.346 14.324 66.808 14.148 67.336 14.148C67.864 14.148 68.3186 14.324 68.7 14.676C69.096 15.0133 69.294 15.4827 69.294 16.084ZM76.4893 28.712C76.812 28.712 77.12 28.7047 77.4133 28.69C77.7067 28.6753 77.9413 28.6533 78.1173 28.624V26.138C77.9853 26.1087 77.7873 26.0793 77.5233 26.05C77.2593 26.0207 77.0173 26.006 76.7973 26.006C76.4893 26.006 76.196 26.028 75.9173 26.072C75.6533 26.1013 75.4187 26.1673 75.2133 26.27C75.008 26.3727 74.8467 26.512 74.7293 26.688C74.612 26.864 74.5533 27.084 74.5533 27.348C74.5533 27.8613 74.722 28.2207 75.0593 28.426C75.4113 28.6167 75.888 28.712 76.4893 28.712ZM76.2253 19.12C77.1933 19.12 78 19.23 78.6453 19.45C79.2907 19.67 79.804 19.9853 80.1853 20.396C80.5813 20.8067 80.86 21.3053 81.0213 21.892C81.1827 22.4787 81.2633 23.1313 81.2633 23.85V30.67C80.794 30.7727 80.1413 30.89 79.3053 31.022C78.4693 31.1687 77.4573 31.242 76.2693 31.242C75.5213 31.242 74.8393 31.176 74.2233 31.044C73.622 30.912 73.1013 30.6993 72.6613 30.406C72.2213 30.098 71.884 29.702 71.6493 29.218C71.4147 28.734 71.2973 28.14 71.2973 27.436C71.2973 26.7613 71.4293 26.1893 71.6933 25.72C71.972 25.2507 72.3387 24.8767 72.7933 24.598C73.248 24.3193 73.7687 24.1213 74.3553 24.004C74.942 23.872 75.5507 23.806 76.1813 23.806C76.6067 23.806 76.9807 23.828 77.3033 23.872C77.6407 23.9013 77.912 23.9453 78.1173 24.004V23.696C78.1173 23.1387 77.9487 22.6913 77.6113 22.354C77.274 22.0167 76.6873 21.848 75.8513 21.848C75.294 21.848 74.744 21.892 74.2013 21.98C73.6587 22.0533 73.1893 22.1633 72.7933 22.31L72.3753 19.67C72.566 19.6113 72.8007 19.5527 73.0793 19.494C73.3727 19.4207 73.688 19.362 74.0253 19.318C74.3627 19.2593 74.7147 19.2153 75.0813 19.186C75.4627 19.142 75.844 19.12 76.2253 19.12ZM88.8475 31.22C87.8942 31.2053 87.1168 31.1027 86.5155 30.912C85.9288 30.7213 85.4595 30.4573 85.1075 30.12C84.7702 29.768 84.5355 29.35 84.4035 28.866C84.2862 28.3673 84.2275 27.81 84.2275 27.194V14.456L87.5055 13.928V26.534C87.5055 26.8273 87.5275 27.0913 87.5715 27.326C87.6155 27.5607 87.6962 27.7587 87.8135 27.92C87.9455 28.0813 88.1288 28.2133 88.3635 28.316C88.5982 28.4187 88.9135 28.4847 89.3095 28.514L88.8475 31.22Z" fill="#23049D"/>
</svg>
