<svg width="257" height="256" viewBox="0 0 257 256" fill="none" xmlns="http://www.w3.org/2000/svg">
<g filter="url(#filter0_bd_575_55)">
<rect x="8.18164" y="2.05786" width="239.853" height="239.853" rx="24" fill="white" fill-opacity="0.55" shape-rendering="crispEdges"/>
<rect x="9.18164" y="3.05786" width="237.853" height="237.853" rx="23" stroke="white" stroke-width="2" shape-rendering="crispEdges"/>
</g>
<path d="M104.371 155.054C104.771 155.054 105.115 155.19 105.403 155.462C105.707 155.718 105.859 156.046 105.859 156.446C105.859 156.654 105.811 156.87 105.715 157.094L99.7866 170.966C99.6426 171.286 99.4346 171.526 99.1626 171.686C98.9066 171.83 98.6426 171.902 98.3706 171.902C98.1146 171.886 97.8666 171.806 97.6266 171.662C97.3866 171.502 97.2026 171.278 97.0746 170.99L91.1466 157.07C91.0986 156.974 91.0666 156.878 91.0506 156.782C91.0346 156.67 91.0266 156.566 91.0266 156.47C91.0266 156.006 91.1946 155.654 91.5306 155.414C91.8666 155.158 92.1866 155.03 92.4906 155.03C93.0986 155.03 93.5386 155.342 93.8106 155.966L99.0666 168.326L98.2266 168.35L103.051 155.966C103.323 155.358 103.763 155.054 104.371 155.054ZM118.34 158.822C118.756 158.822 119.1 158.958 119.372 159.23C119.644 159.502 119.78 159.854 119.78 160.286V170.438C119.78 170.854 119.644 171.206 119.372 171.494C119.1 171.766 118.756 171.902 118.34 171.902C117.924 171.902 117.58 171.766 117.308 171.494C117.036 171.206 116.9 170.854 116.9 170.438V169.262L117.428 169.478C117.428 169.686 117.316 169.942 117.092 170.246C116.868 170.534 116.564 170.822 116.18 171.11C115.796 171.398 115.34 171.646 114.812 171.854C114.3 172.046 113.74 172.142 113.132 172.142C112.028 172.142 111.028 171.862 110.132 171.302C109.236 170.726 108.524 169.942 107.996 168.95C107.484 167.942 107.228 166.79 107.228 165.494C107.228 164.182 107.484 163.03 107.996 162.038C108.524 161.03 109.228 160.246 110.108 159.686C110.988 159.11 111.964 158.822 113.036 158.822C113.724 158.822 114.356 158.926 114.932 159.134C115.508 159.342 116.004 159.606 116.42 159.926C116.852 160.246 117.18 160.574 117.404 160.91C117.644 161.23 117.764 161.502 117.764 161.726L116.9 162.038V160.286C116.9 159.87 117.036 159.526 117.308 159.254C117.58 158.966 117.924 158.822 118.34 158.822ZM113.492 169.502C114.196 169.502 114.812 169.326 115.34 168.974C115.868 168.622 116.276 168.142 116.564 167.534C116.868 166.926 117.02 166.246 117.02 165.494C117.02 164.726 116.868 164.038 116.564 163.43C116.276 162.822 115.868 162.342 115.34 161.99C114.812 161.638 114.196 161.462 113.492 161.462C112.804 161.462 112.196 161.638 111.668 161.99C111.14 162.342 110.724 162.822 110.42 163.43C110.132 164.038 109.988 164.726 109.988 165.494C109.988 166.246 110.132 166.926 110.42 167.534C110.724 168.142 111.14 168.622 111.668 168.974C112.196 169.326 112.804 169.502 113.492 169.502ZM124.338 171.902C123.922 171.902 123.578 171.766 123.306 171.494C123.034 171.206 122.898 170.854 122.898 170.438V160.526C122.898 160.11 123.034 159.766 123.306 159.494C123.578 159.206 123.922 159.062 124.338 159.062C124.754 159.062 125.098 159.206 125.37 159.494C125.642 159.766 125.778 160.11 125.778 160.526V162.782L125.61 161.174C125.786 160.79 126.01 160.454 126.282 160.166C126.57 159.862 126.89 159.614 127.242 159.422C127.594 159.214 127.97 159.062 128.37 158.966C128.77 158.87 129.17 158.822 129.57 158.822C130.05 158.822 130.45 158.958 130.77 159.23C131.106 159.502 131.274 159.822 131.274 160.19C131.274 160.718 131.138 161.102 130.866 161.342C130.594 161.566 130.298 161.678 129.978 161.678C129.674 161.678 129.394 161.622 129.138 161.51C128.898 161.398 128.618 161.342 128.298 161.342C128.01 161.342 127.714 161.414 127.41 161.558C127.122 161.686 126.85 161.894 126.594 162.182C126.354 162.47 126.154 162.83 125.994 163.262C125.85 163.678 125.778 164.174 125.778 164.75V170.438C125.778 170.854 125.642 171.206 125.37 171.494C125.098 171.766 124.754 171.902 124.338 171.902ZM136.016 170.438C136.016 170.854 135.88 171.206 135.608 171.494C135.336 171.766 134.992 171.902 134.576 171.902C134.16 171.902 133.816 171.766 133.544 171.494C133.272 171.206 133.136 170.854 133.136 170.438V160.526C133.136 160.11 133.272 159.766 133.544 159.494C133.816 159.206 134.16 159.062 134.576 159.062C134.992 159.062 135.336 159.206 135.608 159.494C135.88 159.766 136.016 160.11 136.016 160.526V170.438ZM134.552 157.502C134.008 157.502 133.624 157.414 133.4 157.238C133.176 157.062 133.064 156.75 133.064 156.302V155.846C133.064 155.382 133.184 155.07 133.424 154.91C133.68 154.734 134.064 154.646 134.576 154.646C135.136 154.646 135.528 154.734 135.752 154.91C135.976 155.086 136.088 155.398 136.088 155.846V156.302C136.088 156.766 135.968 157.086 135.728 157.262C135.488 157.422 135.096 157.502 134.552 157.502ZM151.432 165.494C151.432 166.806 151.136 167.966 150.544 168.974C149.968 169.966 149.184 170.742 148.192 171.302C147.216 171.862 146.12 172.142 144.904 172.142C143.688 172.142 142.584 171.862 141.592 171.302C140.616 170.742 139.832 169.966 139.24 168.974C138.664 167.966 138.376 166.806 138.376 165.494C138.376 164.182 138.664 163.03 139.24 162.038C139.832 161.03 140.616 160.246 141.592 159.686C142.584 159.11 143.688 158.822 144.904 158.822C146.12 158.822 147.216 159.11 148.192 159.686C149.184 160.246 149.968 161.03 150.544 162.038C151.136 163.03 151.432 164.182 151.432 165.494ZM148.552 165.494C148.552 164.678 148.384 163.974 148.048 163.382C147.728 162.774 147.288 162.302 146.728 161.966C146.184 161.63 145.576 161.462 144.904 161.462C144.232 161.462 143.616 161.63 143.056 161.966C142.512 162.302 142.072 162.774 141.736 163.382C141.416 163.974 141.256 164.678 141.256 165.494C141.256 166.294 141.416 166.998 141.736 167.606C142.072 168.198 142.512 168.662 143.056 168.998C143.616 169.334 144.232 169.502 144.904 169.502C145.576 169.502 146.184 169.334 146.728 168.998C147.288 168.662 147.728 168.198 148.048 167.606C148.384 166.998 148.552 166.294 148.552 165.494ZM163.481 159.062C163.897 159.062 164.241 159.206 164.513 159.494C164.785 159.766 164.921 160.11 164.921 160.526V166.622C164.921 168.318 164.449 169.662 163.505 170.654C162.561 171.646 161.201 172.142 159.425 172.142C157.649 172.142 156.289 171.646 155.345 170.654C154.417 169.662 153.953 168.318 153.953 166.622V160.526C153.953 160.11 154.089 159.766 154.361 159.494C154.633 159.206 154.977 159.062 155.393 159.062C155.809 159.062 156.153 159.206 156.425 159.494C156.697 159.766 156.833 160.11 156.833 160.526V166.622C156.833 167.598 157.049 168.326 157.481 168.806C157.913 169.27 158.561 169.502 159.425 169.502C160.305 169.502 160.961 169.27 161.393 168.806C161.825 168.326 162.041 167.598 162.041 166.622V160.526C162.041 160.11 162.177 159.766 162.449 159.494C162.721 159.206 163.065 159.062 163.481 159.062ZM167.295 169.91C167.135 169.686 167.063 169.398 167.079 169.046C167.095 168.694 167.303 168.39 167.703 168.134C167.959 167.974 168.231 167.91 168.519 167.942C168.807 167.958 169.087 168.102 169.359 168.374C169.823 168.838 170.311 169.198 170.823 169.454C171.335 169.71 171.975 169.838 172.743 169.838C172.983 169.822 173.247 169.79 173.535 169.742C173.823 169.678 174.071 169.55 174.279 169.358C174.503 169.15 174.615 168.838 174.615 168.422C174.615 168.07 174.495 167.79 174.255 167.582C174.015 167.374 173.695 167.198 173.295 167.054C172.911 166.91 172.479 166.774 171.999 166.646C171.503 166.502 170.991 166.342 170.463 166.166C169.951 165.99 169.479 165.766 169.047 165.494C168.615 165.206 168.263 164.83 167.991 164.366C167.719 163.902 167.583 163.318 167.583 162.614C167.583 161.814 167.807 161.134 168.255 160.574C168.703 160.014 169.279 159.582 169.983 159.278C170.703 158.974 171.455 158.822 172.239 158.822C172.735 158.822 173.255 158.886 173.799 159.014C174.343 159.126 174.863 159.318 175.359 159.59C175.855 159.846 176.271 160.19 176.607 160.622C176.783 160.862 176.887 161.15 176.919 161.486C176.951 161.822 176.799 162.126 176.463 162.398C176.223 162.59 175.943 162.678 175.623 162.662C175.303 162.63 175.039 162.518 174.831 162.326C174.559 161.974 174.191 161.694 173.727 161.486C173.279 161.278 172.759 161.174 172.167 161.174C171.927 161.174 171.663 161.206 171.375 161.27C171.103 161.318 170.863 161.438 170.655 161.63C170.447 161.806 170.343 162.094 170.343 162.494C170.343 162.862 170.463 163.158 170.703 163.382C170.943 163.59 171.263 163.766 171.663 163.91C172.079 164.038 172.519 164.166 172.983 164.294C173.463 164.422 173.951 164.574 174.447 164.75C174.943 164.926 175.399 165.158 175.815 165.446C176.231 165.734 176.567 166.11 176.823 166.574C177.079 167.022 177.207 167.598 177.207 168.302C177.207 169.118 176.967 169.814 176.487 170.39C176.007 170.966 175.407 171.406 174.687 171.71C173.967 171.998 173.231 172.142 172.479 172.142C171.535 172.142 170.591 171.982 169.647 171.662C168.703 171.326 167.919 170.742 167.295 169.91ZM112.414 190.502C112.414 191.702 112.214 192.822 111.814 193.862C111.414 194.902 110.846 195.822 110.11 196.622C109.39 197.406 108.526 198.022 107.518 198.47C106.526 198.918 105.438 199.142 104.254 199.142C103.07 199.142 101.982 198.918 100.99 198.47C99.9982 198.022 99.1342 197.406 98.3982 196.622C97.6782 195.822 97.1182 194.902 96.7182 193.862C96.3182 192.822 96.1182 191.702 96.1182 190.502C96.1182 189.302 96.3182 188.182 96.7182 187.142C97.1182 186.102 97.6782 185.19 98.3982 184.406C99.1342 183.606 99.9982 182.982 100.99 182.534C101.982 182.086 103.07 181.862 104.254 181.862C105.438 181.862 106.526 182.086 107.518 182.534C108.526 182.982 109.39 183.606 110.11 184.406C110.846 185.19 111.414 186.102 111.814 187.142C112.214 188.182 112.414 189.302 112.414 190.502ZM109.294 190.502C109.294 189.43 109.078 188.462 108.646 187.598C108.214 186.718 107.622 186.022 106.87 185.51C106.118 184.998 105.246 184.742 104.254 184.742C103.262 184.742 102.39 184.998 101.638 185.51C100.886 186.022 100.294 186.71 99.8622 187.574C99.4462 188.438 99.2382 189.414 99.2382 190.502C99.2382 191.574 99.4462 192.55 99.8622 193.43C100.294 194.294 100.886 194.982 101.638 195.494C102.39 196.006 103.262 196.262 104.254 196.262C105.246 196.262 106.118 196.006 106.87 195.494C107.622 194.982 108.214 194.294 108.646 193.43C109.078 192.55 109.294 191.574 109.294 190.502ZM121.577 185.822C122.697 185.822 123.697 186.11 124.577 186.686C125.473 187.246 126.177 188.022 126.689 189.014C127.217 190.006 127.481 191.158 127.481 192.47C127.481 193.782 127.217 194.942 126.689 195.95C126.177 196.942 125.481 197.726 124.601 198.302C123.737 198.862 122.761 199.142 121.673 199.142C121.033 199.142 120.433 199.038 119.873 198.83C119.313 198.622 118.817 198.358 118.385 198.038C117.969 197.718 117.641 197.398 117.401 197.078C117.177 196.742 117.065 196.462 117.065 196.238L117.809 195.926V202.238C117.809 202.654 117.673 202.998 117.401 203.27C117.129 203.558 116.785 203.702 116.369 203.702C115.953 203.702 115.609 203.566 115.337 203.294C115.065 203.022 114.929 202.67 114.929 202.238V187.526C114.929 187.11 115.065 186.766 115.337 186.494C115.609 186.206 115.953 186.062 116.369 186.062C116.785 186.062 117.129 186.206 117.401 186.494C117.673 186.766 117.809 187.11 117.809 187.526V188.702L117.401 188.486C117.401 188.278 117.513 188.03 117.737 187.742C117.961 187.438 118.265 187.142 118.649 186.854C119.033 186.55 119.473 186.302 119.969 186.11C120.481 185.918 121.017 185.822 121.577 185.822ZM121.217 188.462C120.513 188.462 119.897 188.638 119.369 188.99C118.841 189.342 118.425 189.822 118.121 190.43C117.833 191.022 117.689 191.702 117.689 192.47C117.689 193.222 117.833 193.91 118.121 194.534C118.425 195.142 118.841 195.622 119.369 195.974C119.897 196.326 120.513 196.502 121.217 196.502C121.921 196.502 122.529 196.326 123.041 195.974C123.569 195.622 123.977 195.142 124.265 194.534C124.569 193.91 124.721 193.222 124.721 192.47C124.721 191.702 124.569 191.022 124.265 190.43C123.977 189.822 123.569 189.342 123.041 188.99C122.529 188.638 121.921 188.462 121.217 188.462ZM130.143 186.302H135.831C136.215 186.302 136.535 186.43 136.791 186.686C137.047 186.942 137.175 187.262 137.175 187.646C137.175 188.014 137.047 188.326 136.791 188.582C136.535 188.822 136.215 188.942 135.831 188.942H130.143C129.759 188.942 129.439 188.814 129.183 188.558C128.927 188.302 128.799 187.982 128.799 187.598C128.799 187.23 128.927 186.926 129.183 186.686C129.439 186.43 129.759 186.302 130.143 186.302ZM132.711 183.302C133.127 183.302 133.463 183.446 133.719 183.734C133.991 184.006 134.127 184.35 134.127 184.766V195.446C134.127 195.67 134.167 195.854 134.247 195.998C134.343 196.142 134.463 196.246 134.607 196.31C134.767 196.374 134.935 196.406 135.111 196.406C135.303 196.406 135.479 196.374 135.639 196.31C135.799 196.23 135.983 196.19 136.191 196.19C136.415 196.19 136.615 196.294 136.791 196.502C136.983 196.71 137.079 196.998 137.079 197.366C137.079 197.814 136.831 198.182 136.335 198.47C135.855 198.758 135.335 198.902 134.775 198.902C134.439 198.902 134.063 198.878 133.647 198.83C133.247 198.766 132.863 198.63 132.495 198.422C132.143 198.198 131.847 197.862 131.607 197.414C131.367 196.966 131.247 196.35 131.247 195.566V184.766C131.247 184.35 131.383 184.006 131.655 183.734C131.943 183.446 132.295 183.302 132.711 183.302ZM142.532 197.438C142.532 197.854 142.396 198.206 142.124 198.494C141.852 198.766 141.508 198.902 141.092 198.902C140.676 198.902 140.332 198.766 140.06 198.494C139.788 198.206 139.652 197.854 139.652 197.438V187.526C139.652 187.11 139.788 186.766 140.06 186.494C140.332 186.206 140.676 186.062 141.092 186.062C141.508 186.062 141.852 186.206 142.124 186.494C142.396 186.766 142.532 187.11 142.532 187.526V197.438ZM141.068 184.502C140.524 184.502 140.14 184.414 139.916 184.238C139.692 184.062 139.58 183.75 139.58 183.302V182.846C139.58 182.382 139.7 182.07 139.94 181.91C140.196 181.734 140.58 181.646 141.092 181.646C141.652 181.646 142.044 181.734 142.268 181.91C142.492 182.086 142.604 182.398 142.604 182.846V183.302C142.604 183.766 142.484 184.086 142.244 184.262C142.004 184.422 141.612 184.502 141.068 184.502ZM157.948 192.494C157.948 193.806 157.652 194.966 157.06 195.974C156.484 196.966 155.7 197.742 154.708 198.302C153.732 198.862 152.636 199.142 151.42 199.142C150.204 199.142 149.1 198.862 148.108 198.302C147.132 197.742 146.348 196.966 145.756 195.974C145.18 194.966 144.892 193.806 144.892 192.494C144.892 191.182 145.18 190.03 145.756 189.038C146.348 188.03 147.132 187.246 148.108 186.686C149.1 186.11 150.204 185.822 151.42 185.822C152.636 185.822 153.732 186.11 154.708 186.686C155.7 187.246 156.484 188.03 157.06 189.038C157.652 190.03 157.948 191.182 157.948 192.494ZM155.068 192.494C155.068 191.678 154.9 190.974 154.564 190.382C154.244 189.774 153.804 189.302 153.244 188.966C152.7 188.63 152.092 188.462 151.42 188.462C150.748 188.462 150.132 188.63 149.572 188.966C149.028 189.302 148.588 189.774 148.252 190.382C147.932 190.974 147.772 191.678 147.772 192.494C147.772 193.294 147.932 193.998 148.252 194.606C148.588 195.198 149.028 195.662 149.572 195.998C150.132 196.334 150.748 196.502 151.42 196.502C152.092 196.502 152.7 196.334 153.244 195.998C153.804 195.662 154.244 195.198 154.564 194.606C154.9 193.998 155.068 193.294 155.068 192.494ZM167.332 185.822C168.516 185.822 169.412 186.07 170.02 186.566C170.644 187.062 171.068 187.726 171.292 188.558C171.532 189.374 171.652 190.286 171.652 191.294V197.438C171.652 197.854 171.516 198.206 171.244 198.494C170.972 198.766 170.628 198.902 170.212 198.902C169.796 198.902 169.452 198.766 169.18 198.494C168.908 198.206 168.772 197.854 168.772 197.438V191.294C168.772 190.766 168.7 190.294 168.556 189.878C168.428 189.446 168.188 189.102 167.836 188.846C167.484 188.59 166.98 188.462 166.324 188.462C165.684 188.462 165.14 188.59 164.692 188.846C164.26 189.102 163.924 189.446 163.684 189.878C163.46 190.294 163.348 190.766 163.348 191.294V197.438C163.348 197.854 163.212 198.206 162.94 198.494C162.668 198.766 162.324 198.902 161.908 198.902C161.492 198.902 161.148 198.766 160.876 198.494C160.604 198.206 160.468 197.854 160.468 197.438V187.526C160.468 187.11 160.604 186.766 160.876 186.494C161.148 186.206 161.492 186.062 161.908 186.062C162.324 186.062 162.668 186.206 162.94 186.494C163.212 186.766 163.348 187.11 163.348 187.526V188.558L162.988 188.486C163.132 188.214 163.34 187.926 163.612 187.622C163.884 187.302 164.204 187.006 164.572 186.734C164.94 186.462 165.356 186.246 165.82 186.086C166.284 185.91 166.788 185.822 167.332 185.822Z" fill="#23049D"/>
<path d="M128.182 104.61C132.865 104.61 136.661 100.814 136.661 96.1308C136.661 91.4482 132.865 87.6521 128.182 87.6521C123.5 87.6521 119.704 91.4482 119.704 96.1308C119.704 100.814 123.5 104.61 128.182 104.61Z" fill="#23049D"/>
<path d="M132.408 88.7793C133.125 90.0237 133.536 91.4668 133.536 93.0062C133.536 97.689 129.739 101.485 125.057 101.485C123.518 101.485 122.074 101.075 120.83 100.358C122.294 102.899 125.038 104.61 128.182 104.61C132.865 104.61 136.661 100.814 136.661 96.1312C136.66 92.9874 134.95 90.2434 132.408 88.7793Z" fill="#23049D"/>
<path d="M149.916 104.61C154.599 104.61 158.395 100.814 158.395 96.1308C158.395 91.4482 154.599 87.6521 149.916 87.6521C145.234 87.6521 141.438 91.4482 141.438 96.1308C141.438 100.814 145.234 104.61 149.916 104.61Z" fill="#F79219"/>
<path d="M154.143 88.7793C154.86 90.0237 155.27 91.4668 155.27 93.0062C155.27 97.689 151.474 101.485 146.792 101.485C145.252 101.485 143.809 101.075 142.565 100.358C144.029 102.899 146.773 104.61 149.917 104.61C154.599 104.61 158.395 100.814 158.395 96.1312C158.395 92.9874 156.684 90.2434 154.143 88.7793Z" fill="#EF7816"/>
<path d="M106.447 104.61C111.13 104.61 114.926 100.814 114.926 96.1308C114.926 91.4482 111.13 87.6521 106.447 87.6521C101.764 87.6521 97.9684 91.4482 97.9684 96.1308C97.9684 100.814 101.764 104.61 106.447 104.61Z" fill="#F79219"/>
<path d="M110.674 88.7793C111.391 90.0237 111.801 91.4668 111.801 93.0062C111.801 97.689 108.005 101.485 103.323 101.485C101.784 101.485 100.34 101.075 99.0957 100.358C100.56 102.899 103.304 104.61 106.448 104.61C111.13 104.61 114.926 100.814 114.926 96.1312C114.926 92.9874 113.215 90.2434 110.674 88.7793Z" fill="#EF7816"/>
<path d="M128.182 84.4237C132.865 84.4237 136.661 80.6276 136.661 75.9449C136.661 71.2623 132.865 67.4662 128.182 67.4662C123.5 67.4662 119.704 71.2623 119.704 75.9449C119.704 80.6276 123.5 84.4237 128.182 84.4237Z" fill="#F79219"/>
<path d="M132.408 68.5934C133.125 69.8378 133.536 71.2809 133.536 72.8203C133.536 77.5031 129.739 81.299 125.057 81.299C123.518 81.299 122.074 80.889 120.83 80.1718C122.294 82.7131 125.038 84.424 128.182 84.424C132.865 84.424 136.661 80.6278 136.661 75.9453C136.66 72.8015 134.95 70.0574 132.408 68.5934Z" fill="#EF7816"/>
<path d="M149.916 84.4237C154.599 84.4237 158.395 80.6276 158.395 75.9449C158.395 71.2623 154.599 67.4662 149.916 67.4662C145.234 67.4662 141.438 71.2623 141.438 75.9449C141.438 80.6276 145.234 84.4237 149.916 84.4237Z" fill="#FFC91D"/>
<path d="M154.143 68.5934C154.86 69.8378 155.27 71.2809 155.27 72.8203C155.27 77.5031 151.474 81.299 146.792 81.299C145.252 81.299 143.809 80.889 142.565 80.1718C144.029 82.7131 146.773 84.424 149.917 84.424C154.599 84.424 158.395 80.6278 158.395 75.9453C158.395 72.8015 156.684 70.0574 154.143 68.5934Z" fill="#FFA91A"/>
<path d="M106.447 84.4237C111.13 84.4237 114.926 80.6276 114.926 75.9449C114.926 71.2623 111.13 67.4662 106.447 67.4662C101.764 67.4662 97.9684 71.2623 97.9684 75.9449C97.9684 80.6276 101.764 84.4237 106.447 84.4237Z" fill="#FFC91D"/>
<path d="M110.674 68.5934C111.391 69.8378 111.801 71.2809 111.801 72.8203C111.801 77.5031 108.005 81.299 103.323 81.299C101.784 81.299 100.34 80.889 99.0957 80.1718C100.56 82.7131 103.304 84.424 106.448 84.424C111.13 84.424 114.926 80.6278 114.926 75.9453C114.926 72.8015 113.215 70.0574 110.674 68.5934Z" fill="#FFA91A"/>
<path d="M144.61 108.542C143.089 108.542 141.86 109.772 141.86 111.293V109.927C141.858 109.267 141.635 108.668 141.231 108.178C141.231 108.173 141.231 108.173 141.231 108.173C139.599 106.203 136.366 107.363 136.363 109.927V108.561C136.225 104.936 131.02 104.901 130.866 108.561V96.378C130.699 92.6999 125.488 92.738 125.369 96.4752V115.794C125.369 116.101 125.072 116.32 124.779 116.229L118.797 114.376C115.206 113.382 113.412 118.363 116.798 119.891L116.78 119.901C116.78 119.901 127.587 124.673 127.528 127.365H145.922V125.908C145.922 125.065 146.168 124.241 146.637 123.535C147.106 122.834 147.357 122.009 147.357 121.162V111.293C147.357 109.772 146.127 108.542 144.61 108.542Z" fill="#FCC4AE"/>
<path d="M144.61 108.542C144.481 108.542 144.355 108.554 144.231 108.571V118.037C144.231 118.884 143.981 119.708 143.512 120.41C143.042 121.116 142.797 121.94 142.797 122.783V124.24H124.773C126.361 125.344 127.547 126.47 127.527 127.365H145.922V125.908C145.922 125.065 146.167 124.241 146.637 123.535C147.106 122.834 147.356 122.009 147.356 121.162V111.293C147.356 109.772 146.127 108.542 144.61 108.542Z" fill="#F2AD97"/>
<path d="M115.235 118.354C115.225 118.349 115.217 118.344 115.207 118.34C115.21 118.347 115.214 118.355 115.217 118.362L115.235 118.354Z" fill="#F79219"/>
<path d="M128.434 127.363H127.526C127.498 128.634 127.95 128.187 128.434 127.363Z" fill="#F7CB15"/>
<path d="M148.381 129.189V136.679C148.381 137.688 147.563 138.506 146.554 138.506H126.854C125.845 138.506 125.027 137.688 125.027 136.679V129.189C125.027 128.18 125.845 127.362 126.854 127.362H146.554C147.562 127.363 148.381 128.181 148.381 129.189Z" fill="#808285"/>
<path d="M126.903 134.389C126.559 134.389 126.278 134.111 126.278 133.764C126.278 133.421 126.559 133.139 126.903 133.139C127.247 133.139 127.528 133.421 127.528 133.764C127.528 134.111 127.247 134.389 126.903 134.389ZM126.903 131.889C126.559 131.889 126.278 131.611 126.278 131.264V129.236C126.278 129.074 126.344 128.911 126.463 128.796C126.578 128.68 126.738 128.614 126.903 128.614H142.672C143.016 128.614 143.297 128.892 143.297 129.236C143.297 129.583 143.016 129.861 142.672 129.861H127.528V131.264C127.528 131.611 127.247 131.889 126.903 131.889Z" fill="#939598"/>
<path d="M146.554 127.363H145.256V133.555C145.256 134.564 144.438 135.382 143.429 135.382H125.028V136.68C125.028 137.689 125.846 138.507 126.855 138.507H146.554C147.563 138.507 148.381 137.689 148.381 136.68V129.189C148.381 128.181 147.563 127.363 146.554 127.363Z" fill="#58595B"/>
<path d="M146.8 127.381C146.811 127.462 146.819 127.543 146.819 127.627V135.117C146.819 136.126 146.001 136.944 144.992 136.944H125.293C125.209 136.944 125.127 136.936 125.047 136.925C125.167 137.818 125.93 138.506 126.855 138.506H146.555C147.563 138.506 148.381 137.689 148.381 136.68V129.189C148.381 128.264 147.693 127.501 146.8 127.381Z" fill="#414042"/>
<defs>
<filter id="filter0_bd_575_55" x="-91.8184" y="-97.9421" width="439.853" height="439.853" filterUnits="userSpaceOnUse" color-interpolation-filters="sRGB">
<feFlood flood-opacity="0" result="BackgroundImageFix"/>
<feGaussianBlur in="BackgroundImage" stdDeviation="50"/>
<feComposite in2="SourceAlpha" operator="in" result="effect1_backgroundBlur_575_55"/>
<feColorMatrix in="SourceAlpha" type="matrix" values="0 0 0 0 0 0 0 0 0 0 0 0 0 0 0 0 0 0 127 0" result="hardAlpha"/>
<feOffset dy="6"/>
<feGaussianBlur stdDeviation="4"/>
<feComposite in2="hardAlpha" operator="out"/>
<feColorMatrix type="matrix" values="0 0 0 0 0 0 0 0 0 0 0 0 0 0 0 0 0 0 0.02 0"/>
<feBlend mode="normal" in2="effect1_backgroundBlur_575_55" result="effect2_dropShadow_575_55"/>
<feBlend mode="normal" in="SourceGraphic" in2="effect2_dropShadow_575_55" result="shape"/>
</filter>
</defs>
</svg>
