<svg width="123" height="21" viewBox="0 0 123 21" fill="none" xmlns="http://www.w3.org/2000/svg">
<path d="M8.89065 2.9766C9.35387 1.87063 10.9209 1.87063 11.3841 2.9766L12.5135 5.67313C12.7084 6.13841 13.1461 6.45645 13.6488 6.49801L16.5624 6.73887C17.7574 6.83766 18.2416 8.32795 17.3329 9.11026L15.1174 11.0177C14.7351 11.3468 14.5679 11.8614 14.6837 12.3524L15.355 15.1977C15.6303 16.3648 14.3626 17.2858 13.3377 16.6633L10.8391 15.1457C10.4079 14.8838 9.86682 14.8838 9.43567 15.1457L6.93699 16.6633C5.91216 17.2858 4.64444 16.3648 4.91976 15.1977L5.59103 12.3524C5.70686 11.8614 5.53965 11.3468 5.15736 11.0177L2.94182 9.11026C2.03312 8.32795 2.51734 6.83766 3.71233 6.73887L6.62589 6.49801C7.12861 6.45645 7.56637 6.13841 7.76124 5.67313L8.89065 2.9766Z" fill="#FFDF6B"/>
<path d="M34.572 2.9766C35.0352 1.87063 36.6022 1.87063 37.0654 2.9766L38.1948 5.67313C38.3897 6.13841 38.8274 6.45645 39.3302 6.49801L42.2437 6.73887C43.4387 6.83766 43.9229 8.32795 43.0142 9.11026L40.7987 11.0177C40.4164 11.3468 40.2492 11.8614 40.365 12.3524L41.0363 15.1977C41.3116 16.3648 40.0439 17.2858 39.0191 16.6633L36.5204 15.1457C36.0892 14.8838 35.5481 14.8838 35.117 15.1457L32.6183 16.6633C31.5935 17.2858 30.3258 16.3648 30.6011 15.1977L31.2724 12.3524C31.3882 11.8614 31.221 11.3468 30.8387 11.0177L28.6231 9.11026C27.7144 8.32795 28.1987 6.83766 29.3936 6.73887L32.3072 6.49801C32.8099 6.45645 33.2477 6.13841 33.4426 5.67313L34.572 2.9766Z" fill="#FFDF6B"/>
<path d="M60.2533 2.9766C60.7165 1.87063 62.2835 1.87063 62.7467 2.9766L63.8761 5.67313C64.071 6.13841 64.5087 6.45645 65.0115 6.49801L67.925 6.73887C69.12 6.83766 69.6042 8.32795 68.6955 9.11026L66.48 11.0177C66.0977 11.3468 65.9305 11.8614 66.0463 12.3524L66.7176 15.1977C66.9929 16.3648 65.7252 17.2858 64.7004 16.6633L62.2017 15.1457C61.7705 14.8838 61.2295 14.8838 60.7983 15.1457L58.2996 16.6633C57.2748 17.2858 56.0071 16.3648 56.2824 15.1977L56.9537 12.3524C57.0695 11.8614 56.9023 11.3468 56.52 11.0177L54.3045 9.11026C53.3958 8.32795 53.88 6.83766 55.075 6.73887L57.9885 6.49801C58.4913 6.45645 58.929 6.13841 59.1239 5.67313L60.2533 2.9766Z" fill="#FFDF6B"/>
<path d="M85.9346 2.9766C86.3978 1.87063 87.9648 1.87063 88.428 2.9766L89.5574 5.67313C89.7523 6.13841 90.1901 6.45645 90.6928 6.49801L93.6063 6.73887C94.8013 6.83766 95.2856 8.32795 94.3769 9.11026L92.1613 11.0177C91.779 11.3468 91.6118 11.8614 91.7276 12.3524L92.3989 15.1977C92.6742 16.3648 91.4065 17.2858 90.3817 16.6633L87.883 15.1457C87.4519 14.8838 86.9108 14.8838 86.4796 15.1457L83.9809 16.6633C82.9561 17.2858 81.6884 16.3648 81.9637 15.1977L82.635 12.3524C82.7508 11.8614 82.5836 11.3468 82.2013 11.0177L79.9858 9.11026C79.0771 8.32795 79.5613 6.83766 80.7563 6.73887L83.6698 6.49801C84.1726 6.45645 84.6103 6.13841 84.8052 5.67313L85.9346 2.9766Z" fill="#FFDF6B"/>
<path d="M111.616 2.9766C112.079 1.87063 113.646 1.87063 114.109 2.9766L115.239 5.67313C115.434 6.13841 115.871 6.45645 116.374 6.49801L119.288 6.73887C120.483 6.83766 120.967 8.32795 120.058 9.11026L117.843 11.0177C117.46 11.3468 117.293 11.8614 117.409 12.3524L118.08 15.1977C118.356 16.3648 117.088 17.2858 116.063 16.6633L113.564 15.1457C113.133 14.8838 112.592 14.8838 112.161 15.1457L109.662 16.6633C108.637 17.2858 107.37 16.3648 107.645 15.1977L108.316 12.3524C108.432 11.8614 108.265 11.3468 107.883 11.0177L105.667 9.11026C104.758 8.32795 105.243 6.83766 106.438 6.73887L109.351 6.49801C109.854 6.45645 110.292 6.13841 110.487 5.67313L111.616 2.9766Z" fill="#FFDF6B"/>
</svg>
