<svg width="257" height="257" viewBox="0 0 257 257" fill="none" xmlns="http://www.w3.org/2000/svg">
<g filter="url(#filter0_bd_575_53)">
<rect x="8.18164" y="2.40454" width="239.853" height="239.853" rx="24" fill="white" fill-opacity="0.55" shape-rendering="crispEdges"/>
<rect x="9.18164" y="3.40454" width="237.853" height="237.853" rx="23" stroke="white" stroke-width="2" shape-rendering="crispEdges"/>
</g>
<path d="M74.4797 185.438C74.4797 185.854 74.3277 186.206 74.0237 186.494C73.7197 186.766 73.3677 186.902 72.9677 186.902C72.5197 186.902 72.1597 186.766 71.8877 186.494C71.6157 186.206 71.4797 185.854 71.4797 185.438V171.566C71.4797 171.15 71.6237 170.806 71.9117 170.534C72.1997 170.246 72.5677 170.102 73.0157 170.102C73.3997 170.102 73.7357 170.246 74.0237 170.534C74.3277 170.806 74.4797 171.15 74.4797 171.566V185.438ZM84.7131 173.822C85.8971 173.822 86.7931 174.07 87.4011 174.566C88.0251 175.062 88.4491 175.726 88.6731 176.558C88.9131 177.374 89.0331 178.286 89.0331 179.294V185.438C89.0331 185.854 88.8971 186.206 88.6251 186.494C88.3531 186.766 88.0091 186.902 87.5931 186.902C87.1771 186.902 86.8331 186.766 86.5611 186.494C86.2891 186.206 86.1531 185.854 86.1531 185.438V179.294C86.1531 178.766 86.0811 178.294 85.9371 177.878C85.8091 177.446 85.5691 177.102 85.2171 176.846C84.8651 176.59 84.3611 176.462 83.7051 176.462C83.0651 176.462 82.5211 176.59 82.0731 176.846C81.6411 177.102 81.3051 177.446 81.0651 177.878C80.8411 178.294 80.7291 178.766 80.7291 179.294V185.438C80.7291 185.854 80.5931 186.206 80.3211 186.494C80.0491 186.766 79.7051 186.902 79.2891 186.902C78.8731 186.902 78.5291 186.766 78.2571 186.494C77.9851 186.206 77.8491 185.854 77.8491 185.438V175.526C77.8491 175.11 77.9851 174.766 78.2571 174.494C78.5291 174.206 78.8731 174.062 79.2891 174.062C79.7051 174.062 80.0491 174.206 80.3211 174.494C80.5931 174.766 80.7291 175.11 80.7291 175.526V176.558L80.3691 176.486C80.5131 176.214 80.7211 175.926 80.9931 175.622C81.2651 175.302 81.5851 175.006 81.9531 174.734C82.3211 174.462 82.7371 174.246 83.2011 174.086C83.6651 173.91 84.1691 173.822 84.7131 173.822ZM102.658 169.142C103.074 169.142 103.418 169.278 103.69 169.55C103.962 169.822 104.098 170.174 104.098 170.606V185.438C104.098 185.854 103.962 186.206 103.69 186.494C103.418 186.766 103.074 186.902 102.658 186.902C102.242 186.902 101.898 186.766 101.626 186.494C101.354 186.206 101.218 185.854 101.218 185.438V184.262L101.746 184.478C101.746 184.686 101.634 184.942 101.41 185.246C101.186 185.534 100.882 185.822 100.498 186.11C100.114 186.398 99.6579 186.646 99.1299 186.854C98.6179 187.046 98.0579 187.142 97.4499 187.142C96.3459 187.142 95.3459 186.862 94.4499 186.302C93.5539 185.726 92.8419 184.942 92.3139 183.95C91.8019 182.942 91.5459 181.79 91.5459 180.494C91.5459 179.182 91.8019 178.03 92.3139 177.038C92.8419 176.03 93.5459 175.246 94.4259 174.686C95.3059 174.11 96.2819 173.822 97.3539 173.822C98.0419 173.822 98.6739 173.926 99.2499 174.134C99.8259 174.342 100.322 174.606 100.738 174.926C101.17 175.246 101.498 175.574 101.722 175.91C101.962 176.23 102.082 176.502 102.082 176.726L101.218 177.038V170.606C101.218 170.19 101.354 169.846 101.626 169.574C101.898 169.286 102.242 169.142 102.658 169.142ZM97.8099 184.502C98.5139 184.502 99.1299 184.326 99.6579 183.974C100.186 183.622 100.594 183.142 100.882 182.534C101.186 181.926 101.338 181.246 101.338 180.494C101.338 179.726 101.186 179.038 100.882 178.43C100.594 177.822 100.186 177.342 99.6579 176.99C99.1299 176.638 98.5139 176.462 97.8099 176.462C97.1219 176.462 96.5139 176.638 95.9859 176.99C95.4579 177.342 95.0419 177.822 94.7379 178.43C94.4499 179.038 94.3059 179.726 94.3059 180.494C94.3059 181.246 94.4499 181.926 94.7379 182.534C95.0419 183.142 95.4579 183.622 95.9859 183.974C96.5139 184.326 97.1219 184.502 97.8099 184.502ZM117.119 174.062C117.535 174.062 117.879 174.206 118.151 174.494C118.423 174.766 118.559 175.11 118.559 175.526V181.622C118.559 183.318 118.087 184.662 117.143 185.654C116.199 186.646 114.839 187.142 113.063 187.142C111.287 187.142 109.927 186.646 108.983 185.654C108.055 184.662 107.591 183.318 107.591 181.622V175.526C107.591 175.11 107.727 174.766 107.999 174.494C108.271 174.206 108.615 174.062 109.031 174.062C109.447 174.062 109.791 174.206 110.063 174.494C110.335 174.766 110.471 175.11 110.471 175.526V181.622C110.471 182.598 110.687 183.326 111.119 183.806C111.551 184.27 112.199 184.502 113.063 184.502C113.943 184.502 114.599 184.27 115.031 183.806C115.463 183.326 115.679 182.598 115.679 181.622V175.526C115.679 175.11 115.815 174.766 116.087 174.494C116.359 174.206 116.703 174.062 117.119 174.062ZM120.933 184.91C120.773 184.686 120.701 184.398 120.717 184.046C120.733 183.694 120.941 183.39 121.341 183.134C121.597 182.974 121.869 182.91 122.157 182.942C122.445 182.958 122.725 183.102 122.997 183.374C123.461 183.838 123.949 184.198 124.461 184.454C124.973 184.71 125.613 184.838 126.381 184.838C126.621 184.822 126.885 184.79 127.173 184.742C127.461 184.678 127.709 184.55 127.917 184.358C128.141 184.15 128.253 183.838 128.253 183.422C128.253 183.07 128.133 182.79 127.893 182.582C127.653 182.374 127.333 182.198 126.933 182.054C126.549 181.91 126.117 181.774 125.637 181.646C125.141 181.502 124.629 181.342 124.101 181.166C123.589 180.99 123.117 180.766 122.685 180.494C122.253 180.206 121.901 179.83 121.629 179.366C121.357 178.902 121.221 178.318 121.221 177.614C121.221 176.814 121.445 176.134 121.893 175.574C122.341 175.014 122.917 174.582 123.621 174.278C124.341 173.974 125.093 173.822 125.877 173.822C126.373 173.822 126.893 173.886 127.437 174.014C127.981 174.126 128.501 174.318 128.997 174.59C129.493 174.846 129.909 175.19 130.245 175.622C130.421 175.862 130.525 176.15 130.557 176.486C130.589 176.822 130.437 177.126 130.101 177.398C129.861 177.59 129.581 177.678 129.261 177.662C128.941 177.63 128.677 177.518 128.469 177.326C128.197 176.974 127.829 176.694 127.365 176.486C126.917 176.278 126.397 176.174 125.805 176.174C125.565 176.174 125.301 176.206 125.013 176.27C124.741 176.318 124.501 176.438 124.293 176.63C124.085 176.806 123.981 177.094 123.981 177.494C123.981 177.862 124.101 178.158 124.341 178.382C124.581 178.59 124.901 178.766 125.301 178.91C125.717 179.038 126.157 179.166 126.621 179.294C127.101 179.422 127.589 179.574 128.085 179.75C128.581 179.926 129.037 180.158 129.453 180.446C129.869 180.734 130.205 181.11 130.461 181.574C130.717 182.022 130.845 182.598 130.845 183.302C130.845 184.118 130.605 184.814 130.125 185.39C129.645 185.966 129.045 186.406 128.325 186.71C127.605 186.998 126.869 187.142 126.117 187.142C125.173 187.142 124.229 186.982 123.285 186.662C122.341 186.326 121.557 185.742 120.933 184.91ZM133.399 174.302H139.087C139.471 174.302 139.791 174.43 140.047 174.686C140.303 174.942 140.431 175.262 140.431 175.646C140.431 176.014 140.303 176.326 140.047 176.582C139.791 176.822 139.471 176.942 139.087 176.942H133.399C133.015 176.942 132.695 176.814 132.439 176.558C132.183 176.302 132.055 175.982 132.055 175.598C132.055 175.23 132.183 174.926 132.439 174.686C132.695 174.43 133.015 174.302 133.399 174.302ZM135.967 171.302C136.383 171.302 136.719 171.446 136.975 171.734C137.247 172.006 137.383 172.35 137.383 172.766V183.446C137.383 183.67 137.423 183.854 137.503 183.998C137.599 184.142 137.719 184.246 137.863 184.31C138.023 184.374 138.191 184.406 138.367 184.406C138.559 184.406 138.735 184.374 138.895 184.31C139.055 184.23 139.239 184.19 139.447 184.19C139.671 184.19 139.871 184.294 140.047 184.502C140.239 184.71 140.335 184.998 140.335 185.366C140.335 185.814 140.087 186.182 139.591 186.47C139.111 186.758 138.591 186.902 138.031 186.902C137.695 186.902 137.319 186.878 136.903 186.83C136.503 186.766 136.119 186.63 135.751 186.422C135.399 186.198 135.103 185.862 134.863 185.414C134.623 184.966 134.503 184.35 134.503 183.566V172.766C134.503 172.35 134.639 172.006 134.911 171.734C135.199 171.446 135.551 171.302 135.967 171.302ZM144.516 186.902C144.1 186.902 143.756 186.766 143.484 186.494C143.212 186.206 143.076 185.854 143.076 185.438V175.526C143.076 175.11 143.212 174.766 143.484 174.494C143.756 174.206 144.1 174.062 144.516 174.062C144.932 174.062 145.276 174.206 145.548 174.494C145.82 174.766 145.956 175.11 145.956 175.526V177.782L145.788 176.174C145.964 175.79 146.188 175.454 146.46 175.166C146.748 174.862 147.068 174.614 147.42 174.422C147.772 174.214 148.148 174.062 148.548 173.966C148.948 173.87 149.348 173.822 149.748 173.822C150.228 173.822 150.628 173.958 150.948 174.23C151.284 174.502 151.452 174.822 151.452 175.19C151.452 175.718 151.316 176.102 151.044 176.342C150.772 176.566 150.476 176.678 150.156 176.678C149.852 176.678 149.572 176.622 149.316 176.51C149.076 176.398 148.796 176.342 148.476 176.342C148.188 176.342 147.892 176.414 147.588 176.558C147.3 176.686 147.028 176.894 146.772 177.182C146.532 177.47 146.332 177.83 146.172 178.262C146.028 178.678 145.956 179.174 145.956 179.75V185.438C145.956 185.854 145.82 186.206 145.548 186.494C145.276 186.766 144.932 186.902 144.516 186.902ZM163.01 174.062C163.426 174.062 163.77 174.206 164.042 174.494C164.314 174.766 164.45 175.11 164.45 175.526V185.726C164.45 187.198 164.17 188.366 163.61 189.23C163.066 190.11 162.33 190.742 161.402 191.126C160.474 191.51 159.434 191.702 158.282 191.702C157.77 191.702 157.226 191.662 156.65 191.582C156.074 191.502 155.602 191.382 155.234 191.222C154.754 191.014 154.418 190.75 154.226 190.43C154.05 190.126 154.018 189.798 154.13 189.446C154.274 188.982 154.506 188.662 154.826 188.486C155.146 188.326 155.482 188.31 155.834 188.438C156.09 188.518 156.426 188.638 156.842 188.798C157.258 188.974 157.738 189.062 158.282 189.062C159.018 189.062 159.626 188.958 160.106 188.75C160.602 188.558 160.97 188.222 161.21 187.742C161.466 187.278 161.594 186.638 161.594 185.822V184.214L162.098 184.79C161.826 185.318 161.482 185.758 161.066 186.11C160.666 186.446 160.186 186.702 159.626 186.878C159.066 187.054 158.426 187.142 157.706 187.142C156.858 187.142 156.114 186.95 155.474 186.566C154.85 186.166 154.362 185.622 154.01 184.934C153.658 184.23 153.482 183.43 153.482 182.534V175.526C153.482 175.11 153.618 174.766 153.89 174.494C154.162 174.206 154.506 174.062 154.922 174.062C155.338 174.062 155.682 174.206 155.954 174.494C156.226 174.766 156.362 175.11 156.362 175.526V181.67C156.362 182.71 156.586 183.446 157.034 183.878C157.498 184.294 158.138 184.502 158.954 184.502C159.514 184.502 159.986 184.398 160.37 184.19C160.754 183.966 161.05 183.646 161.258 183.23C161.466 182.798 161.57 182.278 161.57 181.67V175.526C161.57 175.11 161.706 174.766 161.978 174.494C162.25 174.206 162.594 174.062 163.01 174.062ZM180.894 169.142C181.246 169.142 181.59 169.19 181.926 169.286C182.262 169.382 182.542 169.542 182.766 169.766C182.99 169.974 183.102 170.254 183.102 170.606C183.102 171.006 182.982 171.326 182.742 171.566C182.518 171.79 182.254 171.902 181.95 171.902C181.806 171.902 181.59 171.87 181.302 171.806C181.014 171.726 180.734 171.686 180.462 171.686C180.062 171.686 179.75 171.774 179.526 171.95C179.318 172.126 179.174 172.334 179.094 172.574C179.014 172.798 178.974 172.998 178.974 173.174V185.438C178.974 185.854 178.838 186.206 178.566 186.494C178.294 186.766 177.95 186.902 177.534 186.902C177.118 186.902 176.774 186.766 176.502 186.494C176.23 186.206 176.094 185.854 176.094 185.438V173.198C176.094 172.062 176.494 171.102 177.294 170.318C178.094 169.534 179.294 169.142 180.894 169.142ZM181.158 174.302C181.542 174.302 181.862 174.43 182.118 174.686C182.374 174.926 182.502 175.238 182.502 175.622C182.502 176.006 182.374 176.326 182.118 176.582C181.862 176.822 181.542 176.942 181.158 176.942H174.798C174.414 176.942 174.094 176.822 173.838 176.582C173.582 176.326 173.454 176.006 173.454 175.622C173.454 175.238 173.582 174.926 173.838 174.686C174.094 174.43 174.414 174.302 174.798 174.302H181.158ZM187.494 185.438C187.494 185.854 187.358 186.206 187.086 186.494C186.814 186.766 186.47 186.902 186.054 186.902C185.638 186.902 185.294 186.766 185.022 186.494C184.75 186.206 184.614 185.854 184.614 185.438V175.526C184.614 175.11 184.75 174.766 185.022 174.494C185.294 174.206 185.638 174.062 186.054 174.062C186.47 174.062 186.814 174.206 187.086 174.494C187.358 174.766 187.494 175.11 187.494 175.526V185.438ZM186.03 172.502C185.486 172.502 185.102 172.414 184.878 172.238C184.654 172.062 184.542 171.75 184.542 171.302V170.846C184.542 170.382 184.662 170.07 184.902 169.91C185.158 169.734 185.542 169.646 186.054 169.646C186.614 169.646 187.006 169.734 187.23 169.91C187.454 170.086 187.566 170.398 187.566 170.846V171.302C187.566 171.766 187.446 172.086 187.206 172.262C186.966 172.422 186.574 172.502 186.03 172.502ZM190.587 174.302H196.275C196.659 174.302 196.979 174.43 197.235 174.686C197.491 174.942 197.619 175.262 197.619 175.646C197.619 176.014 197.491 176.326 197.235 176.582C196.979 176.822 196.659 176.942 196.275 176.942H190.587C190.203 176.942 189.883 176.814 189.627 176.558C189.371 176.302 189.243 175.982 189.243 175.598C189.243 175.23 189.371 174.926 189.627 174.686C189.883 174.43 190.203 174.302 190.587 174.302ZM193.155 171.302C193.571 171.302 193.907 171.446 194.163 171.734C194.435 172.006 194.571 172.35 194.571 172.766V183.446C194.571 183.67 194.611 183.854 194.691 183.998C194.787 184.142 194.907 184.246 195.051 184.31C195.211 184.374 195.379 184.406 195.555 184.406C195.747 184.406 195.923 184.374 196.083 184.31C196.243 184.23 196.427 184.19 196.635 184.19C196.859 184.19 197.059 184.294 197.235 184.502C197.427 184.71 197.523 184.998 197.523 185.366C197.523 185.814 197.275 186.182 196.779 186.47C196.299 186.758 195.779 186.902 195.219 186.902C194.883 186.902 194.507 186.878 194.091 186.83C193.691 186.766 193.307 186.63 192.939 186.422C192.587 186.198 192.291 185.862 192.051 185.414C191.811 184.966 191.691 184.35 191.691 183.566V172.766C191.691 172.35 191.827 172.006 192.099 171.734C192.387 171.446 192.739 171.302 193.155 171.302Z" fill="#23049D"/>
<g clip-path="url(#clip0_575_53)">
<path d="M160.26 63.2488C159.665 63.0897 159.24 62.5653 159.207 61.9506L159.14 60.6698C159.105 60.0565 158.679 59.5349 158.085 59.3772C157.491 59.2195 156.862 59.462 156.527 59.9773L155.831 61.0498C155.495 61.5679 154.863 61.8103 154.267 61.6485L153.034 61.3172C152.436 61.154 151.801 61.3964 151.465 61.9166C151.128 62.4368 151.166 63.1148 151.56 63.5933L152.363 64.5893C152.664 64.9637 152.754 65.4652 152.601 65.9209L160.787 63.3912L160.26 63.2488Z" fill="#FFE165"/>
<path d="M161.494 63.578L160.783 63.387L152.601 65.9048C152.569 66.0236 152.521 66.1375 152.459 66.2438L151.763 67.3148C151.426 67.8323 151.462 68.5081 151.851 68.9881C152.24 69.4673 152.895 69.641 153.47 69.4173L154.662 68.9589C155.237 68.7366 155.889 68.9089 156.278 69.3861L157.082 70.3814C157.47 70.8606 158.121 71.0357 158.697 70.8148C159.272 70.5939 159.64 70.0278 159.608 69.4124L159.542 68.1323C159.509 67.5169 159.877 66.9509 160.452 66.73L161.644 66.2716C162.212 66.0458 162.574 65.4818 162.54 64.8713C162.506 64.2601 162.085 63.7391 161.494 63.578Z" fill="#FFD839"/>
<path d="M114.151 65.0553C114.545 64.5774 114.584 63.8988 114.247 63.3786C113.91 62.8583 113.276 62.6159 112.678 62.7798L106.598 64.4142C106.412 64.46 106.218 64.467 106.029 64.4336L97.926 79.6074L97.8496 81.0973C97.817 81.7127 98.1844 82.2795 98.7602 82.5004C99.3353 82.7213 99.9883 82.5469 100.376 82.067L104.336 77.175C104.725 76.6985 105.378 76.5263 105.952 76.7485L111.829 79.0032C112.405 79.2268 113.059 79.0532 113.448 78.5739C113.838 78.0946 113.873 77.4181 113.535 76.9007L110.097 71.6163C109.762 71.0995 109.796 70.4251 110.184 69.9458L114.151 65.0553Z" fill="#AA2EE6"/>
<path d="M105.036 63.8183L101.608 58.5395C101.27 58.029 100.644 57.7921 100.053 57.9505C99.4624 58.1088 99.0387 58.627 99.0019 59.2375L98.6657 65.5249C98.6338 66.141 98.2087 66.6661 97.6134 66.8251L91.5338 68.4511C90.9378 68.6102 90.512 69.1353 90.4801 69.7507C90.4474 70.3668 90.8156 70.9336 91.3914 71.1538L97.2675 73.4084C97.8426 73.6292 98.2108 74.196 98.1781 74.8114L97.926 79.6075L106.023 64.4337C105.621 64.3802 105.261 64.1559 105.036 63.8183Z" fill="#AA2EE6"/>
<path d="M140.842 88.4655L130.342 72.2991C129.671 71.2649 128.41 70.7808 127.219 71.0996C126.028 71.4191 125.179 72.4686 125.115 73.7001L124.106 92.9511C124.042 94.1812 123.192 95.2307 122.002 95.5495L103.382 100.539C102.19 100.857 101.339 101.906 101.274 103.138C101.209 104.369 101.946 105.503 103.097 105.944L121.094 112.852C122.245 113.293 122.982 114.425 122.917 115.657L122.018 132.795L142.082 89.4997C141.576 89.2844 141.145 88.9246 140.842 88.4655Z" fill="#FFD839"/>
<path d="M165.532 89.2143C166.306 88.2565 166.376 86.9097 165.706 85.8768C165.035 84.844 163.777 84.3592 162.587 84.6766L143.964 89.6651C143.336 89.8283 142.671 89.7699 142.082 89.4998L122.017 132.795L121.904 134.907C121.839 136.139 122.574 137.272 123.725 137.713C124.877 138.154 126.181 137.805 126.956 136.847L139.087 121.866C139.863 120.908 141.168 120.559 142.318 121L160.316 127.909C161.466 128.353 162.772 128.005 163.548 127.047C164.325 126.089 164.396 124.74 163.725 123.705L153.224 107.536C152.553 106.502 152.624 105.154 153.399 104.196L165.532 89.2143Z" fill="#FFCD00"/>
</g>
<defs>
<filter id="filter0_bd_575_53" x="-91.8184" y="-97.5955" width="439.853" height="439.853" filterUnits="userSpaceOnUse" color-interpolation-filters="sRGB">
<feFlood flood-opacity="0" result="BackgroundImageFix"/>
<feGaussianBlur in="BackgroundImage" stdDeviation="50"/>
<feComposite in2="SourceAlpha" operator="in" result="effect1_backgroundBlur_575_53"/>
<feColorMatrix in="SourceAlpha" type="matrix" values="0 0 0 0 0 0 0 0 0 0 0 0 0 0 0 0 0 0 127 0" result="hardAlpha"/>
<feOffset dy="6"/>
<feGaussianBlur stdDeviation="4"/>
<feComposite in2="hardAlpha" operator="out"/>
<feColorMatrix type="matrix" values="0 0 0 0 0 0 0 0 0 0 0 0 0 0 0 0 0 0 0.02 0"/>
<feBlend mode="normal" in2="effect1_backgroundBlur_575_53" result="effect2_dropShadow_575_53"/>
<feBlend mode="normal" in="SourceGraphic" in2="effect2_dropShadow_575_53" result="shape"/>
</filter>
<clipPath id="clip0_575_53">
<rect width="80" height="80" fill="white" transform="translate(88.1816 57.9019)"/>
</clipPath>
</defs>
</svg>
