<svg width="119" height="40" viewBox="0 0 119 40" fill="none" xmlns="http://www.w3.org/2000/svg">
<path d="M118.182 0H0.181641V40H118.182V0Z" fill="#ED1C24"/>
<path d="M17.8584 9.74498C17.1754 8.59061 16.1645 7.83894 14.6345 7.83894C13.1592 7.83894 11.5746 8.93961 11.3287 10.443C10.7003 14.3356 20.3446 12.7248 19.0879 20.4832C18.3502 25.1275 14.8531 28.4027 10.0446 28.4027C6.79337 28.4027 4.68964 26.5503 3.51483 23.8926L6.95729 21.047C7.28515 22.8456 8.6512 24.4295 10.6183 24.4295C12.5035 24.4295 13.9242 22.8725 14.2247 21.0738C14.6072 18.6846 12.4762 18.0134 10.7276 17.2886C7.91353 16.0537 5.91909 14.5503 6.49284 10.953C7.12122 7.14095 10.5364 4.02686 14.4979 4.02686C16.6017 4.02686 19.3064 5.04699 20.5086 6.60404L17.8584 9.74498Z" fill="white"/>
<path d="M25.7269 12.7249L24.4155 20.8859C24.1423 22.604 24.0603 24.6712 26.3006 24.6712C28.5137 24.6712 29.142 22.604 29.4153 20.8859L30.7267 12.7249H35.098L33.65 21.6108C32.9397 26.0134 30.2349 28.3222 25.6723 28.3222C21.1096 28.3222 19.1698 26.0134 19.8802 21.6108L21.3282 12.7249H25.7269Z" fill="white"/>
<path d="M40.8628 14.1208C42.0376 12.9664 43.7589 12.2416 45.3981 12.2416C49.7422 12.2416 51.7639 16.2416 51.1082 20.1879C50.4525 24.2953 47.2286 28.2953 42.6933 28.2953C41.136 28.2953 39.606 27.6241 38.923 26.3892H38.8684L37.3657 35.8657H32.9943L36.71 12.7248H41.0814L40.8628 14.1208ZM46.6822 20.2684C46.9827 18.2282 45.9992 16.0537 43.7315 16.0537C41.4912 16.0537 39.7153 18.2282 39.4148 20.2684C39.1143 22.3087 40.0978 24.51 42.3655 24.51C44.6058 24.51 46.3544 22.2818 46.6822 20.2684Z" fill="white"/>
<path d="M57.4741 14.3087H57.5287C58.6216 12.9933 60.0423 12.2416 61.6542 12.2416C62.2826 12.2416 62.911 12.4027 63.4028 12.6174L62.2553 16.6174C61.7908 16.2416 61.1897 16.0537 60.534 16.0537C57.5014 16.0537 56.7637 18.6845 56.3812 21.0201L55.2884 27.812H50.917L53.3486 12.7248H57.72L57.4741 14.3087Z" fill="white"/>
<path d="M66.1349 20.9664C65.8617 22.8725 66.2168 25.0201 68.5118 25.0201C69.9598 25.0201 71.0254 24.161 71.7904 22.953L75.7246 23.5973C74.1673 26.604 71.1893 28.2953 67.9654 28.2953C63.2115 28.2953 60.8619 24.9664 61.5996 20.4027C62.3372 15.812 65.3699 12.2416 70.3423 12.2416C75.3694 12.2416 77.036 15.8926 76.3257 20.4563L76.2437 20.9664H66.1349ZM72.5553 18.3087C72.5827 16.7785 71.845 15.2751 70.1511 15.2751C68.4025 15.2751 67.1731 16.7516 66.7086 18.3087H72.5553Z" fill="white"/>
<path d="M82.5549 14.0939H82.6096C83.6478 12.8859 85.2324 12.2416 86.6531 12.2416C88.5656 12.2416 89.9316 13.0201 90.6966 14.604C91.8714 13.1275 93.7566 12.2416 95.5325 12.2416C99.4394 12.2416 99.9312 15.1409 99.4121 18.4161L97.9094 27.812H93.538L94.8221 19.8926C95.0407 18.4161 95.6144 15.6778 93.4561 15.6778C91.0791 15.6778 90.5873 18.8456 90.3414 20.4026L89.1666 27.812H84.7953L86.0247 20.161C86.2706 18.6845 86.9536 15.6778 84.686 15.6778C82.2544 15.6778 81.8446 18.8188 81.5987 20.4026L80.4239 27.812H76.0525L78.4841 12.7248H82.8555L82.5549 14.0939Z" fill="white"/>
<path d="M104.712 20.9664C104.439 22.8725 104.794 25.0201 107.089 25.0201C108.537 25.0201 109.603 24.161 110.368 22.953L114.302 23.5973C112.745 26.604 109.767 28.2953 106.543 28.2953C101.789 28.2953 99.4394 24.9664 100.177 20.4027C100.915 15.812 103.947 12.2416 108.92 12.2416C113.947 12.2416 115.613 15.8926 114.903 20.4563L114.821 20.9664H104.712ZM111.105 18.3087C111.133 16.7785 110.395 15.2751 108.701 15.2751C106.953 15.2751 105.723 16.7516 105.259 18.3087H111.105Z" fill="white"/>
</svg>
