<svg width="184" height="35" viewBox="0 0 184 35" fill="none" xmlns="http://www.w3.org/2000/svg">
<g clip-path="url(#clip0_562_48)">
<path fill-rule="evenodd" clip-rule="evenodd" d="M18.209 0L36.2363 12.3707C36.2363 12.3707 31.8431 15.2371 26.9954 15.2371C24.723 15.2371 23.3596 14.3319 20.0268 12.2198C16.6941 9.9569 15.1792 8.90086 14.8762 8.59914C14.1187 7.99569 13.2098 8.75 13.8157 9.35345C14.5732 9.9569 35.9333 24.2888 35.9333 24.2888C35.9333 24.2888 27.9043 27.0043 18.0575 35L0.181641 22.4784C0.181641 22.4784 4.57485 19.6121 9.42253 19.6121C11.6949 19.6121 13.0583 20.5172 16.3911 22.6293C19.7239 24.8922 21.2388 25.9483 21.5417 26.25C22.2992 26.7026 23.2081 25.9483 22.4507 25.3448C21.8447 24.8922 0.333131 10.7112 0.333131 10.7112C0.333131 10.7112 8.3621 7.99569 18.209 0Z" fill="#ED1C24"/>
<path fill-rule="evenodd" clip-rule="evenodd" d="M53.6576 21.4225C53.6576 21.7242 54.1121 23.6854 57.2934 23.6854C59.7172 23.6854 60.3232 22.9311 60.3232 22.3276C60.3232 18.7069 44.2652 22.3276 44.2652 13.8794C44.2652 8.75004 50.0219 6.9397 56.0815 6.9397C69.5641 6.9397 68.6551 13.4268 68.6551 13.4268H59.1113C59.1113 12.2199 57.2934 11.1638 56.0815 11.1638C55.021 11.1638 52.5972 11.1638 52.5972 12.6725C52.5972 15.5388 69.4126 13.4268 69.4126 21.2716C69.4126 23.9871 67.8977 28.0604 56.3844 28.0604C42.2959 28.0604 43.8108 21.2716 43.8108 21.2716H53.6576V21.4225Z" fill="#2E3192"/>
<path d="M183.182 7.24133H175.91V27.306H183.182V7.24133Z" fill="#2E3192"/>
<path fill-rule="evenodd" clip-rule="evenodd" d="M148.036 27.306V7.24133H155.156V14.7844L163.942 7.24133H174.092L162.73 16.5948L174.092 27.306H163.791L155.156 19.612V27.306H148.036Z" fill="#2E3192"/>
<path fill-rule="evenodd" clip-rule="evenodd" d="M108.194 22.3275H120.162V27.306H96.2263V23.2327L108.194 12.3706H96.6808V7.24133H120.162V11.6163L108.194 22.3275Z" fill="#2E3192"/>
<path fill-rule="evenodd" clip-rule="evenodd" d="M70.17 7.24133H78.0475C78.0475 7.24133 78.0475 15.6896 78.0475 19.7629C78.0475 22.3275 80.3199 23.3836 82.5922 23.3836C84.8646 23.3836 87.1369 22.3275 87.1369 19.7629C87.1369 15.6896 87.1369 7.24133 87.1369 7.24133H94.7114C94.7114 7.24133 94.7114 16.7456 94.7114 21.1206C94.7114 27.0043 87.8944 27.7586 82.4407 27.7586C76.9871 27.7586 70.17 27.1551 70.17 21.1206C70.17 16.8965 70.17 7.24133 70.17 7.24133Z" fill="#2E3192"/>
<path fill-rule="evenodd" clip-rule="evenodd" d="M121.525 7.24133H129.403C129.403 7.24133 129.403 15.6896 129.403 19.7629C129.403 22.3275 131.675 23.3836 133.947 23.3836C136.22 23.3836 138.492 22.3275 138.492 19.7629C138.492 15.6896 138.492 7.24133 138.492 7.24133H146.067C146.067 7.24133 146.067 16.7456 146.067 21.1206C146.067 27.0043 139.249 27.7586 133.796 27.7586C128.342 27.7586 121.525 27.1551 121.525 21.1206C121.525 16.8965 121.525 7.24133 121.525 7.24133Z" fill="#2E3192"/>
</g>
<defs>
<clipPath id="clip0_562_48">
<rect width="183" height="35" fill="white" transform="translate(0.181641)"/>
</clipPath>
</defs>
</svg>
