<svg width="161" height="33" viewBox="0 0 161 33" fill="none" xmlns="http://www.w3.org/2000/svg">
<g clip-path="url(#clip0_562_22)">
<path d="M147.226 28.8103C147.226 28.8103 147.694 28.622 148.396 27.9629C149.097 27.3038 149.237 26.4565 149.892 25.6562C150.594 24.7618 152.137 23.3495 152.137 23.3495C152.137 23.3495 151.67 25.3267 151.249 26.2211C150.594 27.5392 149.892 27.9629 149.892 27.9629C149.892 27.9629 150.266 28.1983 150.734 28.01C151.202 27.8217 151.716 27.5392 152.418 27.5863C153.119 27.6804 154.055 27.6804 154.943 27.1626C155.832 26.6448 156.627 26.0799 156.627 26.0799C156.627 26.0799 156.066 27.8217 153.821 28.8103C152.371 29.4222 150.687 29.4222 150.126 29.1398C149.612 28.8573 148.957 28.7161 148.489 28.8573C148.068 28.9515 147.226 28.8103 147.226 28.8103Z" fill="#00AEEF"/>
<path d="M154.476 19.5364C154.476 19.5364 154.476 21.2311 154.616 21.796C154.71 22.3609 154.616 23.1141 154.335 23.679C154.102 24.2439 153.681 25.0442 153.961 25.1854C154.242 25.3267 154.382 24.7147 154.99 24.2439C155.645 23.7732 156.814 23.2083 157.422 22.7846C158.451 22.1726 159.199 20.9957 159.199 20.9957C159.199 20.9957 158.732 23.632 156.58 25.1384C155.13 26.127 152.231 26.4094 152.231 26.4094C152.231 26.4094 152.558 26.127 152.698 25.4208C152.839 24.7147 152.932 23.2554 153.213 22.3138C153.587 21.4194 154.476 19.5364 154.476 19.5364Z" fill="#00AEEF"/>
<path d="M155.692 15.7233C155.692 15.7233 156.534 17.8417 156.627 18.4066C156.721 19.0186 156.58 20.7604 156.58 20.7604C156.58 20.7604 157.282 20.1484 157.937 19.0656C158.451 18.2183 159.199 17.9358 159.62 17.2768C160.041 16.6177 160.228 16.3352 160.228 16.3352C160.228 16.3352 159.807 18.2183 159.34 19.301C158.545 21.137 155.505 23.02 155.505 23.02C155.505 23.02 155.645 22.5022 155.738 21.4665C155.832 20.4308 155.551 19.2069 155.458 18.4537C155.364 17.6534 155.692 15.7233 155.692 15.7233Z" fill="#00AEEF"/>
<path d="M155.645 11.3922C155.645 11.3922 155.879 11.6747 156.393 12.475C156.908 13.2752 157.563 14.1226 157.609 14.5934C157.656 15.0641 157.89 15.6761 158.03 15.629C158.171 15.5819 158.171 15.0641 158.451 14.2167C158.685 13.3694 159.387 12.5691 159.527 11.9571C159.62 11.4393 159.807 10.7332 159.807 10.7332C159.807 10.7332 160.182 12.8516 159.714 14.5463C159.246 16.241 158.264 17.0884 158.077 17.3237C157.937 17.512 157.609 17.8416 157.609 17.8416C157.609 17.8416 157.75 17.9828 157.282 16.9471C156.814 15.8644 156.487 15.2053 156.066 14.4051C155.738 13.8872 155.645 11.3922 155.645 11.3922Z" fill="#00AEEF"/>
<path d="M154.569 7.86156C154.569 7.86156 155.739 8.52062 156.253 9.1326C156.861 9.79166 157.516 11.0156 157.75 10.9215C157.983 10.8744 157.75 9.83873 157.796 9.46213C157.843 9.03845 158.03 7.24957 157.937 6.77882C157.843 6.30806 157.703 5.60193 157.703 5.60193C157.703 5.60193 159.012 7.53203 159.012 8.9443C158.966 10.3566 159.059 10.639 158.451 11.7218C158.124 12.2867 157.937 13.0869 157.937 13.0869C157.937 13.0869 157.75 12.6633 157.282 12.0984C156.814 11.5335 155.832 10.5919 155.505 9.69751C155.084 8.89722 154.569 7.86156 154.569 7.86156Z" fill="#00AEEF"/>
<path d="M152.792 4.47218C152.792 4.47218 153.119 4.75463 153.634 5.13124C154.148 5.50784 154.85 5.74322 155.224 6.11983C155.598 6.49643 156.066 6.92011 156.253 6.82596C156.44 6.73181 156.206 6.40228 155.926 5.60199C155.645 4.80171 155.645 4.00142 155.411 3.67189C155.177 3.34236 154.943 2.63623 154.943 2.63623C154.943 2.63623 156.393 3.76604 156.674 4.70756C156.955 5.64907 156.908 8.61483 156.908 8.61483C156.908 8.61483 156.627 8.23823 156.159 7.86162C155.645 7.48502 154.382 6.54351 153.961 6.21398C153.119 5.60199 152.792 4.47218 152.792 4.47218Z" fill="#00AEEF"/>
<path d="M151.623 1.31812C151.623 1.31812 152.792 1.64764 153.54 2.25963C154.289 2.91869 154.897 4.66048 154.897 4.66048C154.897 4.66048 153.681 4.0485 153.166 3.57774C152.652 3.10699 151.623 1.31812 151.623 1.31812Z" fill="#00AEEF"/>
<path d="M128.986 29.7518C128.986 29.7518 130.342 30.4579 131.371 30.3638C132.4 30.2696 133.382 29.9401 135.066 29.4693C136.797 29.0456 138.106 28.9044 138.855 29.0456C139.603 29.1869 140.959 29.3752 140.959 29.3752C140.959 29.3752 142.69 29.0927 144.093 29.0456C144.794 28.9986 145.73 29.1869 146.712 29.5164C147.694 29.8459 149.518 30.4108 150.5 30.4108C151.997 30.4108 153.119 29.8459 153.119 29.8459C153.119 29.8459 152.979 30.9287 149.425 31.2582C147.32 31.4465 146.431 31.3053 145.496 30.6933C144.56 30.0813 143.532 29.6105 143.111 29.5635C142.643 29.5635 141.941 29.6105 141.941 29.6105C141.941 29.6105 143.204 30.0813 143.859 30.5991C144.514 31.117 146.151 32.4351 146.151 32.4351L145.73 32.9058C145.73 32.9058 145.075 31.9643 144.046 31.2111C143.017 30.4579 141.567 29.7047 141.006 29.7047C140.445 29.7047 138.714 30.505 137.545 31.5877C136.469 32.6234 136.329 32.8588 136.329 32.8588L135.908 32.4351C135.908 32.4351 136.75 31.5877 137.872 30.8816C138.995 30.1284 140.164 29.5635 140.164 29.5635C140.164 29.5635 140.117 29.4693 139.463 29.5164C138.808 29.5635 138.247 29.6576 137.077 30.3638C135.908 31.0699 135.487 31.2582 134.458 31.3523C133.476 31.4936 131.512 31.2582 130.342 30.7874C129.267 30.3638 128.986 29.7518 128.986 29.7518Z" fill="#00AEEF"/>
<path d="M125.432 25.9386C125.432 25.9386 126.507 26.786 127.022 27.0685C128.144 27.7275 129.126 27.398 129.828 27.4921C130.53 27.5863 131.184 27.7746 131.371 27.8687C131.605 27.9629 132.213 28.01 132.26 27.9158C132.307 27.7746 131.699 27.4921 131.184 26.6448C130.483 25.3737 130.062 23.3495 130.062 23.3495C130.062 23.3495 131.138 24.1027 132.073 25.3737C133.055 26.6448 132.915 27.3038 133.57 27.8687C134.271 28.4807 134.926 28.8103 134.926 28.8103C134.926 28.8103 134.037 28.7161 133.429 28.7632C132.774 28.8103 131.746 29.281 130.763 29.2339C129.828 29.2339 128.051 29.1398 126.507 27.4451C125.572 26.3623 125.432 25.9386 125.432 25.9386Z" fill="#00AEEF"/>
<path d="M122.766 21.137C122.766 21.137 123.42 21.9844 124.309 22.7376C125.244 23.4908 126.648 23.9616 127.115 24.4794C127.583 25.0443 127.817 25.468 128.051 25.3268C128.331 25.1855 127.864 24.7148 127.723 24.0086C127.536 23.3025 127.396 21.3724 127.536 20.6192C127.63 20.2426 127.583 19.6306 127.583 19.6306C127.583 19.6306 128.004 20.3367 128.518 21.5136C128.986 22.5493 128.939 24.3382 129.173 25.1385C129.36 25.9858 129.828 26.5507 129.828 26.5507C129.828 26.5507 128.378 26.4566 127.677 26.2212C126.975 25.9387 124.964 25.2326 124.216 23.9616C123.467 22.7376 122.766 21.137 122.766 21.137Z" fill="#00AEEF"/>
<path d="M121.877 16.3352C121.877 16.3352 122.158 17.0884 122.625 17.5121C123.093 17.9358 123.374 18.1711 123.935 18.8302C124.309 19.3009 125.198 20.9957 125.478 20.9486C125.712 20.9015 125.385 20.0071 125.432 19.1597C125.572 17.6533 126.507 15.9115 126.507 15.9115C126.507 15.9115 126.741 17.7474 126.648 18.8302C126.601 19.9129 126.227 21.1369 126.367 21.7489C126.507 22.3609 126.554 23.1611 126.554 23.1611C126.554 23.1611 125.151 22.2196 124.122 21.3252C123.14 20.4308 122.204 18.4065 122.064 17.7945C121.924 17.1355 121.877 16.3352 121.877 16.3352Z" fill="#00AEEF"/>
<path d="M122.251 10.9216C122.251 10.9216 122.064 13.6049 122.392 14.8289C122.906 16.8061 124.449 18.0771 124.449 18.0771C124.449 18.0771 124.59 17.4181 124.917 16.7119C125.244 16.0058 125.759 15.2997 125.993 14.7818C126.414 13.652 126.507 11.7219 126.507 11.7219C126.507 11.7219 126.133 12.2868 125.806 12.7105C125.478 13.1342 125.057 13.6991 124.777 14.4523C124.449 15.2055 124.449 15.8646 124.075 15.9116C123.608 15.9587 123.982 15.2526 123.608 14.3111C123.187 13.3696 122.625 12.381 122.579 11.9102C122.438 11.3924 122.251 10.9216 122.251 10.9216Z" fill="#00AEEF"/>
<path d="M124.356 5.69617C124.356 5.69617 123.28 7.15551 123.14 8.47363C123 9.79175 123.093 10.8745 123.608 11.7689C123.935 12.3809 124.075 13.2753 124.075 13.2753C124.075 13.2753 124.262 12.8046 124.683 12.3338C125.104 11.8631 125.899 11.1569 126.414 10.2154C126.975 9.27391 127.443 8.04995 127.443 8.04995C127.443 8.04995 126.601 8.5207 126.086 8.99146C124.87 10.1213 124.262 11.1569 124.262 11.1569C124.262 11.1569 123.935 10.8274 124.028 10.4037C124.169 9.98005 124.216 9.27391 124.169 8.75608C124.122 8.23825 123.982 7.9558 124.075 7.34381C124.216 6.77891 124.356 5.69617 124.356 5.69617Z" fill="#00AEEF"/>
<path d="M127.256 2.68335C127.256 2.68335 125.852 3.57779 125.432 4.66052C125.151 5.50789 125.244 6.35525 125.104 7.24968C124.964 8.09704 125.151 8.70903 125.151 8.70903C125.151 8.70903 125.244 8.47365 125.759 7.95582C126.273 7.39091 127.069 7.06138 127.583 6.68478C128.799 5.83742 129.313 4.5193 129.313 4.5193C129.313 4.5193 128.612 5.17836 128.285 5.36666C127.957 5.55496 127.302 5.88449 126.788 6.21402C126.414 6.4494 126.133 7.20261 126.133 7.20261C126.133 7.20261 125.665 6.77893 125.853 6.30817C125.993 5.83741 126.227 5.50789 126.32 5.03713C126.414 4.56637 126.554 3.90732 126.741 3.53071C127.022 3.20118 127.256 2.68335 127.256 2.68335Z" fill="#00AEEF"/>
<path d="M128.285 2.63624C128.846 2.07133 130.483 1.45935 130.483 1.45935C130.483 1.45935 129.781 2.63624 129.033 3.38945C128.144 4.28389 127.069 4.80172 127.069 4.80172C127.069 4.80172 127.256 3.57775 128.285 2.63624Z" fill="#00AEEF"/>
<path d="M135.814 4.56641C137.311 4.56641 140.304 6.16698 140.304 8.33245C140.304 9.69765 139.275 10.5921 139.275 10.5921C139.275 10.5921 139.322 11.3453 139.229 11.5807C139.042 12.0044 138.855 11.9102 138.574 12.2868C138.293 12.6634 138.2 13.2754 137.124 13.2754C136.048 13.2754 136.048 12.9459 135.534 12.9459C135.019 12.9459 134.645 13.4637 134.645 13.4637V17.371C134.645 17.371 134.739 17.8888 135.721 18.4066C136.703 18.9245 137.451 19.254 137.779 19.254C138.059 19.254 138.059 18.9245 138.434 18.9245C138.808 18.9245 140.304 18.9245 140.304 19.6306C140.304 20.3367 139.556 20.8075 136.89 20.8075C134.224 20.8075 133.382 20.5721 133.055 20.5721C132.728 20.5721 132.728 20.6192 132.728 21.0429C132.728 21.4665 132.728 22.0315 132.728 22.0315C132.728 22.0315 133.195 22.7376 133.71 23.02C134.271 23.3025 134.552 23.4437 135.16 23.4437C135.768 23.4437 136.656 23.2554 137.405 22.9259C138.153 22.5964 138.855 22.4081 139.696 22.4081C140.538 22.4081 142.035 22.2198 142.035 21.3253C142.035 20.4309 141.708 20.1484 141.708 19.4894C141.708 18.8303 141.801 18.2183 141.474 17.8888C141.146 17.5593 139.696 16.5236 139.696 15.9116C139.696 15.2996 140.211 15.0643 140.304 14.7347C140.351 14.4052 140.304 14.2169 140.538 14.1228C140.772 14.0757 140.912 13.9815 140.912 13.9815L141.006 13.4166C141.006 13.4166 141.287 13.2754 141.427 13.1342C141.567 12.9929 141.708 12.8988 141.708 12.8988C141.708 12.8988 141.567 12.4751 141.801 12.2397C142.035 11.9573 142.362 12.0514 142.596 12.0514C142.83 12.0514 143.578 11.9573 143.578 11.9573C143.578 11.9573 143.812 11.5336 144.093 11.3453C144.514 11.0158 145.73 10.8275 146.01 10.5921C146.291 10.3567 146.618 9.74472 147.46 9.74472C150.734 9.74472 152.979 12.7576 152.979 14.3581C152.979 17.1356 151.202 20.525 148.676 20.525C146.712 20.525 146.852 21.137 146.852 21.749C146.852 23.2554 148.349 23.5379 148.349 23.5379C148.349 23.5379 145.262 25.8917 141.661 25.8917C138.247 25.8917 134.832 24.6206 132.4 21.8902C130.717 20.0072 129.407 17.5593 129.407 14.1228C129.407 12.8046 129.407 12.5693 129.407 12.5693C129.407 12.5693 130.296 11.8631 130.857 11.5807C131.418 11.2982 132.634 10.5921 132.634 10.0272C132.634 9.46227 132.4 9.22689 132.4 8.00292C132.4 7.43802 132.541 6.40235 133.055 5.69622C133.663 4.99009 134.692 4.56641 135.814 4.56641Z" fill="#00AEEF"/>
<path d="M141.146 0.941528C133.897 0.941528 128.051 6.82598 128.051 14.1227C128.051 21.4194 133.897 27.3039 141.146 27.3039C148.396 27.3039 154.242 21.4194 154.242 14.1227C154.242 6.87306 148.396 0.941528 141.146 0.941528ZM150.921 5.97862C151.623 6.7789 151.903 7.39089 151.903 7.39089C151.903 7.39089 151.436 7.86164 150.921 8.09702C150.407 8.3324 149.425 8.709 149.425 8.709C149.425 8.709 149.05 7.57919 148.77 6.96721C148.489 6.35522 148.162 5.64909 148.162 5.64909C148.162 5.64909 148.442 5.46079 148.863 5.13126C149.284 4.8488 149.565 4.56635 149.565 4.56635C149.565 4.56635 150.36 5.27248 150.921 5.97862ZM146.618 2.58917C146.618 2.58917 147.507 2.96578 148.115 3.43654C148.723 3.86022 149.378 4.42512 149.378 4.42512C149.378 4.42512 149.284 4.61343 148.957 4.8488C148.629 5.08418 148.115 5.31956 148.115 5.31956C148.115 5.31956 147.694 4.70758 147.32 4.23682C146.946 3.76607 146.244 2.96578 146.244 2.96578C146.244 2.96578 146.384 2.82455 146.478 2.7304C146.572 2.58917 146.618 2.58917 146.618 2.58917ZM144.888 5.31956C144.748 4.70758 144.42 4.14267 144.42 4.14267C144.42 4.14267 144.981 3.86022 145.309 3.62484C145.683 3.38946 145.964 3.15408 145.964 3.15408C145.964 3.15408 146.572 3.76606 147.039 4.33097C147.507 4.89588 147.788 5.46079 147.788 5.46079C147.788 5.46079 147.226 5.74324 146.525 6.02569C145.87 6.30815 145.028 6.44937 145.028 6.44937C145.028 6.44937 145.028 5.93154 144.888 5.31956ZM145.215 9.83882C145.215 9.83882 144.888 9.93297 143.906 9.98005C142.877 10.0271 141.988 9.98005 141.988 9.98005V7.06136C141.988 7.06136 142.783 7.10843 143.344 7.10843C143.906 7.10843 144.888 6.92013 144.888 6.92013C144.888 6.92013 144.935 7.39089 145.075 8.09702C145.215 8.80316 145.215 9.83882 145.215 9.83882ZM145.543 2.11842C145.917 2.21257 146.338 2.49502 146.338 2.49502L145.964 2.77748C145.964 2.77748 145.683 2.5421 145.449 2.30672C145.168 2.02427 144.607 1.88304 144.607 1.88304C144.607 1.88304 145.215 2.02427 145.543 2.11842ZM144.514 2.02427C145.168 2.40087 145.683 2.96578 145.683 2.96578C145.683 2.96578 145.449 3.15408 145.075 3.38946C144.748 3.62484 144.233 3.76607 144.233 3.76607C144.233 3.76607 143.952 3.05993 143.719 2.63625C143.532 2.25965 142.83 1.50644 142.83 1.50644C142.83 1.50644 143.859 1.64766 144.514 2.02427ZM141.941 1.41228C141.941 1.41228 142.643 1.22398 143.298 2.44795C143.625 3.10701 143.952 3.81314 143.952 3.81314C143.952 3.81314 143.438 3.95437 142.924 4.04852C142.409 4.09559 141.941 4.00144 141.941 4.00144V1.41228ZM141.941 4.42512C141.941 4.42512 142.456 4.4722 143.017 4.42512C143.578 4.37805 144.14 4.2839 144.14 4.2839C144.14 4.2839 144.327 4.4722 144.514 5.31956C144.701 6.07277 144.748 6.5906 144.748 6.5906C144.748 6.5906 144.14 6.7789 143.298 6.82598C142.456 6.87306 141.941 6.7789 141.941 6.7789V4.42512ZM141.52 1.41228L141.567 4.09559C141.567 4.09559 141.006 4.14267 140.398 3.95437C139.79 3.76606 139.509 3.57776 139.509 3.57776C139.509 3.57776 139.837 2.9187 140.258 2.30672C141.193 1.03568 141.52 1.41228 141.52 1.41228ZM140.725 1.36521C140.725 1.36521 140.117 1.93012 139.837 2.44795C139.556 2.96578 139.182 3.48361 139.182 3.48361C139.182 3.48361 138.714 3.29531 138.387 3.05993C138.059 2.82455 137.919 2.63625 137.919 2.63625C137.919 2.63625 138.434 2.02427 139.369 1.69474C140.304 1.36521 140.725 1.36521 140.725 1.36521ZM138.293 1.64766C138.761 1.50644 139.182 1.50644 139.182 1.50644C139.182 1.50644 138.621 1.78889 138.34 2.02427C138.013 2.25965 137.779 2.44795 137.779 2.44795C137.779 2.44795 137.639 2.3538 137.545 2.21257C137.498 2.07134 137.451 1.93012 137.451 1.93012C137.451 1.93012 137.779 1.78889 138.293 1.64766ZM141.193 26.9273C134.739 26.9273 128.425 21.7489 128.425 14.1698C128.425 4.6605 137.031 2.02427 137.031 2.02427L137.545 2.49502C137.545 2.49502 137.077 2.77748 136.703 3.20116C136.329 3.57776 136.095 3.90729 136.095 3.90729L136.329 4.09559C136.329 4.09559 136.61 3.71899 136.89 3.38946C137.218 3.15408 137.685 2.82455 137.685 2.82455C137.685 2.82455 138.106 3.29531 138.387 3.43654C138.667 3.57776 139.088 3.76607 139.088 3.76607C139.088 3.76607 139.042 4.00144 138.948 4.23682C138.855 4.51927 138.714 4.8488 138.714 4.8488L138.995 4.99003C138.995 4.99003 139.182 4.4722 139.275 4.2839C139.369 4.09559 139.463 3.86022 139.463 3.86022C139.463 3.86022 140.117 4.14267 140.679 4.23682C141.24 4.37805 141.614 4.33097 141.614 4.33097V6.5906H140.772V7.06136H141.614V9.88589H140.912V10.2154H141.614V11.2982H141.941V10.2625C141.941 10.2625 142.409 10.2625 143.578 10.2154C144.748 10.1683 145.496 10.0271 145.496 10.0271C145.496 10.0271 145.449 8.94438 145.356 8.1441C145.262 7.34381 145.075 6.73183 145.075 6.73183C145.075 6.73183 145.73 6.63768 146.478 6.35522C147.226 6.07277 147.834 5.74324 147.834 5.74324C147.834 5.74324 148.209 6.30815 148.536 7.15551C148.817 7.95579 149.144 8.80316 149.144 8.80316L148.629 9.03853L148.723 9.27391L149.284 9.08561L149.471 9.46221L149.705 9.36806L149.518 8.99146C149.518 8.99146 150.22 8.80316 150.921 8.42655C151.623 8.04995 152.137 7.72042 152.137 7.72042C152.137 7.72042 153.868 10.3567 153.868 14.1698C153.868 19.9601 149.425 26.9273 141.193 26.9273Z" fill="#00AEEF"/>
<path d="M14.9142 31.9173V28.5749L14.8206 28.4808C13.2305 31.1641 11.2661 32.5763 7.57129 32.5763C4.25063 32.5293 0.181641 30.9287 0.181641 25.4679V8.99146H4.01678V24.1969C4.01678 27.9629 5.93434 29.234 8.41315 29.234C13.2305 29.234 14.6803 24.9501 14.6803 21.6077V8.99146H18.5155V31.9173H14.9142Z" fill="#00AEEF"/>
<path d="M42.7891 31.9173H38.9539V17.7946C38.9539 13.7932 37.8314 11.816 34.0899 11.816C31.8917 11.816 28.1033 13.2283 28.1033 19.4422V31.9173H24.2682V8.99146H27.8695V12.2397H27.963C28.8049 11.0157 30.9095 8.3324 34.8382 8.3324C38.3459 8.3324 42.7891 9.79174 42.7891 16.2882V31.9173Z" fill="#00AEEF"/>
<path d="M48.5418 4.80174V0.423706H52.3769V4.80174H48.5418ZM52.3769 31.9173H48.5418V8.99147H52.3769V31.9173Z" fill="#00AEEF"/>
<path d="M72.3477 16.7119C71.88 13.6519 70.1495 11.816 66.9691 11.816C62.2454 11.816 60.702 16.3823 60.702 20.4308C60.702 24.3852 61.6374 29.234 66.9224 29.234C69.4947 29.234 71.6929 27.3039 72.3477 23.8203H76.0425C75.6683 27.4451 73.4234 32.5763 66.782 32.5763C60.3746 32.5763 56.5862 27.7275 56.5862 21.0899C56.5862 13.9815 60.0004 8.3324 67.5304 8.3324C73.4702 8.3324 75.7619 12.7104 76.0425 16.7119H72.3477Z" fill="#00AEEF"/>
<path d="M99.1936 24.7147C99.0533 25.7974 98.0244 29.0456 95.1246 30.9757C94.0957 31.6819 92.5991 32.5292 88.951 32.5292C82.5435 32.5292 78.7552 27.6804 78.7552 21.0428C78.7552 13.9344 82.1694 8.28528 89.6993 8.28528C96.2939 8.28528 99.4743 13.5577 99.4743 21.6547H82.8241C82.8241 26.4094 85.0223 29.1868 89.4187 29.1868C93.02 29.1868 95.1714 26.3623 95.3117 24.6676H99.1936V24.7147ZM95.5456 18.5948C95.3585 15.0642 93.8619 11.7689 89.1849 11.7689C85.6771 11.7689 82.8709 15.0642 82.8709 18.5948H95.5456Z" fill="#00AEEF"/>
<path d="M108.828 12.1926V31.9173H104.993V12.1926H101.859V8.99144H104.993V5.03709C104.993 1.60057 107.191 0 110.933 0C111.494 0 112.055 0.0470756 112.663 0.0941512V3.57775C112.196 3.53067 111.588 3.4836 111.073 3.4836C109.436 3.4836 108.828 4.33096 108.828 6.1669V9.03852H112.663V12.2397H108.828" fill="#00AEEF"/>
</g>
<defs>
<clipPath id="clip0_562_22">
<rect width="160" height="33" fill="white" transform="translate(0.181641)"/>
</clipPath>
</defs>
</svg>
